%TF.GenerationSoftware,KiCad,Pcbnew,10.0.1*%
%TF.CreationDate,2026-06-19T00:36:27+09:00*%
%TF.ProjectId,robot_arm_power_distribution_board,726f626f-745f-4617-926d-5f706f776572,rev?*%
%TF.SameCoordinates,Original*%
%TF.FileFunction,Copper,L1,Top*%
%TF.FilePolarity,Positive*%
%FSLAX46Y46*%
G04 Gerber Fmt 4.6, Leading zero omitted, Abs format (unit mm)*
G04 Created by KiCad (PCBNEW 10.0.1) date 2026-06-19 00:36:27*
%MOMM*%
%LPD*%
G01*
G04 APERTURE LIST*
G04 Aperture macros list*
%AMRoundRect*
0 Rectangle with rounded corners*
0 $1 Rounding radius*
0 $2 $3 $4 $5 $6 $7 $8 $9 X,Y pos of 4 corners*
0 Add a 4 corners polygon primitive as box body*
4,1,4,$2,$3,$4,$5,$6,$7,$8,$9,$2,$3,0*
0 Add four circle primitives for the rounded corners*
1,1,$1+$1,$2,$3*
1,1,$1+$1,$4,$5*
1,1,$1+$1,$6,$7*
1,1,$1+$1,$8,$9*
0 Add four rect primitives between the rounded corners*
20,1,$1+$1,$2,$3,$4,$5,0*
20,1,$1+$1,$4,$5,$6,$7,0*
20,1,$1+$1,$6,$7,$8,$9,0*
20,1,$1+$1,$8,$9,$2,$3,0*%
G04 Aperture macros list end*
%TA.AperFunction,ComponentPad*%
%ADD10R,2.159000X2.159000*%
%TD*%
%TA.AperFunction,ComponentPad*%
%ADD11C,2.159000*%
%TD*%
%TA.AperFunction,ComponentPad*%
%ADD12C,1.905000*%
%TD*%
%TA.AperFunction,ComponentPad*%
%ADD13C,1.600000*%
%TD*%
%TA.AperFunction,ComponentPad*%
%ADD14R,2.850000X2.850000*%
%TD*%
%TA.AperFunction,ComponentPad*%
%ADD15C,2.850000*%
%TD*%
%TA.AperFunction,ComponentPad*%
%ADD16C,2.235200*%
%TD*%
%TA.AperFunction,ComponentPad*%
%ADD17RoundRect,0.250000X-0.750000X-0.750000X0.750000X-0.750000X0.750000X0.750000X-0.750000X0.750000X0*%
%TD*%
%TA.AperFunction,ComponentPad*%
%ADD18C,2.000000*%
%TD*%
%TA.AperFunction,ComponentPad*%
%ADD19R,1.500000X1.500000*%
%TD*%
%TA.AperFunction,ComponentPad*%
%ADD20R,1.800000X1.800000*%
%TD*%
%TA.AperFunction,ComponentPad*%
%ADD21C,1.800000*%
%TD*%
%TA.AperFunction,ComponentPad*%
%ADD22RoundRect,0.250001X-0.949999X-0.949999X0.949999X-0.949999X0.949999X0.949999X-0.949999X0.949999X0*%
%TD*%
%TA.AperFunction,ComponentPad*%
%ADD23C,2.400000*%
%TD*%
%TA.AperFunction,ComponentPad*%
%ADD24R,0.900000X2.000000*%
%TD*%
%TA.AperFunction,ComponentPad*%
%ADD25RoundRect,1.025000X1.025000X1.025000X-1.025000X1.025000X-1.025000X-1.025000X1.025000X-1.025000X0*%
%TD*%
%TA.AperFunction,ComponentPad*%
%ADD26C,4.100000*%
%TD*%
%TA.AperFunction,Conductor*%
%ADD27C,0.635000*%
%TD*%
%TA.AperFunction,Conductor*%
%ADD28C,2.032000*%
%TD*%
%TA.AperFunction,Conductor*%
%ADD29C,0.254000*%
%TD*%
G04 APERTURE END LIST*
D10*
%TO.P,D5,1,K_1*%
%TO.N,Net-(D5-K)*%
X100000000Y-85000000D03*
D11*
%TO.P,D5,2,A_2*%
%TO.N,GND*%
X120066000Y-85000000D03*
%TD*%
D12*
%TO.P,F7,1*%
%TO.N,Net-(D3-K)*%
X120000000Y-125000000D03*
%TO.P,F7,2*%
%TO.N,+24V_SW*%
X144130000Y-125000000D03*
%TD*%
D10*
%TO.P,D6,1,K_1*%
%TO.N,Net-(D6-K)*%
X100000000Y-60000000D03*
D11*
%TO.P,D6,2,A_2*%
%TO.N,GND*%
X120066000Y-60000000D03*
%TD*%
D13*
%TO.P,C17,1*%
%TO.N,+24V_SW*%
X52500000Y-67000000D03*
%TO.P,C17,2*%
%TO.N,GND*%
X57500000Y-67000000D03*
%TD*%
D12*
%TO.P,F10,1*%
%TO.N,Net-(D6-K)*%
X120000000Y-50000000D03*
%TO.P,F10,2*%
%TO.N,+24V_SW*%
X144130000Y-50000000D03*
%TD*%
D14*
%TO.P,J5,1,Pin_1_1*%
%TO.N,Net-(J5-Pin_1)*%
X52500000Y-60000000D03*
D15*
%TO.P,J5,2,Pin_2_2*%
%TO.N,GND*%
X57500000Y-60000000D03*
%TD*%
D13*
%TO.P,C7,1*%
%TO.N,+24V_SW*%
X52500000Y-117000000D03*
%TO.P,C7,2*%
%TO.N,GND*%
X57500000Y-117000000D03*
%TD*%
%TO.P,C9,1*%
%TO.N,+24V_SW*%
X107500000Y-97500000D03*
%TO.P,C9,2*%
%TO.N,GND*%
X112500000Y-97500000D03*
%TD*%
D14*
%TO.P,J3,1,Pin_1_1*%
%TO.N,Net-(J3-Pin_1)*%
X52500000Y-110000000D03*
D15*
%TO.P,J3,2,Pin_2_2*%
%TO.N,GND*%
X57500000Y-110000000D03*
%TD*%
D16*
%TO.P,F6,1*%
%TO.N,Net-(J6-Pin_1)*%
X68269000Y-33349000D03*
%TO.P,F6,2*%
%TO.N,+24V_SW*%
X68269000Y-36651000D03*
%TO.P,F6,3*%
%TO.N,N/C*%
X81731000Y-33349000D03*
%TO.P,F6,4*%
X81731000Y-36651000D03*
%TD*%
D17*
%TO.P,C20,1*%
%TO.N,+24V_SW*%
X52500000Y-50000000D03*
D18*
%TO.P,C20,2*%
%TO.N,GND*%
X57500000Y-50000000D03*
%TD*%
D16*
%TO.P,F3,1*%
%TO.N,Net-(J3-Pin_1)*%
X68269000Y-108349000D03*
%TO.P,F3,2*%
%TO.N,+24V_SW*%
X68269000Y-111651000D03*
%TO.P,F3,3*%
%TO.N,N/C*%
X81731000Y-108349000D03*
%TO.P,F3,4*%
X81731000Y-111651000D03*
%TD*%
%TO.P,F1,1*%
%TO.N,Net-(J1-Pin_1)*%
X93269000Y-152424000D03*
%TO.P,F1,2*%
%TO.N,+24V_SW*%
X93269000Y-155726000D03*
%TO.P,F1,3*%
%TO.N,N/C*%
X106731000Y-152424000D03*
%TO.P,F1,4*%
X106731000Y-155726000D03*
%TD*%
D17*
%TO.P,C24,1*%
%TO.N,+24V_SW*%
X52500000Y-25000000D03*
D18*
%TO.P,C24,2*%
%TO.N,GND*%
X57500000Y-25000000D03*
%TD*%
D16*
%TO.P,F4,1*%
%TO.N,Net-(J4-Pin_1)*%
X68269000Y-83349000D03*
%TO.P,F4,2*%
%TO.N,+24V_SW*%
X68269000Y-86651000D03*
%TO.P,F4,3*%
%TO.N,N/C*%
X81731000Y-83349000D03*
%TO.P,F4,4*%
X81731000Y-86651000D03*
%TD*%
D14*
%TO.P,J6,1,Pin_1_1*%
%TO.N,Net-(J6-Pin_1)*%
X52500000Y-35000000D03*
D15*
%TO.P,J6,2,Pin_2_2*%
%TO.N,GND*%
X57500000Y-35000000D03*
%TD*%
D13*
%TO.P,R2,1*%
%TO.N,Net-(D2-A)*%
X100000000Y-25000000D03*
%TO.P,R2,2*%
%TO.N,+24V_SW*%
X110160000Y-25000000D03*
%TD*%
D12*
%TO.P,F11,1*%
%TO.N,Net-(D7-K)*%
X120000000Y-25000000D03*
%TO.P,F11,2*%
%TO.N,+24V_SW*%
X144130000Y-25000000D03*
%TD*%
D19*
%TO.P,TP2,1,1_1*%
%TO.N,GND*%
X110000000Y-125000000D03*
%TD*%
D12*
%TO.P,F9,1*%
%TO.N,Net-(D5-K)*%
X120000000Y-75000000D03*
%TO.P,F9,2*%
%TO.N,+24V_SW*%
X144130000Y-75000000D03*
%TD*%
D14*
%TO.P,J4,1,Pin_1_1*%
%TO.N,Net-(J4-Pin_1)*%
X52500000Y-85000000D03*
D15*
%TO.P,J4,2,Pin_2_2*%
%TO.N,GND*%
X57500000Y-85000000D03*
%TD*%
D16*
%TO.P,F5,1*%
%TO.N,Net-(J5-Pin_1)*%
X68269000Y-58349000D03*
%TO.P,F5,2*%
%TO.N,+24V_SW*%
X68269000Y-61651000D03*
%TO.P,F5,3*%
%TO.N,N/C*%
X81731000Y-58349000D03*
%TO.P,F5,4*%
X81731000Y-61651000D03*
%TD*%
D17*
%TO.P,C10,1*%
%TO.N,+24V_SW*%
X107500000Y-72500000D03*
D18*
%TO.P,C10,2*%
%TO.N,GND*%
X112500000Y-72500000D03*
%TD*%
D14*
%TO.P,J2,1,Pin_1_1*%
%TO.N,Net-(J2-Pin_1)*%
X52500000Y-135000000D03*
D15*
%TO.P,J2,2,Pin_2_2*%
%TO.N,GND*%
X57500000Y-135000000D03*
%TD*%
D14*
%TO.P,J11,1,Pin_1_1*%
%TO.N,Net-(D7-K)*%
X130000000Y-35000000D03*
D15*
%TO.P,J11,2,Pin_2_2*%
%TO.N,GND*%
X135000000Y-35000000D03*
%TD*%
D13*
%TO.P,C4,1*%
%TO.N,GND*%
X113150000Y-165975000D03*
%TO.P,C4,2*%
%TO.N,+24V_SW*%
X118150000Y-165975000D03*
%TD*%
D17*
%TO.P,C16,1*%
%TO.N,+24V_SW*%
X52500000Y-75000000D03*
D18*
%TO.P,C16,2*%
%TO.N,GND*%
X57500000Y-75000000D03*
%TD*%
D17*
%TO.P,C5,1*%
%TO.N,+24V_SW*%
X52500000Y-125000000D03*
D18*
%TO.P,C5,2*%
%TO.N,GND*%
X57500000Y-125000000D03*
%TD*%
D20*
%TO.P,D1,1,K_1*%
%TO.N,GND*%
X88000000Y-146000000D03*
D21*
%TO.P,D1,2,A_2*%
%TO.N,Net-(D1-A)*%
X90540000Y-146000000D03*
%TD*%
D14*
%TO.P,J10,1,Pin_1_1*%
%TO.N,Net-(D6-K)*%
X130000000Y-60000000D03*
D15*
%TO.P,J10,2,Pin_2_2*%
%TO.N,GND*%
X135000000Y-60000000D03*
%TD*%
D19*
%TO.P,TP1,1,1_1*%
%TO.N,+24V_SW*%
X110000000Y-50000000D03*
%TD*%
D14*
%TO.P,J8,1,Pin_1_1*%
%TO.N,Net-(D4-K)*%
X130000000Y-110000000D03*
D15*
%TO.P,J8,2,Pin_2_2*%
%TO.N,GND*%
X135000000Y-110000000D03*
%TD*%
D14*
%TO.P,J9,1,Pin_1_1*%
%TO.N,Net-(D5-K)*%
X130000000Y-85000000D03*
D15*
%TO.P,J9,2,Pin_2_2*%
%TO.N,GND*%
X135000000Y-85000000D03*
%TD*%
D22*
%TO.P,C1,1*%
%TO.N,+24V_SW*%
X68300000Y-155000000D03*
D23*
%TO.P,C1,2*%
%TO.N,GND*%
X75800000Y-155000000D03*
%TD*%
D14*
%TO.P,J7,1,Pin_1_1*%
%TO.N,Net-(D3-K)*%
X130000000Y-135000000D03*
D15*
%TO.P,J7,2,Pin_2_2*%
%TO.N,GND*%
X135000000Y-135000000D03*
%TD*%
D10*
%TO.P,D7,1,K_1*%
%TO.N,Net-(D7-K)*%
X100000000Y-35000000D03*
D11*
%TO.P,D7,2,A_2*%
%TO.N,GND*%
X120066000Y-35000000D03*
%TD*%
D20*
%TO.P,D2,1,K_1*%
%TO.N,GND*%
X90000000Y-25000000D03*
D21*
%TO.P,D2,2,A_2*%
%TO.N,Net-(D2-A)*%
X92540000Y-25000000D03*
%TD*%
D13*
%TO.P,C3,1*%
%TO.N,GND*%
X81225000Y-166050000D03*
%TO.P,C3,2*%
%TO.N,+24V_SW*%
X86225000Y-166050000D03*
%TD*%
D16*
%TO.P,F2,1*%
%TO.N,Net-(J2-Pin_1)*%
X68269000Y-133349000D03*
%TO.P,F2,2*%
%TO.N,+24V_SW*%
X68269000Y-136651000D03*
%TO.P,F2,3*%
%TO.N,N/C*%
X81731000Y-133349000D03*
%TO.P,F2,4*%
X81731000Y-136651000D03*
%TD*%
D12*
%TO.P,F8,1*%
%TO.N,Net-(D4-K)*%
X120000000Y-100000000D03*
%TO.P,F8,2*%
%TO.N,+24V_SW*%
X144130000Y-100000000D03*
%TD*%
D13*
%TO.P,C6,1*%
%TO.N,+24V_SW*%
X52500000Y-142000000D03*
%TO.P,C6,2*%
%TO.N,GND*%
X57500000Y-142000000D03*
%TD*%
%TO.P,C21,1*%
%TO.N,+24V_SW*%
X52500000Y-42000000D03*
%TO.P,C21,2*%
%TO.N,GND*%
X57500000Y-42000000D03*
%TD*%
%TO.P,C14,1*%
%TO.N,+24V_SW*%
X52500000Y-92000000D03*
%TO.P,C14,2*%
%TO.N,GND*%
X57500000Y-92000000D03*
%TD*%
D10*
%TO.P,D4,1,K_1*%
%TO.N,Net-(D4-K)*%
X100000000Y-110000000D03*
D11*
%TO.P,D4,2,A_2*%
%TO.N,GND*%
X120066000Y-110000000D03*
%TD*%
D13*
%TO.P,R1,1*%
%TO.N,Net-(D1-A)*%
X104000000Y-146000000D03*
%TO.P,R1,2*%
%TO.N,+24V_SW*%
X114160000Y-146000000D03*
%TD*%
D24*
%TO.P,J1,*%
%TO.N,*%
X106875000Y-167275000D03*
X93375000Y-167275000D03*
D25*
%TO.P,J1,1,Pin_1_1*%
%TO.N,Net-(J1-Pin_1)*%
X103725000Y-161275000D03*
D26*
%TO.P,J1,2,Pin_2_2*%
%TO.N,GND*%
X96525000Y-161275000D03*
%TD*%
D10*
%TO.P,D3,1,K_1*%
%TO.N,Net-(D3-K)*%
X100000000Y-135000000D03*
D11*
%TO.P,D3,2,A_2*%
%TO.N,GND*%
X120066000Y-135000000D03*
%TD*%
D22*
%TO.P,C2,1*%
%TO.N,+24V_SW*%
X124325000Y-155000000D03*
D23*
%TO.P,C2,2*%
%TO.N,GND*%
X131825000Y-155000000D03*
%TD*%
D17*
%TO.P,C8,1*%
%TO.N,+24V_SW*%
X52500000Y-100000000D03*
D18*
%TO.P,C8,2*%
%TO.N,GND*%
X57500000Y-100000000D03*
%TD*%
%TO.N,Net-(D5-K)*%
D27*
X110000000Y-85000000D02*
X100000000Y-85000000D01*
X130000000Y-85000000D02*
X120000000Y-75000000D01*
X120000000Y-75000000D02*
X110000000Y-85000000D01*
%TO.N,Net-(D3-K)*%
X130000000Y-135000000D02*
X120000000Y-125000000D01*
X120000000Y-125000000D02*
X110000000Y-135000000D01*
X110000000Y-135000000D02*
X100000000Y-135000000D01*
%TO.N,Net-(D6-K)*%
X120000000Y-50000000D02*
X110000000Y-60000000D01*
X110000000Y-60000000D02*
X100000000Y-60000000D01*
X130000000Y-60000000D02*
X120000000Y-50000000D01*
%TO.N,Net-(J5-Pin_1)*%
D28*
X67151400Y-57231400D02*
X55268600Y-57231400D01*
X68269000Y-58349000D02*
X67151400Y-57231400D01*
X55268600Y-57231400D02*
X52500000Y-60000000D01*
%TO.N,Net-(J3-Pin_1)*%
X68269000Y-108349000D02*
X67279000Y-107359000D01*
X55141000Y-107359000D02*
X52500000Y-110000000D01*
X67279000Y-107359000D02*
X55141000Y-107359000D01*
%TO.N,Net-(J6-Pin_1)*%
X55141000Y-32359000D02*
X52500000Y-35000000D01*
X68269000Y-33349000D02*
X67279000Y-32359000D01*
X67279000Y-32359000D02*
X55141000Y-32359000D01*
%TO.N,Net-(J4-Pin_1)*%
X67151400Y-82231400D02*
X55268600Y-82231400D01*
X68269000Y-83349000D02*
X67151400Y-82231400D01*
X55268600Y-82231400D02*
X52500000Y-85000000D01*
%TO.N,Net-(D2-A)*%
D29*
X100000000Y-25000000D02*
X92540000Y-25000000D01*
%TO.N,Net-(D7-K)*%
D27*
X120000000Y-25000000D02*
X110000000Y-35000000D01*
X110000000Y-35000000D02*
X100000000Y-35000000D01*
X130000000Y-35000000D02*
X120000000Y-25000000D01*
%TO.N,Net-(J2-Pin_1)*%
D28*
X55268600Y-132231400D02*
X52500000Y-135000000D01*
X68269000Y-133349000D02*
X67151400Y-132231400D01*
X67151400Y-132231400D02*
X55268600Y-132231400D01*
%TO.N,Net-(D1-A)*%
D29*
X104000000Y-146000000D02*
X90540000Y-146000000D01*
%TO.N,Net-(D4-K)*%
D27*
X120000000Y-100000000D02*
X110000000Y-110000000D01*
X110000000Y-110000000D02*
X100000000Y-110000000D01*
X130000000Y-110000000D02*
X120000000Y-100000000D01*
%TD*%
%TA.AperFunction,Conductor*%
%TO.N,Net-(J1-Pin_1)*%
G36*
X110852296Y-149798360D02*
G01*
X110919117Y-149818772D01*
X110964295Y-149872070D01*
X110974948Y-149922699D01*
X110892658Y-179383378D01*
X110872786Y-179450363D01*
X110819854Y-179495970D01*
X110768312Y-179507032D01*
X87833781Y-179442972D01*
X87766796Y-179423100D01*
X87721189Y-179370168D01*
X87710134Y-179317625D01*
X87852383Y-166227135D01*
X92424500Y-166227135D01*
X92424500Y-168322870D01*
X92424501Y-168322876D01*
X92430908Y-168382483D01*
X92481202Y-168517328D01*
X92481206Y-168517335D01*
X92567452Y-168632544D01*
X92567455Y-168632547D01*
X92682664Y-168718793D01*
X92682671Y-168718797D01*
X92817517Y-168769091D01*
X92817516Y-168769091D01*
X92824444Y-168769835D01*
X92877127Y-168775500D01*
X93872872Y-168775499D01*
X93932483Y-168769091D01*
X94067331Y-168718796D01*
X94182546Y-168632546D01*
X94268796Y-168517331D01*
X94319091Y-168382483D01*
X94325500Y-168322873D01*
X94325499Y-166227135D01*
X105924500Y-166227135D01*
X105924500Y-168322870D01*
X105924501Y-168322876D01*
X105930908Y-168382483D01*
X105981202Y-168517328D01*
X105981206Y-168517335D01*
X106067452Y-168632544D01*
X106067455Y-168632547D01*
X106182664Y-168718793D01*
X106182671Y-168718797D01*
X106317517Y-168769091D01*
X106317516Y-168769091D01*
X106324444Y-168769835D01*
X106377127Y-168775500D01*
X107372872Y-168775499D01*
X107432483Y-168769091D01*
X107567331Y-168718796D01*
X107682546Y-168632546D01*
X107768796Y-168517331D01*
X107819091Y-168382483D01*
X107825500Y-168322873D01*
X107825499Y-166227128D01*
X107819091Y-166167517D01*
X107768796Y-166032669D01*
X107768795Y-166032668D01*
X107768793Y-166032664D01*
X107682547Y-165917455D01*
X107682544Y-165917452D01*
X107567335Y-165831206D01*
X107567328Y-165831202D01*
X107432482Y-165780908D01*
X107432483Y-165780908D01*
X107372883Y-165774501D01*
X107372881Y-165774500D01*
X107372873Y-165774500D01*
X107372864Y-165774500D01*
X106377129Y-165774500D01*
X106377123Y-165774501D01*
X106317516Y-165780908D01*
X106182671Y-165831202D01*
X106182664Y-165831206D01*
X106067455Y-165917452D01*
X106067452Y-165917455D01*
X105981206Y-166032664D01*
X105981202Y-166032671D01*
X105930908Y-166167517D01*
X105924501Y-166227116D01*
X105924501Y-166227123D01*
X105924500Y-166227135D01*
X94325499Y-166227135D01*
X94325499Y-166227128D01*
X94319091Y-166167517D01*
X94268796Y-166032669D01*
X94268795Y-166032668D01*
X94268793Y-166032664D01*
X94182547Y-165917455D01*
X94182544Y-165917452D01*
X94067335Y-165831206D01*
X94067328Y-165831202D01*
X93932482Y-165780908D01*
X93932483Y-165780908D01*
X93872883Y-165774501D01*
X93872881Y-165774500D01*
X93872873Y-165774500D01*
X93872864Y-165774500D01*
X92877129Y-165774500D01*
X92877123Y-165774501D01*
X92817516Y-165780908D01*
X92682671Y-165831202D01*
X92682664Y-165831206D01*
X92567455Y-165917452D01*
X92567452Y-165917455D01*
X92481206Y-166032664D01*
X92481202Y-166032671D01*
X92430908Y-166167517D01*
X92424501Y-166227116D01*
X92424501Y-166227123D01*
X92424500Y-166227135D01*
X87852383Y-166227135D01*
X87907752Y-161131762D01*
X93974500Y-161131762D01*
X93974500Y-161418237D01*
X94006572Y-161702891D01*
X94070317Y-161982181D01*
X94070321Y-161982193D01*
X94164929Y-162252565D01*
X94164935Y-162252579D01*
X94289223Y-162510666D01*
X94289225Y-162510669D01*
X94441634Y-162753227D01*
X94620243Y-162977195D01*
X94822805Y-163179757D01*
X95046773Y-163358366D01*
X95289331Y-163510775D01*
X95547428Y-163635068D01*
X95547434Y-163635070D01*
X95817806Y-163729678D01*
X95817818Y-163729682D01*
X96097102Y-163793426D01*
X96097105Y-163793426D01*
X96097108Y-163793427D01*
X96097107Y-163793427D01*
X96239434Y-163809463D01*
X96381763Y-163825499D01*
X96381764Y-163825500D01*
X96381767Y-163825500D01*
X96668236Y-163825500D01*
X96668236Y-163825499D01*
X96873815Y-163802336D01*
X96952891Y-163793427D01*
X96952892Y-163793426D01*
X96952898Y-163793426D01*
X97232182Y-163729682D01*
X97502572Y-163635068D01*
X97760669Y-163510775D01*
X98003227Y-163358366D01*
X98227195Y-163179757D01*
X98429757Y-162977195D01*
X98608366Y-162753227D01*
X98760775Y-162510669D01*
X98885068Y-162252572D01*
X98979682Y-161982182D01*
X99043426Y-161702898D01*
X99075500Y-161418233D01*
X99075500Y-161131767D01*
X99043426Y-160847102D01*
X98979682Y-160567818D01*
X98885068Y-160297428D01*
X98760775Y-160039331D01*
X98608366Y-159796773D01*
X98429757Y-159572805D01*
X98227195Y-159370243D01*
X98003227Y-159191634D01*
X97760669Y-159039225D01*
X97760666Y-159039223D01*
X97502579Y-158914935D01*
X97502565Y-158914929D01*
X97232193Y-158820321D01*
X97232181Y-158820317D01*
X96952891Y-158756572D01*
X96952892Y-158756572D01*
X96668237Y-158724500D01*
X96668233Y-158724500D01*
X96381767Y-158724500D01*
X96381762Y-158724500D01*
X96097108Y-158756572D01*
X95817818Y-158820317D01*
X95817806Y-158820321D01*
X95547434Y-158914929D01*
X95547420Y-158914935D01*
X95289333Y-159039223D01*
X95046774Y-159191633D01*
X94822805Y-159370242D01*
X94620242Y-159572805D01*
X94441633Y-159796774D01*
X94289223Y-160039333D01*
X94164935Y-160297420D01*
X94164929Y-160297434D01*
X94070321Y-160567806D01*
X94070317Y-160567818D01*
X94006572Y-160847108D01*
X93974500Y-161131762D01*
X87907752Y-161131762D01*
X87967878Y-155598653D01*
X91650900Y-155598653D01*
X91650900Y-155853346D01*
X91690743Y-156104906D01*
X91769449Y-156347139D01*
X91885077Y-156574069D01*
X92034783Y-156780121D01*
X92214879Y-156960217D01*
X92420931Y-157109923D01*
X92528147Y-157164552D01*
X92647860Y-157225550D01*
X92647862Y-157225550D01*
X92647865Y-157225552D01*
X92890094Y-157304257D01*
X93141653Y-157344100D01*
X93141654Y-157344100D01*
X93396346Y-157344100D01*
X93396347Y-157344100D01*
X93647906Y-157304257D01*
X93890135Y-157225552D01*
X94117069Y-157109923D01*
X94323121Y-156960217D01*
X94503217Y-156780121D01*
X94652923Y-156574069D01*
X94768552Y-156347135D01*
X94847257Y-156104906D01*
X94887100Y-155853347D01*
X94887100Y-155598653D01*
X94847257Y-155347094D01*
X94768552Y-155104865D01*
X94768550Y-155104862D01*
X94768550Y-155104860D01*
X94652922Y-154877930D01*
X94503217Y-154671879D01*
X94323121Y-154491783D01*
X94117069Y-154342077D01*
X93890139Y-154226449D01*
X93647906Y-154147743D01*
X93396347Y-154107900D01*
X93141653Y-154107900D01*
X93015873Y-154127821D01*
X92890093Y-154147743D01*
X92647860Y-154226449D01*
X92420930Y-154342077D01*
X92303370Y-154427489D01*
X92214879Y-154491783D01*
X92214877Y-154491785D01*
X92214876Y-154491785D01*
X92034785Y-154671876D01*
X92034785Y-154671877D01*
X92034783Y-154671879D01*
X91970489Y-154760370D01*
X91885077Y-154877930D01*
X91769449Y-155104860D01*
X91690743Y-155347093D01*
X91650900Y-155598653D01*
X87967878Y-155598653D01*
X88003759Y-152296653D01*
X105112900Y-152296653D01*
X105112900Y-152551346D01*
X105152743Y-152802906D01*
X105231449Y-153045139D01*
X105347077Y-153272069D01*
X105496783Y-153478121D01*
X105676879Y-153658217D01*
X105882931Y-153807923D01*
X105990147Y-153862552D01*
X106109860Y-153923550D01*
X106109862Y-153923550D01*
X106109865Y-153923552D01*
X106213020Y-153957069D01*
X106270695Y-153996507D01*
X106297893Y-154060866D01*
X106285978Y-154129712D01*
X106238734Y-154181188D01*
X106213020Y-154192931D01*
X106109860Y-154226449D01*
X105882930Y-154342077D01*
X105765370Y-154427489D01*
X105676879Y-154491783D01*
X105676877Y-154491785D01*
X105676876Y-154491785D01*
X105496785Y-154671876D01*
X105496785Y-154671877D01*
X105496783Y-154671879D01*
X105432489Y-154760370D01*
X105347077Y-154877930D01*
X105231449Y-155104860D01*
X105152743Y-155347093D01*
X105112900Y-155598653D01*
X105112900Y-155853346D01*
X105152743Y-156104906D01*
X105231449Y-156347139D01*
X105347077Y-156574069D01*
X105496783Y-156780121D01*
X105676879Y-156960217D01*
X105882931Y-157109923D01*
X105990147Y-157164552D01*
X106109860Y-157225550D01*
X106109862Y-157225550D01*
X106109865Y-157225552D01*
X106352094Y-157304257D01*
X106603653Y-157344100D01*
X106603654Y-157344100D01*
X106858346Y-157344100D01*
X106858347Y-157344100D01*
X107109906Y-157304257D01*
X107352135Y-157225552D01*
X107579069Y-157109923D01*
X107785121Y-156960217D01*
X107965217Y-156780121D01*
X108114923Y-156574069D01*
X108230552Y-156347135D01*
X108309257Y-156104906D01*
X108349100Y-155853347D01*
X108349100Y-155598653D01*
X108309257Y-155347094D01*
X108230552Y-155104865D01*
X108230550Y-155104862D01*
X108230550Y-155104860D01*
X108114922Y-154877930D01*
X107965217Y-154671879D01*
X107785121Y-154491783D01*
X107579069Y-154342077D01*
X107352135Y-154226448D01*
X107248979Y-154192930D01*
X107191304Y-154153493D01*
X107164106Y-154089135D01*
X107176021Y-154020288D01*
X107223265Y-153968813D01*
X107248980Y-153957069D01*
X107352135Y-153923552D01*
X107579069Y-153807923D01*
X107785121Y-153658217D01*
X107965217Y-153478121D01*
X108114923Y-153272069D01*
X108230552Y-153045135D01*
X108309257Y-152802906D01*
X108349100Y-152551347D01*
X108349100Y-152296653D01*
X108309257Y-152045094D01*
X108230552Y-151802865D01*
X108230550Y-151802862D01*
X108230550Y-151802860D01*
X108114922Y-151575930D01*
X107965217Y-151369879D01*
X107785121Y-151189783D01*
X107579069Y-151040077D01*
X107352139Y-150924449D01*
X107109906Y-150845743D01*
X106858347Y-150805900D01*
X106603653Y-150805900D01*
X106477873Y-150825821D01*
X106352093Y-150845743D01*
X106109860Y-150924449D01*
X105882930Y-151040077D01*
X105765370Y-151125489D01*
X105676879Y-151189783D01*
X105676877Y-151189785D01*
X105676876Y-151189785D01*
X105496785Y-151369876D01*
X105496785Y-151369877D01*
X105496783Y-151369879D01*
X105432489Y-151458370D01*
X105347077Y-151575930D01*
X105231449Y-151802860D01*
X105152743Y-152045093D01*
X105112900Y-152296653D01*
X88003759Y-152296653D01*
X88032254Y-149674389D01*
X88052666Y-149607570D01*
X88105964Y-149562392D01*
X88157592Y-149551746D01*
X110852296Y-149798360D01*
G37*
%TD.AperFunction*%
%TD*%
M02*
