M48
; DRILL file KiCad 10.0.1 date 2026-06-19T00:36:41
; FORMAT={-:-/ absolute / metric / decimal}
; #@! TF.CreationDate,2026-06-19T00:36:41+09:00
; #@! TF.GenerationSoftware,Kicad,Pcbnew,10.0.1
; #@! TF.FileFunction,Plated,1,4,PTH
FMAT,2
METRIC
; #@! TA.AperFunction,Plated,PTH,ComponentDrill
T1C0.600
; #@! TA.AperFunction,Plated,PTH,ComponentDrill
T2C0.700
; #@! TA.AperFunction,Plated,PTH,ComponentDrill
T3C0.800
; #@! TA.AperFunction,Plated,PTH,ComponentDrill
T4C0.900
; #@! TA.AperFunction,Plated,PTH,ComponentDrill
T5C1.000
; #@! TA.AperFunction,Plated,PTH,ComponentDrill
T6C1.200
; #@! TA.AperFunction,Plated,PTH,ComponentDrill
T7C1.397
; #@! TA.AperFunction,Plated,PTH,ComponentDrill
T8C1.651
; #@! TA.AperFunction,Plated,PTH,ComponentDrill
T9C1.727
; #@! TA.AperFunction,Plated,PTH,ComponentDrill
T10C1.900
; #@! TA.AperFunction,Plated,PTH,ComponentDrill
T11C2.700
%
G90
G05
T2
X110.0Y-50.0
X110.0Y-125.0
T3
X52.5Y-42.0
X52.5Y-67.0
X52.5Y-92.0
X52.5Y-117.0
X52.5Y-142.0
X57.5Y-42.0
X57.5Y-67.0
X57.5Y-92.0
X57.5Y-117.0
X57.5Y-142.0
X81.225Y-166.05
X86.225Y-166.05
X100.0Y-25.0
X104.0Y-146.0
X107.5Y-97.5
X110.16Y-25.0
X112.5Y-97.5
X113.15Y-165.975
X114.16Y-146.0
X118.15Y-165.975
T4
X88.0Y-146.0
X90.0Y-25.0
X90.54Y-146.0
X92.54Y-25.0
T5
X52.5Y-25.0
X52.5Y-50.0
X52.5Y-75.0
X52.5Y-100.0
X52.5Y-125.0
X57.5Y-25.0
X57.5Y-50.0
X57.5Y-75.0
X57.5Y-100.0
X57.5Y-125.0
X107.5Y-72.5
X112.5Y-72.5
T6
X68.3Y-155.0
X75.8Y-155.0
X124.325Y-155.0
X131.825Y-155.0
T7
X120.0Y-25.0
X120.0Y-50.0
X120.0Y-75.0
X120.0Y-100.0
X120.0Y-125.0
X144.13Y-25.0
X144.13Y-50.0
X144.13Y-75.0
X144.13Y-100.0
X144.13Y-125.0
T8
X100.0Y-35.0
X100.0Y-60.0
X100.0Y-85.0
X100.0Y-110.0
X100.0Y-135.0
X120.066Y-35.0
X120.066Y-60.0
X120.066Y-85.0
X120.066Y-110.0
X120.066Y-135.0
T9
X68.269Y-33.349
X68.269Y-36.651
X68.269Y-58.349
X68.269Y-61.651
X68.269Y-83.349
X68.269Y-86.651
X68.269Y-108.349
X68.269Y-111.651
X68.269Y-133.349
X68.269Y-136.651
X81.731Y-33.349
X81.731Y-36.651
X81.731Y-58.349
X81.731Y-61.651
X81.731Y-83.349
X81.731Y-86.651
X81.731Y-108.349
X81.731Y-111.651
X81.731Y-133.349
X81.731Y-136.651
X93.269Y-152.424
X93.269Y-155.726
X106.731Y-152.424
X106.731Y-155.726
T10
X52.5Y-35.0
X52.5Y-60.0
X52.5Y-85.0
X52.5Y-110.0
X52.5Y-135.0
X57.5Y-35.0
X57.5Y-60.0
X57.5Y-85.0
X57.5Y-110.0
X57.5Y-135.0
X130.0Y-35.0
X130.0Y-60.0
X130.0Y-85.0
X130.0Y-110.0
X130.0Y-135.0
X135.0Y-35.0
X135.0Y-60.0
X135.0Y-85.0
X135.0Y-110.0
X135.0Y-135.0
T11
X96.525Y-161.275
X103.725Y-161.275
T1
G00X93.375Y-167.825
M15
G01X93.375Y-166.725
M16
G05
G00X106.875Y-167.825
M15
G01X106.875Y-166.725
M16
G05
M30
