%TF.GenerationSoftware,KiCad,Pcbnew,10.0.1*%
%TF.CreationDate,2026-06-19T00:36:28+09:00*%
%TF.ProjectId,robot_arm_power_distribution_board,726f626f-745f-4617-926d-5f706f776572,rev?*%
%TF.SameCoordinates,Original*%
%TF.FileFunction,Soldermask,Top*%
%TF.FilePolarity,Negative*%
%FSLAX46Y46*%
G04 Gerber Fmt 4.6, Leading zero omitted, Abs format (unit mm)*
G04 Created by KiCad (PCBNEW 10.0.1) date 2026-06-19 00:36:28*
%MOMM*%
%LPD*%
G01*
G04 APERTURE LIST*
G04 Aperture macros list*
%AMRoundRect*
0 Rectangle with rounded corners*
0 $1 Rounding radius*
0 $2 $3 $4 $5 $6 $7 $8 $9 X,Y pos of 4 corners*
0 Add a 4 corners polygon primitive as box body*
4,1,4,$2,$3,$4,$5,$6,$7,$8,$9,$2,$3,0*
0 Add four circle primitives for the rounded corners*
1,1,$1+$1,$2,$3*
1,1,$1+$1,$4,$5*
1,1,$1+$1,$6,$7*
1,1,$1+$1,$8,$9*
0 Add four rect primitives between the rounded corners*
20,1,$1+$1,$2,$3,$4,$5,0*
20,1,$1+$1,$4,$5,$6,$7,0*
20,1,$1+$1,$6,$7,$8,$9,0*
20,1,$1+$1,$8,$9,$2,$3,0*%
G04 Aperture macros list end*
%ADD10R,2.159000X2.159000*%
%ADD11C,2.159000*%
%ADD12C,1.905000*%
%ADD13C,1.600000*%
%ADD14RoundRect,0.102000X-1.425000X-1.425000X1.425000X-1.425000X1.425000X1.425000X-1.425000X1.425000X0*%
%ADD15C,3.054000*%
%ADD16C,2.235200*%
%ADD17RoundRect,0.250000X-0.750000X-0.750000X0.750000X-0.750000X0.750000X0.750000X-0.750000X0.750000X0*%
%ADD18C,2.000000*%
%ADD19R,1.500000X1.500000*%
%ADD20R,1.800000X1.800000*%
%ADD21C,1.800000*%
%ADD22RoundRect,0.250001X-0.949999X-0.949999X0.949999X-0.949999X0.949999X0.949999X-0.949999X0.949999X0*%
%ADD23C,2.400000*%
%ADD24R,0.900000X2.000000*%
%ADD25RoundRect,1.025000X1.025000X1.025000X-1.025000X1.025000X-1.025000X-1.025000X1.025000X-1.025000X0*%
%ADD26C,4.100000*%
G04 APERTURE END LIST*
D10*
%TO.C,D5*%
X100000000Y-85000000D03*
D11*
X120066000Y-85000000D03*
%TD*%
D12*
%TO.C,F7*%
X120000000Y-125000000D03*
X144130000Y-125000000D03*
%TD*%
D10*
%TO.C,D6*%
X100000000Y-60000000D03*
D11*
X120066000Y-60000000D03*
%TD*%
D13*
%TO.C,C17*%
X52500000Y-67000000D03*
X57500000Y-67000000D03*
%TD*%
D12*
%TO.C,F10*%
X120000000Y-50000000D03*
X144130000Y-50000000D03*
%TD*%
D14*
%TO.C,J5*%
X52500000Y-60000000D03*
D15*
X57500000Y-60000000D03*
%TD*%
D13*
%TO.C,C7*%
X52500000Y-117000000D03*
X57500000Y-117000000D03*
%TD*%
%TO.C,C9*%
X107500000Y-97500000D03*
X112500000Y-97500000D03*
%TD*%
D14*
%TO.C,J3*%
X52500000Y-110000000D03*
D15*
X57500000Y-110000000D03*
%TD*%
D16*
%TO.C,F6*%
X68269000Y-33349000D03*
X68269000Y-36651000D03*
X81731000Y-33349000D03*
X81731000Y-36651000D03*
%TD*%
D17*
%TO.C,C20*%
X52500000Y-50000000D03*
D18*
X57500000Y-50000000D03*
%TD*%
D16*
%TO.C,F3*%
X68269000Y-108349000D03*
X68269000Y-111651000D03*
X81731000Y-108349000D03*
X81731000Y-111651000D03*
%TD*%
%TO.C,F1*%
X93269000Y-152424000D03*
X93269000Y-155726000D03*
X106731000Y-152424000D03*
X106731000Y-155726000D03*
%TD*%
D17*
%TO.C,C24*%
X52500000Y-25000000D03*
D18*
X57500000Y-25000000D03*
%TD*%
D16*
%TO.C,F4*%
X68269000Y-83349000D03*
X68269000Y-86651000D03*
X81731000Y-83349000D03*
X81731000Y-86651000D03*
%TD*%
D14*
%TO.C,J6*%
X52500000Y-35000000D03*
D15*
X57500000Y-35000000D03*
%TD*%
D13*
%TO.C,R2*%
X100000000Y-25000000D03*
X110160000Y-25000000D03*
%TD*%
D12*
%TO.C,F11*%
X120000000Y-25000000D03*
X144130000Y-25000000D03*
%TD*%
D19*
%TO.C,TP2*%
X110000000Y-125000000D03*
%TD*%
D12*
%TO.C,F9*%
X120000000Y-75000000D03*
X144130000Y-75000000D03*
%TD*%
D14*
%TO.C,J4*%
X52500000Y-85000000D03*
D15*
X57500000Y-85000000D03*
%TD*%
D16*
%TO.C,F5*%
X68269000Y-58349000D03*
X68269000Y-61651000D03*
X81731000Y-58349000D03*
X81731000Y-61651000D03*
%TD*%
D17*
%TO.C,C10*%
X107500000Y-72500000D03*
D18*
X112500000Y-72500000D03*
%TD*%
D14*
%TO.C,J2*%
X52500000Y-135000000D03*
D15*
X57500000Y-135000000D03*
%TD*%
D14*
%TO.C,J11*%
X130000000Y-35000000D03*
D15*
X135000000Y-35000000D03*
%TD*%
D13*
%TO.C,C4*%
X113150000Y-165975000D03*
X118150000Y-165975000D03*
%TD*%
D17*
%TO.C,C16*%
X52500000Y-75000000D03*
D18*
X57500000Y-75000000D03*
%TD*%
D17*
%TO.C,C5*%
X52500000Y-125000000D03*
D18*
X57500000Y-125000000D03*
%TD*%
D20*
%TO.C,D1*%
X88000000Y-146000000D03*
D21*
X90540000Y-146000000D03*
%TD*%
D14*
%TO.C,J10*%
X130000000Y-60000000D03*
D15*
X135000000Y-60000000D03*
%TD*%
D19*
%TO.C,TP1*%
X110000000Y-50000000D03*
%TD*%
D14*
%TO.C,J8*%
X130000000Y-110000000D03*
D15*
X135000000Y-110000000D03*
%TD*%
D14*
%TO.C,J9*%
X130000000Y-85000000D03*
D15*
X135000000Y-85000000D03*
%TD*%
D22*
%TO.C,C1*%
X68300000Y-155000000D03*
D23*
X75800000Y-155000000D03*
%TD*%
D14*
%TO.C,J7*%
X130000000Y-135000000D03*
D15*
X135000000Y-135000000D03*
%TD*%
D10*
%TO.C,D7*%
X100000000Y-35000000D03*
D11*
X120066000Y-35000000D03*
%TD*%
D20*
%TO.C,D2*%
X90000000Y-25000000D03*
D21*
X92540000Y-25000000D03*
%TD*%
D13*
%TO.C,C3*%
X81225000Y-166050000D03*
X86225000Y-166050000D03*
%TD*%
D16*
%TO.C,F2*%
X68269000Y-133349000D03*
X68269000Y-136651000D03*
X81731000Y-133349000D03*
X81731000Y-136651000D03*
%TD*%
D12*
%TO.C,F8*%
X120000000Y-100000000D03*
X144130000Y-100000000D03*
%TD*%
D13*
%TO.C,C6*%
X52500000Y-142000000D03*
X57500000Y-142000000D03*
%TD*%
%TO.C,C21*%
X52500000Y-42000000D03*
X57500000Y-42000000D03*
%TD*%
%TO.C,C14*%
X52500000Y-92000000D03*
X57500000Y-92000000D03*
%TD*%
D10*
%TO.C,D4*%
X100000000Y-110000000D03*
D11*
X120066000Y-110000000D03*
%TD*%
D13*
%TO.C,R1*%
X104000000Y-146000000D03*
X114160000Y-146000000D03*
%TD*%
D24*
%TO.C,J1*%
X106875000Y-167275000D03*
X93375000Y-167275000D03*
D25*
X103725000Y-161275000D03*
D26*
X96525000Y-161275000D03*
%TD*%
D10*
%TO.C,D3*%
X100000000Y-135000000D03*
D11*
X120066000Y-135000000D03*
%TD*%
D22*
%TO.C,C2*%
X124325000Y-155000000D03*
D23*
X131825000Y-155000000D03*
%TD*%
D17*
%TO.C,C8*%
X52500000Y-100000000D03*
D18*
X57500000Y-100000000D03*
%TD*%
M02*
