%TF.GenerationSoftware,KiCad,Pcbnew,10.0.1*%
%TF.CreationDate,2026-06-19T00:36:27+09:00*%
%TF.ProjectId,robot_arm_power_distribution_board,726f626f-745f-4617-926d-5f706f776572,rev?*%
%TF.SameCoordinates,Original*%
%TF.FileFunction,Legend,Top*%
%TF.FilePolarity,Positive*%
%FSLAX46Y46*%
G04 Gerber Fmt 4.6, Leading zero omitted, Abs format (unit mm)*
G04 Created by KiCad (PCBNEW 10.0.1) date 2026-06-19 00:36:27*
%MOMM*%
%LPD*%
G01*
G04 APERTURE LIST*
%ADD10C,0.150000*%
%ADD11C,0.152400*%
%ADD12C,0.120000*%
%ADD13C,0.127000*%
%ADD14C,0.508000*%
G04 APERTURE END LIST*
D10*
X109294905Y-85454819D02*
X109294905Y-84454819D01*
X109294905Y-84454819D02*
X109533000Y-84454819D01*
X109533000Y-84454819D02*
X109675857Y-84502438D01*
X109675857Y-84502438D02*
X109771095Y-84597676D01*
X109771095Y-84597676D02*
X109818714Y-84692914D01*
X109818714Y-84692914D02*
X109866333Y-84883390D01*
X109866333Y-84883390D02*
X109866333Y-85026247D01*
X109866333Y-85026247D02*
X109818714Y-85216723D01*
X109818714Y-85216723D02*
X109771095Y-85311961D01*
X109771095Y-85311961D02*
X109675857Y-85407200D01*
X109675857Y-85407200D02*
X109533000Y-85454819D01*
X109533000Y-85454819D02*
X109294905Y-85454819D01*
X110771095Y-84454819D02*
X110294905Y-84454819D01*
X110294905Y-84454819D02*
X110247286Y-84931009D01*
X110247286Y-84931009D02*
X110294905Y-84883390D01*
X110294905Y-84883390D02*
X110390143Y-84835771D01*
X110390143Y-84835771D02*
X110628238Y-84835771D01*
X110628238Y-84835771D02*
X110723476Y-84883390D01*
X110723476Y-84883390D02*
X110771095Y-84931009D01*
X110771095Y-84931009D02*
X110818714Y-85026247D01*
X110818714Y-85026247D02*
X110818714Y-85264342D01*
X110818714Y-85264342D02*
X110771095Y-85359580D01*
X110771095Y-85359580D02*
X110723476Y-85407200D01*
X110723476Y-85407200D02*
X110628238Y-85454819D01*
X110628238Y-85454819D02*
X110390143Y-85454819D01*
X110390143Y-85454819D02*
X110294905Y-85407200D01*
X110294905Y-85407200D02*
X110247286Y-85359580D01*
X131731666Y-124931009D02*
X131398333Y-124931009D01*
X131398333Y-125454819D02*
X131398333Y-124454819D01*
X131398333Y-124454819D02*
X131874523Y-124454819D01*
X132160238Y-124454819D02*
X132826904Y-124454819D01*
X132826904Y-124454819D02*
X132398333Y-125454819D01*
X109294905Y-60454819D02*
X109294905Y-59454819D01*
X109294905Y-59454819D02*
X109533000Y-59454819D01*
X109533000Y-59454819D02*
X109675857Y-59502438D01*
X109675857Y-59502438D02*
X109771095Y-59597676D01*
X109771095Y-59597676D02*
X109818714Y-59692914D01*
X109818714Y-59692914D02*
X109866333Y-59883390D01*
X109866333Y-59883390D02*
X109866333Y-60026247D01*
X109866333Y-60026247D02*
X109818714Y-60216723D01*
X109818714Y-60216723D02*
X109771095Y-60311961D01*
X109771095Y-60311961D02*
X109675857Y-60407200D01*
X109675857Y-60407200D02*
X109533000Y-60454819D01*
X109533000Y-60454819D02*
X109294905Y-60454819D01*
X110723476Y-59454819D02*
X110533000Y-59454819D01*
X110533000Y-59454819D02*
X110437762Y-59502438D01*
X110437762Y-59502438D02*
X110390143Y-59550057D01*
X110390143Y-59550057D02*
X110294905Y-59692914D01*
X110294905Y-59692914D02*
X110247286Y-59883390D01*
X110247286Y-59883390D02*
X110247286Y-60264342D01*
X110247286Y-60264342D02*
X110294905Y-60359580D01*
X110294905Y-60359580D02*
X110342524Y-60407200D01*
X110342524Y-60407200D02*
X110437762Y-60454819D01*
X110437762Y-60454819D02*
X110628238Y-60454819D01*
X110628238Y-60454819D02*
X110723476Y-60407200D01*
X110723476Y-60407200D02*
X110771095Y-60359580D01*
X110771095Y-60359580D02*
X110818714Y-60264342D01*
X110818714Y-60264342D02*
X110818714Y-60026247D01*
X110818714Y-60026247D02*
X110771095Y-59931009D01*
X110771095Y-59931009D02*
X110723476Y-59883390D01*
X110723476Y-59883390D02*
X110628238Y-59835771D01*
X110628238Y-59835771D02*
X110437762Y-59835771D01*
X110437762Y-59835771D02*
X110342524Y-59883390D01*
X110342524Y-59883390D02*
X110294905Y-59931009D01*
X110294905Y-59931009D02*
X110247286Y-60026247D01*
X54357142Y-64859580D02*
X54309523Y-64907200D01*
X54309523Y-64907200D02*
X54166666Y-64954819D01*
X54166666Y-64954819D02*
X54071428Y-64954819D01*
X54071428Y-64954819D02*
X53928571Y-64907200D01*
X53928571Y-64907200D02*
X53833333Y-64811961D01*
X53833333Y-64811961D02*
X53785714Y-64716723D01*
X53785714Y-64716723D02*
X53738095Y-64526247D01*
X53738095Y-64526247D02*
X53738095Y-64383390D01*
X53738095Y-64383390D02*
X53785714Y-64192914D01*
X53785714Y-64192914D02*
X53833333Y-64097676D01*
X53833333Y-64097676D02*
X53928571Y-64002438D01*
X53928571Y-64002438D02*
X54071428Y-63954819D01*
X54071428Y-63954819D02*
X54166666Y-63954819D01*
X54166666Y-63954819D02*
X54309523Y-64002438D01*
X54309523Y-64002438D02*
X54357142Y-64050057D01*
X55309523Y-64954819D02*
X54738095Y-64954819D01*
X55023809Y-64954819D02*
X55023809Y-63954819D01*
X55023809Y-63954819D02*
X54928571Y-64097676D01*
X54928571Y-64097676D02*
X54833333Y-64192914D01*
X54833333Y-64192914D02*
X54738095Y-64240533D01*
X55642857Y-63954819D02*
X56309523Y-63954819D01*
X56309523Y-63954819D02*
X55880952Y-64954819D01*
X131255476Y-49931009D02*
X130922143Y-49931009D01*
X130922143Y-50454819D02*
X130922143Y-49454819D01*
X130922143Y-49454819D02*
X131398333Y-49454819D01*
X132303095Y-50454819D02*
X131731667Y-50454819D01*
X132017381Y-50454819D02*
X132017381Y-49454819D01*
X132017381Y-49454819D02*
X131922143Y-49597676D01*
X131922143Y-49597676D02*
X131826905Y-49692914D01*
X131826905Y-49692914D02*
X131731667Y-49740533D01*
X132922143Y-49454819D02*
X133017381Y-49454819D01*
X133017381Y-49454819D02*
X133112619Y-49502438D01*
X133112619Y-49502438D02*
X133160238Y-49550057D01*
X133160238Y-49550057D02*
X133207857Y-49645295D01*
X133207857Y-49645295D02*
X133255476Y-49835771D01*
X133255476Y-49835771D02*
X133255476Y-50073866D01*
X133255476Y-50073866D02*
X133207857Y-50264342D01*
X133207857Y-50264342D02*
X133160238Y-50359580D01*
X133160238Y-50359580D02*
X133112619Y-50407200D01*
X133112619Y-50407200D02*
X133017381Y-50454819D01*
X133017381Y-50454819D02*
X132922143Y-50454819D01*
X132922143Y-50454819D02*
X132826905Y-50407200D01*
X132826905Y-50407200D02*
X132779286Y-50359580D01*
X132779286Y-50359580D02*
X132731667Y-50264342D01*
X132731667Y-50264342D02*
X132684048Y-50073866D01*
X132684048Y-50073866D02*
X132684048Y-49835771D01*
X132684048Y-49835771D02*
X132731667Y-49645295D01*
X132731667Y-49645295D02*
X132779286Y-49550057D01*
X132779286Y-49550057D02*
X132826905Y-49502438D01*
X132826905Y-49502438D02*
X132922143Y-49454819D01*
X52591666Y-55779819D02*
X52591666Y-56494104D01*
X52591666Y-56494104D02*
X52544047Y-56636961D01*
X52544047Y-56636961D02*
X52448809Y-56732200D01*
X52448809Y-56732200D02*
X52305952Y-56779819D01*
X52305952Y-56779819D02*
X52210714Y-56779819D01*
X53544047Y-55779819D02*
X53067857Y-55779819D01*
X53067857Y-55779819D02*
X53020238Y-56256009D01*
X53020238Y-56256009D02*
X53067857Y-56208390D01*
X53067857Y-56208390D02*
X53163095Y-56160771D01*
X53163095Y-56160771D02*
X53401190Y-56160771D01*
X53401190Y-56160771D02*
X53496428Y-56208390D01*
X53496428Y-56208390D02*
X53544047Y-56256009D01*
X53544047Y-56256009D02*
X53591666Y-56351247D01*
X53591666Y-56351247D02*
X53591666Y-56589342D01*
X53591666Y-56589342D02*
X53544047Y-56684580D01*
X53544047Y-56684580D02*
X53496428Y-56732200D01*
X53496428Y-56732200D02*
X53401190Y-56779819D01*
X53401190Y-56779819D02*
X53163095Y-56779819D01*
X53163095Y-56779819D02*
X53067857Y-56732200D01*
X53067857Y-56732200D02*
X53020238Y-56684580D01*
X54833333Y-114859580D02*
X54785714Y-114907200D01*
X54785714Y-114907200D02*
X54642857Y-114954819D01*
X54642857Y-114954819D02*
X54547619Y-114954819D01*
X54547619Y-114954819D02*
X54404762Y-114907200D01*
X54404762Y-114907200D02*
X54309524Y-114811961D01*
X54309524Y-114811961D02*
X54261905Y-114716723D01*
X54261905Y-114716723D02*
X54214286Y-114526247D01*
X54214286Y-114526247D02*
X54214286Y-114383390D01*
X54214286Y-114383390D02*
X54261905Y-114192914D01*
X54261905Y-114192914D02*
X54309524Y-114097676D01*
X54309524Y-114097676D02*
X54404762Y-114002438D01*
X54404762Y-114002438D02*
X54547619Y-113954819D01*
X54547619Y-113954819D02*
X54642857Y-113954819D01*
X54642857Y-113954819D02*
X54785714Y-114002438D01*
X54785714Y-114002438D02*
X54833333Y-114050057D01*
X55166667Y-113954819D02*
X55833333Y-113954819D01*
X55833333Y-113954819D02*
X55404762Y-114954819D01*
X109833333Y-95359580D02*
X109785714Y-95407200D01*
X109785714Y-95407200D02*
X109642857Y-95454819D01*
X109642857Y-95454819D02*
X109547619Y-95454819D01*
X109547619Y-95454819D02*
X109404762Y-95407200D01*
X109404762Y-95407200D02*
X109309524Y-95311961D01*
X109309524Y-95311961D02*
X109261905Y-95216723D01*
X109261905Y-95216723D02*
X109214286Y-95026247D01*
X109214286Y-95026247D02*
X109214286Y-94883390D01*
X109214286Y-94883390D02*
X109261905Y-94692914D01*
X109261905Y-94692914D02*
X109309524Y-94597676D01*
X109309524Y-94597676D02*
X109404762Y-94502438D01*
X109404762Y-94502438D02*
X109547619Y-94454819D01*
X109547619Y-94454819D02*
X109642857Y-94454819D01*
X109642857Y-94454819D02*
X109785714Y-94502438D01*
X109785714Y-94502438D02*
X109833333Y-94550057D01*
X110309524Y-95454819D02*
X110500000Y-95454819D01*
X110500000Y-95454819D02*
X110595238Y-95407200D01*
X110595238Y-95407200D02*
X110642857Y-95359580D01*
X110642857Y-95359580D02*
X110738095Y-95216723D01*
X110738095Y-95216723D02*
X110785714Y-95026247D01*
X110785714Y-95026247D02*
X110785714Y-94645295D01*
X110785714Y-94645295D02*
X110738095Y-94550057D01*
X110738095Y-94550057D02*
X110690476Y-94502438D01*
X110690476Y-94502438D02*
X110595238Y-94454819D01*
X110595238Y-94454819D02*
X110404762Y-94454819D01*
X110404762Y-94454819D02*
X110309524Y-94502438D01*
X110309524Y-94502438D02*
X110261905Y-94550057D01*
X110261905Y-94550057D02*
X110214286Y-94645295D01*
X110214286Y-94645295D02*
X110214286Y-94883390D01*
X110214286Y-94883390D02*
X110261905Y-94978628D01*
X110261905Y-94978628D02*
X110309524Y-95026247D01*
X110309524Y-95026247D02*
X110404762Y-95073866D01*
X110404762Y-95073866D02*
X110595238Y-95073866D01*
X110595238Y-95073866D02*
X110690476Y-95026247D01*
X110690476Y-95026247D02*
X110738095Y-94978628D01*
X110738095Y-94978628D02*
X110785714Y-94883390D01*
X52591666Y-105779819D02*
X52591666Y-106494104D01*
X52591666Y-106494104D02*
X52544047Y-106636961D01*
X52544047Y-106636961D02*
X52448809Y-106732200D01*
X52448809Y-106732200D02*
X52305952Y-106779819D01*
X52305952Y-106779819D02*
X52210714Y-106779819D01*
X52972619Y-105779819D02*
X53591666Y-105779819D01*
X53591666Y-105779819D02*
X53258333Y-106160771D01*
X53258333Y-106160771D02*
X53401190Y-106160771D01*
X53401190Y-106160771D02*
X53496428Y-106208390D01*
X53496428Y-106208390D02*
X53544047Y-106256009D01*
X53544047Y-106256009D02*
X53591666Y-106351247D01*
X53591666Y-106351247D02*
X53591666Y-106589342D01*
X53591666Y-106589342D02*
X53544047Y-106684580D01*
X53544047Y-106684580D02*
X53496428Y-106732200D01*
X53496428Y-106732200D02*
X53401190Y-106779819D01*
X53401190Y-106779819D02*
X53115476Y-106779819D01*
X53115476Y-106779819D02*
X53020238Y-106732200D01*
X53020238Y-106732200D02*
X52972619Y-106684580D01*
X81397666Y-36582009D02*
X81064333Y-36582009D01*
X81064333Y-37105819D02*
X81064333Y-36105819D01*
X81064333Y-36105819D02*
X81540523Y-36105819D01*
X82350047Y-36105819D02*
X82159571Y-36105819D01*
X82159571Y-36105819D02*
X82064333Y-36153438D01*
X82064333Y-36153438D02*
X82016714Y-36201057D01*
X82016714Y-36201057D02*
X81921476Y-36343914D01*
X81921476Y-36343914D02*
X81873857Y-36534390D01*
X81873857Y-36534390D02*
X81873857Y-36915342D01*
X81873857Y-36915342D02*
X81921476Y-37010580D01*
X81921476Y-37010580D02*
X81969095Y-37058200D01*
X81969095Y-37058200D02*
X82064333Y-37105819D01*
X82064333Y-37105819D02*
X82254809Y-37105819D01*
X82254809Y-37105819D02*
X82350047Y-37058200D01*
X82350047Y-37058200D02*
X82397666Y-37010580D01*
X82397666Y-37010580D02*
X82445285Y-36915342D01*
X82445285Y-36915342D02*
X82445285Y-36677247D01*
X82445285Y-36677247D02*
X82397666Y-36582009D01*
X82397666Y-36582009D02*
X82350047Y-36534390D01*
X82350047Y-36534390D02*
X82254809Y-36486771D01*
X82254809Y-36486771D02*
X82064333Y-36486771D01*
X82064333Y-36486771D02*
X81969095Y-36534390D01*
X81969095Y-36534390D02*
X81921476Y-36582009D01*
X81921476Y-36582009D02*
X81873857Y-36677247D01*
X54357142Y-44109580D02*
X54309523Y-44157200D01*
X54309523Y-44157200D02*
X54166666Y-44204819D01*
X54166666Y-44204819D02*
X54071428Y-44204819D01*
X54071428Y-44204819D02*
X53928571Y-44157200D01*
X53928571Y-44157200D02*
X53833333Y-44061961D01*
X53833333Y-44061961D02*
X53785714Y-43966723D01*
X53785714Y-43966723D02*
X53738095Y-43776247D01*
X53738095Y-43776247D02*
X53738095Y-43633390D01*
X53738095Y-43633390D02*
X53785714Y-43442914D01*
X53785714Y-43442914D02*
X53833333Y-43347676D01*
X53833333Y-43347676D02*
X53928571Y-43252438D01*
X53928571Y-43252438D02*
X54071428Y-43204819D01*
X54071428Y-43204819D02*
X54166666Y-43204819D01*
X54166666Y-43204819D02*
X54309523Y-43252438D01*
X54309523Y-43252438D02*
X54357142Y-43300057D01*
X54738095Y-43300057D02*
X54785714Y-43252438D01*
X54785714Y-43252438D02*
X54880952Y-43204819D01*
X54880952Y-43204819D02*
X55119047Y-43204819D01*
X55119047Y-43204819D02*
X55214285Y-43252438D01*
X55214285Y-43252438D02*
X55261904Y-43300057D01*
X55261904Y-43300057D02*
X55309523Y-43395295D01*
X55309523Y-43395295D02*
X55309523Y-43490533D01*
X55309523Y-43490533D02*
X55261904Y-43633390D01*
X55261904Y-43633390D02*
X54690476Y-44204819D01*
X54690476Y-44204819D02*
X55309523Y-44204819D01*
X55928571Y-43204819D02*
X56023809Y-43204819D01*
X56023809Y-43204819D02*
X56119047Y-43252438D01*
X56119047Y-43252438D02*
X56166666Y-43300057D01*
X56166666Y-43300057D02*
X56214285Y-43395295D01*
X56214285Y-43395295D02*
X56261904Y-43585771D01*
X56261904Y-43585771D02*
X56261904Y-43823866D01*
X56261904Y-43823866D02*
X56214285Y-44014342D01*
X56214285Y-44014342D02*
X56166666Y-44109580D01*
X56166666Y-44109580D02*
X56119047Y-44157200D01*
X56119047Y-44157200D02*
X56023809Y-44204819D01*
X56023809Y-44204819D02*
X55928571Y-44204819D01*
X55928571Y-44204819D02*
X55833333Y-44157200D01*
X55833333Y-44157200D02*
X55785714Y-44109580D01*
X55785714Y-44109580D02*
X55738095Y-44014342D01*
X55738095Y-44014342D02*
X55690476Y-43823866D01*
X55690476Y-43823866D02*
X55690476Y-43585771D01*
X55690476Y-43585771D02*
X55738095Y-43395295D01*
X55738095Y-43395295D02*
X55785714Y-43300057D01*
X55785714Y-43300057D02*
X55833333Y-43252438D01*
X55833333Y-43252438D02*
X55928571Y-43204819D01*
X81397666Y-111582009D02*
X81064333Y-111582009D01*
X81064333Y-112105819D02*
X81064333Y-111105819D01*
X81064333Y-111105819D02*
X81540523Y-111105819D01*
X81826238Y-111105819D02*
X82445285Y-111105819D01*
X82445285Y-111105819D02*
X82111952Y-111486771D01*
X82111952Y-111486771D02*
X82254809Y-111486771D01*
X82254809Y-111486771D02*
X82350047Y-111534390D01*
X82350047Y-111534390D02*
X82397666Y-111582009D01*
X82397666Y-111582009D02*
X82445285Y-111677247D01*
X82445285Y-111677247D02*
X82445285Y-111915342D01*
X82445285Y-111915342D02*
X82397666Y-112010580D01*
X82397666Y-112010580D02*
X82350047Y-112058200D01*
X82350047Y-112058200D02*
X82254809Y-112105819D01*
X82254809Y-112105819D02*
X81969095Y-112105819D01*
X81969095Y-112105819D02*
X81873857Y-112058200D01*
X81873857Y-112058200D02*
X81826238Y-112010580D01*
X100305066Y-154006009D02*
X99971733Y-154006009D01*
X99971733Y-154529819D02*
X99971733Y-153529819D01*
X99971733Y-153529819D02*
X100447923Y-153529819D01*
X101352685Y-154529819D02*
X100781257Y-154529819D01*
X101066971Y-154529819D02*
X101066971Y-153529819D01*
X101066971Y-153529819D02*
X100971733Y-153672676D01*
X100971733Y-153672676D02*
X100876495Y-153767914D01*
X100876495Y-153767914D02*
X100781257Y-153815533D01*
X54357142Y-19109580D02*
X54309523Y-19157200D01*
X54309523Y-19157200D02*
X54166666Y-19204819D01*
X54166666Y-19204819D02*
X54071428Y-19204819D01*
X54071428Y-19204819D02*
X53928571Y-19157200D01*
X53928571Y-19157200D02*
X53833333Y-19061961D01*
X53833333Y-19061961D02*
X53785714Y-18966723D01*
X53785714Y-18966723D02*
X53738095Y-18776247D01*
X53738095Y-18776247D02*
X53738095Y-18633390D01*
X53738095Y-18633390D02*
X53785714Y-18442914D01*
X53785714Y-18442914D02*
X53833333Y-18347676D01*
X53833333Y-18347676D02*
X53928571Y-18252438D01*
X53928571Y-18252438D02*
X54071428Y-18204819D01*
X54071428Y-18204819D02*
X54166666Y-18204819D01*
X54166666Y-18204819D02*
X54309523Y-18252438D01*
X54309523Y-18252438D02*
X54357142Y-18300057D01*
X54738095Y-18300057D02*
X54785714Y-18252438D01*
X54785714Y-18252438D02*
X54880952Y-18204819D01*
X54880952Y-18204819D02*
X55119047Y-18204819D01*
X55119047Y-18204819D02*
X55214285Y-18252438D01*
X55214285Y-18252438D02*
X55261904Y-18300057D01*
X55261904Y-18300057D02*
X55309523Y-18395295D01*
X55309523Y-18395295D02*
X55309523Y-18490533D01*
X55309523Y-18490533D02*
X55261904Y-18633390D01*
X55261904Y-18633390D02*
X54690476Y-19204819D01*
X54690476Y-19204819D02*
X55309523Y-19204819D01*
X56166666Y-18538152D02*
X56166666Y-19204819D01*
X55928571Y-18157200D02*
X55690476Y-18871485D01*
X55690476Y-18871485D02*
X56309523Y-18871485D01*
X81397666Y-86582009D02*
X81064333Y-86582009D01*
X81064333Y-87105819D02*
X81064333Y-86105819D01*
X81064333Y-86105819D02*
X81540523Y-86105819D01*
X82350047Y-86439152D02*
X82350047Y-87105819D01*
X82111952Y-86058200D02*
X81873857Y-86772485D01*
X81873857Y-86772485D02*
X82492904Y-86772485D01*
X52591666Y-30779819D02*
X52591666Y-31494104D01*
X52591666Y-31494104D02*
X52544047Y-31636961D01*
X52544047Y-31636961D02*
X52448809Y-31732200D01*
X52448809Y-31732200D02*
X52305952Y-31779819D01*
X52305952Y-31779819D02*
X52210714Y-31779819D01*
X53496428Y-30779819D02*
X53305952Y-30779819D01*
X53305952Y-30779819D02*
X53210714Y-30827438D01*
X53210714Y-30827438D02*
X53163095Y-30875057D01*
X53163095Y-30875057D02*
X53067857Y-31017914D01*
X53067857Y-31017914D02*
X53020238Y-31208390D01*
X53020238Y-31208390D02*
X53020238Y-31589342D01*
X53020238Y-31589342D02*
X53067857Y-31684580D01*
X53067857Y-31684580D02*
X53115476Y-31732200D01*
X53115476Y-31732200D02*
X53210714Y-31779819D01*
X53210714Y-31779819D02*
X53401190Y-31779819D01*
X53401190Y-31779819D02*
X53496428Y-31732200D01*
X53496428Y-31732200D02*
X53544047Y-31684580D01*
X53544047Y-31684580D02*
X53591666Y-31589342D01*
X53591666Y-31589342D02*
X53591666Y-31351247D01*
X53591666Y-31351247D02*
X53544047Y-31256009D01*
X53544047Y-31256009D02*
X53496428Y-31208390D01*
X53496428Y-31208390D02*
X53401190Y-31160771D01*
X53401190Y-31160771D02*
X53210714Y-31160771D01*
X53210714Y-31160771D02*
X53115476Y-31208390D01*
X53115476Y-31208390D02*
X53067857Y-31256009D01*
X53067857Y-31256009D02*
X53020238Y-31351247D01*
X104913333Y-23084819D02*
X104580000Y-22608628D01*
X104341905Y-23084819D02*
X104341905Y-22084819D01*
X104341905Y-22084819D02*
X104722857Y-22084819D01*
X104722857Y-22084819D02*
X104818095Y-22132438D01*
X104818095Y-22132438D02*
X104865714Y-22180057D01*
X104865714Y-22180057D02*
X104913333Y-22275295D01*
X104913333Y-22275295D02*
X104913333Y-22418152D01*
X104913333Y-22418152D02*
X104865714Y-22513390D01*
X104865714Y-22513390D02*
X104818095Y-22561009D01*
X104818095Y-22561009D02*
X104722857Y-22608628D01*
X104722857Y-22608628D02*
X104341905Y-22608628D01*
X105294286Y-22180057D02*
X105341905Y-22132438D01*
X105341905Y-22132438D02*
X105437143Y-22084819D01*
X105437143Y-22084819D02*
X105675238Y-22084819D01*
X105675238Y-22084819D02*
X105770476Y-22132438D01*
X105770476Y-22132438D02*
X105818095Y-22180057D01*
X105818095Y-22180057D02*
X105865714Y-22275295D01*
X105865714Y-22275295D02*
X105865714Y-22370533D01*
X105865714Y-22370533D02*
X105818095Y-22513390D01*
X105818095Y-22513390D02*
X105246667Y-23084819D01*
X105246667Y-23084819D02*
X105865714Y-23084819D01*
X131255476Y-24931009D02*
X130922143Y-24931009D01*
X130922143Y-25454819D02*
X130922143Y-24454819D01*
X130922143Y-24454819D02*
X131398333Y-24454819D01*
X132303095Y-25454819D02*
X131731667Y-25454819D01*
X132017381Y-25454819D02*
X132017381Y-24454819D01*
X132017381Y-24454819D02*
X131922143Y-24597676D01*
X131922143Y-24597676D02*
X131826905Y-24692914D01*
X131826905Y-24692914D02*
X131731667Y-24740533D01*
X133255476Y-25454819D02*
X132684048Y-25454819D01*
X132969762Y-25454819D02*
X132969762Y-24454819D01*
X132969762Y-24454819D02*
X132874524Y-24597676D01*
X132874524Y-24597676D02*
X132779286Y-24692914D01*
X132779286Y-24692914D02*
X132684048Y-24740533D01*
X108738095Y-122806819D02*
X109309523Y-122806819D01*
X109023809Y-123806819D02*
X109023809Y-122806819D01*
X109642857Y-123806819D02*
X109642857Y-122806819D01*
X109642857Y-122806819D02*
X110023809Y-122806819D01*
X110023809Y-122806819D02*
X110119047Y-122854438D01*
X110119047Y-122854438D02*
X110166666Y-122902057D01*
X110166666Y-122902057D02*
X110214285Y-122997295D01*
X110214285Y-122997295D02*
X110214285Y-123140152D01*
X110214285Y-123140152D02*
X110166666Y-123235390D01*
X110166666Y-123235390D02*
X110119047Y-123283009D01*
X110119047Y-123283009D02*
X110023809Y-123330628D01*
X110023809Y-123330628D02*
X109642857Y-123330628D01*
X110595238Y-122902057D02*
X110642857Y-122854438D01*
X110642857Y-122854438D02*
X110738095Y-122806819D01*
X110738095Y-122806819D02*
X110976190Y-122806819D01*
X110976190Y-122806819D02*
X111071428Y-122854438D01*
X111071428Y-122854438D02*
X111119047Y-122902057D01*
X111119047Y-122902057D02*
X111166666Y-122997295D01*
X111166666Y-122997295D02*
X111166666Y-123092533D01*
X111166666Y-123092533D02*
X111119047Y-123235390D01*
X111119047Y-123235390D02*
X110547619Y-123806819D01*
X110547619Y-123806819D02*
X111166666Y-123806819D01*
X131731666Y-74931009D02*
X131398333Y-74931009D01*
X131398333Y-75454819D02*
X131398333Y-74454819D01*
X131398333Y-74454819D02*
X131874523Y-74454819D01*
X132303095Y-75454819D02*
X132493571Y-75454819D01*
X132493571Y-75454819D02*
X132588809Y-75407200D01*
X132588809Y-75407200D02*
X132636428Y-75359580D01*
X132636428Y-75359580D02*
X132731666Y-75216723D01*
X132731666Y-75216723D02*
X132779285Y-75026247D01*
X132779285Y-75026247D02*
X132779285Y-74645295D01*
X132779285Y-74645295D02*
X132731666Y-74550057D01*
X132731666Y-74550057D02*
X132684047Y-74502438D01*
X132684047Y-74502438D02*
X132588809Y-74454819D01*
X132588809Y-74454819D02*
X132398333Y-74454819D01*
X132398333Y-74454819D02*
X132303095Y-74502438D01*
X132303095Y-74502438D02*
X132255476Y-74550057D01*
X132255476Y-74550057D02*
X132207857Y-74645295D01*
X132207857Y-74645295D02*
X132207857Y-74883390D01*
X132207857Y-74883390D02*
X132255476Y-74978628D01*
X132255476Y-74978628D02*
X132303095Y-75026247D01*
X132303095Y-75026247D02*
X132398333Y-75073866D01*
X132398333Y-75073866D02*
X132588809Y-75073866D01*
X132588809Y-75073866D02*
X132684047Y-75026247D01*
X132684047Y-75026247D02*
X132731666Y-74978628D01*
X132731666Y-74978628D02*
X132779285Y-74883390D01*
X52591666Y-80779819D02*
X52591666Y-81494104D01*
X52591666Y-81494104D02*
X52544047Y-81636961D01*
X52544047Y-81636961D02*
X52448809Y-81732200D01*
X52448809Y-81732200D02*
X52305952Y-81779819D01*
X52305952Y-81779819D02*
X52210714Y-81779819D01*
X53496428Y-81113152D02*
X53496428Y-81779819D01*
X53258333Y-80732200D02*
X53020238Y-81446485D01*
X53020238Y-81446485D02*
X53639285Y-81446485D01*
X81397666Y-61582009D02*
X81064333Y-61582009D01*
X81064333Y-62105819D02*
X81064333Y-61105819D01*
X81064333Y-61105819D02*
X81540523Y-61105819D01*
X82397666Y-61105819D02*
X81921476Y-61105819D01*
X81921476Y-61105819D02*
X81873857Y-61582009D01*
X81873857Y-61582009D02*
X81921476Y-61534390D01*
X81921476Y-61534390D02*
X82016714Y-61486771D01*
X82016714Y-61486771D02*
X82254809Y-61486771D01*
X82254809Y-61486771D02*
X82350047Y-61534390D01*
X82350047Y-61534390D02*
X82397666Y-61582009D01*
X82397666Y-61582009D02*
X82445285Y-61677247D01*
X82445285Y-61677247D02*
X82445285Y-61915342D01*
X82445285Y-61915342D02*
X82397666Y-62010580D01*
X82397666Y-62010580D02*
X82350047Y-62058200D01*
X82350047Y-62058200D02*
X82254809Y-62105819D01*
X82254809Y-62105819D02*
X82016714Y-62105819D01*
X82016714Y-62105819D02*
X81921476Y-62058200D01*
X81921476Y-62058200D02*
X81873857Y-62010580D01*
X109357142Y-66609580D02*
X109309523Y-66657200D01*
X109309523Y-66657200D02*
X109166666Y-66704819D01*
X109166666Y-66704819D02*
X109071428Y-66704819D01*
X109071428Y-66704819D02*
X108928571Y-66657200D01*
X108928571Y-66657200D02*
X108833333Y-66561961D01*
X108833333Y-66561961D02*
X108785714Y-66466723D01*
X108785714Y-66466723D02*
X108738095Y-66276247D01*
X108738095Y-66276247D02*
X108738095Y-66133390D01*
X108738095Y-66133390D02*
X108785714Y-65942914D01*
X108785714Y-65942914D02*
X108833333Y-65847676D01*
X108833333Y-65847676D02*
X108928571Y-65752438D01*
X108928571Y-65752438D02*
X109071428Y-65704819D01*
X109071428Y-65704819D02*
X109166666Y-65704819D01*
X109166666Y-65704819D02*
X109309523Y-65752438D01*
X109309523Y-65752438D02*
X109357142Y-65800057D01*
X110309523Y-66704819D02*
X109738095Y-66704819D01*
X110023809Y-66704819D02*
X110023809Y-65704819D01*
X110023809Y-65704819D02*
X109928571Y-65847676D01*
X109928571Y-65847676D02*
X109833333Y-65942914D01*
X109833333Y-65942914D02*
X109738095Y-65990533D01*
X110928571Y-65704819D02*
X111023809Y-65704819D01*
X111023809Y-65704819D02*
X111119047Y-65752438D01*
X111119047Y-65752438D02*
X111166666Y-65800057D01*
X111166666Y-65800057D02*
X111214285Y-65895295D01*
X111214285Y-65895295D02*
X111261904Y-66085771D01*
X111261904Y-66085771D02*
X111261904Y-66323866D01*
X111261904Y-66323866D02*
X111214285Y-66514342D01*
X111214285Y-66514342D02*
X111166666Y-66609580D01*
X111166666Y-66609580D02*
X111119047Y-66657200D01*
X111119047Y-66657200D02*
X111023809Y-66704819D01*
X111023809Y-66704819D02*
X110928571Y-66704819D01*
X110928571Y-66704819D02*
X110833333Y-66657200D01*
X110833333Y-66657200D02*
X110785714Y-66609580D01*
X110785714Y-66609580D02*
X110738095Y-66514342D01*
X110738095Y-66514342D02*
X110690476Y-66323866D01*
X110690476Y-66323866D02*
X110690476Y-66085771D01*
X110690476Y-66085771D02*
X110738095Y-65895295D01*
X110738095Y-65895295D02*
X110785714Y-65800057D01*
X110785714Y-65800057D02*
X110833333Y-65752438D01*
X110833333Y-65752438D02*
X110928571Y-65704819D01*
X52591666Y-130779819D02*
X52591666Y-131494104D01*
X52591666Y-131494104D02*
X52544047Y-131636961D01*
X52544047Y-131636961D02*
X52448809Y-131732200D01*
X52448809Y-131732200D02*
X52305952Y-131779819D01*
X52305952Y-131779819D02*
X52210714Y-131779819D01*
X53020238Y-130875057D02*
X53067857Y-130827438D01*
X53067857Y-130827438D02*
X53163095Y-130779819D01*
X53163095Y-130779819D02*
X53401190Y-130779819D01*
X53401190Y-130779819D02*
X53496428Y-130827438D01*
X53496428Y-130827438D02*
X53544047Y-130875057D01*
X53544047Y-130875057D02*
X53591666Y-130970295D01*
X53591666Y-130970295D02*
X53591666Y-131065533D01*
X53591666Y-131065533D02*
X53544047Y-131208390D01*
X53544047Y-131208390D02*
X52972619Y-131779819D01*
X52972619Y-131779819D02*
X53591666Y-131779819D01*
X129615476Y-30779819D02*
X129615476Y-31494104D01*
X129615476Y-31494104D02*
X129567857Y-31636961D01*
X129567857Y-31636961D02*
X129472619Y-31732200D01*
X129472619Y-31732200D02*
X129329762Y-31779819D01*
X129329762Y-31779819D02*
X129234524Y-31779819D01*
X130615476Y-31779819D02*
X130044048Y-31779819D01*
X130329762Y-31779819D02*
X130329762Y-30779819D01*
X130329762Y-30779819D02*
X130234524Y-30922676D01*
X130234524Y-30922676D02*
X130139286Y-31017914D01*
X130139286Y-31017914D02*
X130044048Y-31065533D01*
X131567857Y-31779819D02*
X130996429Y-31779819D01*
X131282143Y-31779819D02*
X131282143Y-30779819D01*
X131282143Y-30779819D02*
X131186905Y-30922676D01*
X131186905Y-30922676D02*
X131091667Y-31017914D01*
X131091667Y-31017914D02*
X130996429Y-31065533D01*
X115483333Y-163834580D02*
X115435714Y-163882200D01*
X115435714Y-163882200D02*
X115292857Y-163929819D01*
X115292857Y-163929819D02*
X115197619Y-163929819D01*
X115197619Y-163929819D02*
X115054762Y-163882200D01*
X115054762Y-163882200D02*
X114959524Y-163786961D01*
X114959524Y-163786961D02*
X114911905Y-163691723D01*
X114911905Y-163691723D02*
X114864286Y-163501247D01*
X114864286Y-163501247D02*
X114864286Y-163358390D01*
X114864286Y-163358390D02*
X114911905Y-163167914D01*
X114911905Y-163167914D02*
X114959524Y-163072676D01*
X114959524Y-163072676D02*
X115054762Y-162977438D01*
X115054762Y-162977438D02*
X115197619Y-162929819D01*
X115197619Y-162929819D02*
X115292857Y-162929819D01*
X115292857Y-162929819D02*
X115435714Y-162977438D01*
X115435714Y-162977438D02*
X115483333Y-163025057D01*
X116340476Y-163263152D02*
X116340476Y-163929819D01*
X116102381Y-162882200D02*
X115864286Y-163596485D01*
X115864286Y-163596485D02*
X116483333Y-163596485D01*
X54357142Y-69109580D02*
X54309523Y-69157200D01*
X54309523Y-69157200D02*
X54166666Y-69204819D01*
X54166666Y-69204819D02*
X54071428Y-69204819D01*
X54071428Y-69204819D02*
X53928571Y-69157200D01*
X53928571Y-69157200D02*
X53833333Y-69061961D01*
X53833333Y-69061961D02*
X53785714Y-68966723D01*
X53785714Y-68966723D02*
X53738095Y-68776247D01*
X53738095Y-68776247D02*
X53738095Y-68633390D01*
X53738095Y-68633390D02*
X53785714Y-68442914D01*
X53785714Y-68442914D02*
X53833333Y-68347676D01*
X53833333Y-68347676D02*
X53928571Y-68252438D01*
X53928571Y-68252438D02*
X54071428Y-68204819D01*
X54071428Y-68204819D02*
X54166666Y-68204819D01*
X54166666Y-68204819D02*
X54309523Y-68252438D01*
X54309523Y-68252438D02*
X54357142Y-68300057D01*
X55309523Y-69204819D02*
X54738095Y-69204819D01*
X55023809Y-69204819D02*
X55023809Y-68204819D01*
X55023809Y-68204819D02*
X54928571Y-68347676D01*
X54928571Y-68347676D02*
X54833333Y-68442914D01*
X54833333Y-68442914D02*
X54738095Y-68490533D01*
X56166666Y-68204819D02*
X55976190Y-68204819D01*
X55976190Y-68204819D02*
X55880952Y-68252438D01*
X55880952Y-68252438D02*
X55833333Y-68300057D01*
X55833333Y-68300057D02*
X55738095Y-68442914D01*
X55738095Y-68442914D02*
X55690476Y-68633390D01*
X55690476Y-68633390D02*
X55690476Y-69014342D01*
X55690476Y-69014342D02*
X55738095Y-69109580D01*
X55738095Y-69109580D02*
X55785714Y-69157200D01*
X55785714Y-69157200D02*
X55880952Y-69204819D01*
X55880952Y-69204819D02*
X56071428Y-69204819D01*
X56071428Y-69204819D02*
X56166666Y-69157200D01*
X56166666Y-69157200D02*
X56214285Y-69109580D01*
X56214285Y-69109580D02*
X56261904Y-69014342D01*
X56261904Y-69014342D02*
X56261904Y-68776247D01*
X56261904Y-68776247D02*
X56214285Y-68681009D01*
X56214285Y-68681009D02*
X56166666Y-68633390D01*
X56166666Y-68633390D02*
X56071428Y-68585771D01*
X56071428Y-68585771D02*
X55880952Y-68585771D01*
X55880952Y-68585771D02*
X55785714Y-68633390D01*
X55785714Y-68633390D02*
X55738095Y-68681009D01*
X55738095Y-68681009D02*
X55690476Y-68776247D01*
X54833333Y-119109580D02*
X54785714Y-119157200D01*
X54785714Y-119157200D02*
X54642857Y-119204819D01*
X54642857Y-119204819D02*
X54547619Y-119204819D01*
X54547619Y-119204819D02*
X54404762Y-119157200D01*
X54404762Y-119157200D02*
X54309524Y-119061961D01*
X54309524Y-119061961D02*
X54261905Y-118966723D01*
X54261905Y-118966723D02*
X54214286Y-118776247D01*
X54214286Y-118776247D02*
X54214286Y-118633390D01*
X54214286Y-118633390D02*
X54261905Y-118442914D01*
X54261905Y-118442914D02*
X54309524Y-118347676D01*
X54309524Y-118347676D02*
X54404762Y-118252438D01*
X54404762Y-118252438D02*
X54547619Y-118204819D01*
X54547619Y-118204819D02*
X54642857Y-118204819D01*
X54642857Y-118204819D02*
X54785714Y-118252438D01*
X54785714Y-118252438D02*
X54833333Y-118300057D01*
X55738095Y-118204819D02*
X55261905Y-118204819D01*
X55261905Y-118204819D02*
X55214286Y-118681009D01*
X55214286Y-118681009D02*
X55261905Y-118633390D01*
X55261905Y-118633390D02*
X55357143Y-118585771D01*
X55357143Y-118585771D02*
X55595238Y-118585771D01*
X55595238Y-118585771D02*
X55690476Y-118633390D01*
X55690476Y-118633390D02*
X55738095Y-118681009D01*
X55738095Y-118681009D02*
X55785714Y-118776247D01*
X55785714Y-118776247D02*
X55785714Y-119014342D01*
X55785714Y-119014342D02*
X55738095Y-119109580D01*
X55738095Y-119109580D02*
X55690476Y-119157200D01*
X55690476Y-119157200D02*
X55595238Y-119204819D01*
X55595238Y-119204819D02*
X55357143Y-119204819D01*
X55357143Y-119204819D02*
X55261905Y-119157200D01*
X55261905Y-119157200D02*
X55214286Y-119109580D01*
X88531905Y-142494819D02*
X88531905Y-141494819D01*
X88531905Y-141494819D02*
X88770000Y-141494819D01*
X88770000Y-141494819D02*
X88912857Y-141542438D01*
X88912857Y-141542438D02*
X89008095Y-141637676D01*
X89008095Y-141637676D02*
X89055714Y-141732914D01*
X89055714Y-141732914D02*
X89103333Y-141923390D01*
X89103333Y-141923390D02*
X89103333Y-142066247D01*
X89103333Y-142066247D02*
X89055714Y-142256723D01*
X89055714Y-142256723D02*
X89008095Y-142351961D01*
X89008095Y-142351961D02*
X88912857Y-142447200D01*
X88912857Y-142447200D02*
X88770000Y-142494819D01*
X88770000Y-142494819D02*
X88531905Y-142494819D01*
X90055714Y-142494819D02*
X89484286Y-142494819D01*
X89770000Y-142494819D02*
X89770000Y-141494819D01*
X89770000Y-141494819D02*
X89674762Y-141637676D01*
X89674762Y-141637676D02*
X89579524Y-141732914D01*
X89579524Y-141732914D02*
X89484286Y-141780533D01*
X129615476Y-55779819D02*
X129615476Y-56494104D01*
X129615476Y-56494104D02*
X129567857Y-56636961D01*
X129567857Y-56636961D02*
X129472619Y-56732200D01*
X129472619Y-56732200D02*
X129329762Y-56779819D01*
X129329762Y-56779819D02*
X129234524Y-56779819D01*
X130615476Y-56779819D02*
X130044048Y-56779819D01*
X130329762Y-56779819D02*
X130329762Y-55779819D01*
X130329762Y-55779819D02*
X130234524Y-55922676D01*
X130234524Y-55922676D02*
X130139286Y-56017914D01*
X130139286Y-56017914D02*
X130044048Y-56065533D01*
X131234524Y-55779819D02*
X131329762Y-55779819D01*
X131329762Y-55779819D02*
X131425000Y-55827438D01*
X131425000Y-55827438D02*
X131472619Y-55875057D01*
X131472619Y-55875057D02*
X131520238Y-55970295D01*
X131520238Y-55970295D02*
X131567857Y-56160771D01*
X131567857Y-56160771D02*
X131567857Y-56398866D01*
X131567857Y-56398866D02*
X131520238Y-56589342D01*
X131520238Y-56589342D02*
X131472619Y-56684580D01*
X131472619Y-56684580D02*
X131425000Y-56732200D01*
X131425000Y-56732200D02*
X131329762Y-56779819D01*
X131329762Y-56779819D02*
X131234524Y-56779819D01*
X131234524Y-56779819D02*
X131139286Y-56732200D01*
X131139286Y-56732200D02*
X131091667Y-56684580D01*
X131091667Y-56684580D02*
X131044048Y-56589342D01*
X131044048Y-56589342D02*
X130996429Y-56398866D01*
X130996429Y-56398866D02*
X130996429Y-56160771D01*
X130996429Y-56160771D02*
X131044048Y-55970295D01*
X131044048Y-55970295D02*
X131091667Y-55875057D01*
X131091667Y-55875057D02*
X131139286Y-55827438D01*
X131139286Y-55827438D02*
X131234524Y-55779819D01*
X108738095Y-47806819D02*
X109309523Y-47806819D01*
X109023809Y-48806819D02*
X109023809Y-47806819D01*
X109642857Y-48806819D02*
X109642857Y-47806819D01*
X109642857Y-47806819D02*
X110023809Y-47806819D01*
X110023809Y-47806819D02*
X110119047Y-47854438D01*
X110119047Y-47854438D02*
X110166666Y-47902057D01*
X110166666Y-47902057D02*
X110214285Y-47997295D01*
X110214285Y-47997295D02*
X110214285Y-48140152D01*
X110214285Y-48140152D02*
X110166666Y-48235390D01*
X110166666Y-48235390D02*
X110119047Y-48283009D01*
X110119047Y-48283009D02*
X110023809Y-48330628D01*
X110023809Y-48330628D02*
X109642857Y-48330628D01*
X111166666Y-48806819D02*
X110595238Y-48806819D01*
X110880952Y-48806819D02*
X110880952Y-47806819D01*
X110880952Y-47806819D02*
X110785714Y-47949676D01*
X110785714Y-47949676D02*
X110690476Y-48044914D01*
X110690476Y-48044914D02*
X110595238Y-48092533D01*
X130091666Y-105779819D02*
X130091666Y-106494104D01*
X130091666Y-106494104D02*
X130044047Y-106636961D01*
X130044047Y-106636961D02*
X129948809Y-106732200D01*
X129948809Y-106732200D02*
X129805952Y-106779819D01*
X129805952Y-106779819D02*
X129710714Y-106779819D01*
X130710714Y-106208390D02*
X130615476Y-106160771D01*
X130615476Y-106160771D02*
X130567857Y-106113152D01*
X130567857Y-106113152D02*
X130520238Y-106017914D01*
X130520238Y-106017914D02*
X130520238Y-105970295D01*
X130520238Y-105970295D02*
X130567857Y-105875057D01*
X130567857Y-105875057D02*
X130615476Y-105827438D01*
X130615476Y-105827438D02*
X130710714Y-105779819D01*
X130710714Y-105779819D02*
X130901190Y-105779819D01*
X130901190Y-105779819D02*
X130996428Y-105827438D01*
X130996428Y-105827438D02*
X131044047Y-105875057D01*
X131044047Y-105875057D02*
X131091666Y-105970295D01*
X131091666Y-105970295D02*
X131091666Y-106017914D01*
X131091666Y-106017914D02*
X131044047Y-106113152D01*
X131044047Y-106113152D02*
X130996428Y-106160771D01*
X130996428Y-106160771D02*
X130901190Y-106208390D01*
X130901190Y-106208390D02*
X130710714Y-106208390D01*
X130710714Y-106208390D02*
X130615476Y-106256009D01*
X130615476Y-106256009D02*
X130567857Y-106303628D01*
X130567857Y-106303628D02*
X130520238Y-106398866D01*
X130520238Y-106398866D02*
X130520238Y-106589342D01*
X130520238Y-106589342D02*
X130567857Y-106684580D01*
X130567857Y-106684580D02*
X130615476Y-106732200D01*
X130615476Y-106732200D02*
X130710714Y-106779819D01*
X130710714Y-106779819D02*
X130901190Y-106779819D01*
X130901190Y-106779819D02*
X130996428Y-106732200D01*
X130996428Y-106732200D02*
X131044047Y-106684580D01*
X131044047Y-106684580D02*
X131091666Y-106589342D01*
X131091666Y-106589342D02*
X131091666Y-106398866D01*
X131091666Y-106398866D02*
X131044047Y-106303628D01*
X131044047Y-106303628D02*
X130996428Y-106256009D01*
X130996428Y-106256009D02*
X130901190Y-106208390D01*
X130091666Y-80779819D02*
X130091666Y-81494104D01*
X130091666Y-81494104D02*
X130044047Y-81636961D01*
X130044047Y-81636961D02*
X129948809Y-81732200D01*
X129948809Y-81732200D02*
X129805952Y-81779819D01*
X129805952Y-81779819D02*
X129710714Y-81779819D01*
X130615476Y-81779819D02*
X130805952Y-81779819D01*
X130805952Y-81779819D02*
X130901190Y-81732200D01*
X130901190Y-81732200D02*
X130948809Y-81684580D01*
X130948809Y-81684580D02*
X131044047Y-81541723D01*
X131044047Y-81541723D02*
X131091666Y-81351247D01*
X131091666Y-81351247D02*
X131091666Y-80970295D01*
X131091666Y-80970295D02*
X131044047Y-80875057D01*
X131044047Y-80875057D02*
X130996428Y-80827438D01*
X130996428Y-80827438D02*
X130901190Y-80779819D01*
X130901190Y-80779819D02*
X130710714Y-80779819D01*
X130710714Y-80779819D02*
X130615476Y-80827438D01*
X130615476Y-80827438D02*
X130567857Y-80875057D01*
X130567857Y-80875057D02*
X130520238Y-80970295D01*
X130520238Y-80970295D02*
X130520238Y-81208390D01*
X130520238Y-81208390D02*
X130567857Y-81303628D01*
X130567857Y-81303628D02*
X130615476Y-81351247D01*
X130615476Y-81351247D02*
X130710714Y-81398866D01*
X130710714Y-81398866D02*
X130901190Y-81398866D01*
X130901190Y-81398866D02*
X130996428Y-81351247D01*
X130996428Y-81351247D02*
X131044047Y-81303628D01*
X131044047Y-81303628D02*
X131091666Y-81208390D01*
X71883333Y-145109580D02*
X71835714Y-145157200D01*
X71835714Y-145157200D02*
X71692857Y-145204819D01*
X71692857Y-145204819D02*
X71597619Y-145204819D01*
X71597619Y-145204819D02*
X71454762Y-145157200D01*
X71454762Y-145157200D02*
X71359524Y-145061961D01*
X71359524Y-145061961D02*
X71311905Y-144966723D01*
X71311905Y-144966723D02*
X71264286Y-144776247D01*
X71264286Y-144776247D02*
X71264286Y-144633390D01*
X71264286Y-144633390D02*
X71311905Y-144442914D01*
X71311905Y-144442914D02*
X71359524Y-144347676D01*
X71359524Y-144347676D02*
X71454762Y-144252438D01*
X71454762Y-144252438D02*
X71597619Y-144204819D01*
X71597619Y-144204819D02*
X71692857Y-144204819D01*
X71692857Y-144204819D02*
X71835714Y-144252438D01*
X71835714Y-144252438D02*
X71883333Y-144300057D01*
X72835714Y-145204819D02*
X72264286Y-145204819D01*
X72550000Y-145204819D02*
X72550000Y-144204819D01*
X72550000Y-144204819D02*
X72454762Y-144347676D01*
X72454762Y-144347676D02*
X72359524Y-144442914D01*
X72359524Y-144442914D02*
X72264286Y-144490533D01*
X130091666Y-130779819D02*
X130091666Y-131494104D01*
X130091666Y-131494104D02*
X130044047Y-131636961D01*
X130044047Y-131636961D02*
X129948809Y-131732200D01*
X129948809Y-131732200D02*
X129805952Y-131779819D01*
X129805952Y-131779819D02*
X129710714Y-131779819D01*
X130472619Y-130779819D02*
X131139285Y-130779819D01*
X131139285Y-130779819D02*
X130710714Y-131779819D01*
X109294905Y-35454819D02*
X109294905Y-34454819D01*
X109294905Y-34454819D02*
X109533000Y-34454819D01*
X109533000Y-34454819D02*
X109675857Y-34502438D01*
X109675857Y-34502438D02*
X109771095Y-34597676D01*
X109771095Y-34597676D02*
X109818714Y-34692914D01*
X109818714Y-34692914D02*
X109866333Y-34883390D01*
X109866333Y-34883390D02*
X109866333Y-35026247D01*
X109866333Y-35026247D02*
X109818714Y-35216723D01*
X109818714Y-35216723D02*
X109771095Y-35311961D01*
X109771095Y-35311961D02*
X109675857Y-35407200D01*
X109675857Y-35407200D02*
X109533000Y-35454819D01*
X109533000Y-35454819D02*
X109294905Y-35454819D01*
X110199667Y-34454819D02*
X110866333Y-34454819D01*
X110866333Y-34454819D02*
X110437762Y-35454819D01*
X90531905Y-21494819D02*
X90531905Y-20494819D01*
X90531905Y-20494819D02*
X90770000Y-20494819D01*
X90770000Y-20494819D02*
X90912857Y-20542438D01*
X90912857Y-20542438D02*
X91008095Y-20637676D01*
X91008095Y-20637676D02*
X91055714Y-20732914D01*
X91055714Y-20732914D02*
X91103333Y-20923390D01*
X91103333Y-20923390D02*
X91103333Y-21066247D01*
X91103333Y-21066247D02*
X91055714Y-21256723D01*
X91055714Y-21256723D02*
X91008095Y-21351961D01*
X91008095Y-21351961D02*
X90912857Y-21447200D01*
X90912857Y-21447200D02*
X90770000Y-21494819D01*
X90770000Y-21494819D02*
X90531905Y-21494819D01*
X91484286Y-20590057D02*
X91531905Y-20542438D01*
X91531905Y-20542438D02*
X91627143Y-20494819D01*
X91627143Y-20494819D02*
X91865238Y-20494819D01*
X91865238Y-20494819D02*
X91960476Y-20542438D01*
X91960476Y-20542438D02*
X92008095Y-20590057D01*
X92008095Y-20590057D02*
X92055714Y-20685295D01*
X92055714Y-20685295D02*
X92055714Y-20780533D01*
X92055714Y-20780533D02*
X92008095Y-20923390D01*
X92008095Y-20923390D02*
X91436667Y-21494819D01*
X91436667Y-21494819D02*
X92055714Y-21494819D01*
X83558333Y-163909580D02*
X83510714Y-163957200D01*
X83510714Y-163957200D02*
X83367857Y-164004819D01*
X83367857Y-164004819D02*
X83272619Y-164004819D01*
X83272619Y-164004819D02*
X83129762Y-163957200D01*
X83129762Y-163957200D02*
X83034524Y-163861961D01*
X83034524Y-163861961D02*
X82986905Y-163766723D01*
X82986905Y-163766723D02*
X82939286Y-163576247D01*
X82939286Y-163576247D02*
X82939286Y-163433390D01*
X82939286Y-163433390D02*
X82986905Y-163242914D01*
X82986905Y-163242914D02*
X83034524Y-163147676D01*
X83034524Y-163147676D02*
X83129762Y-163052438D01*
X83129762Y-163052438D02*
X83272619Y-163004819D01*
X83272619Y-163004819D02*
X83367857Y-163004819D01*
X83367857Y-163004819D02*
X83510714Y-163052438D01*
X83510714Y-163052438D02*
X83558333Y-163100057D01*
X83891667Y-163004819D02*
X84510714Y-163004819D01*
X84510714Y-163004819D02*
X84177381Y-163385771D01*
X84177381Y-163385771D02*
X84320238Y-163385771D01*
X84320238Y-163385771D02*
X84415476Y-163433390D01*
X84415476Y-163433390D02*
X84463095Y-163481009D01*
X84463095Y-163481009D02*
X84510714Y-163576247D01*
X84510714Y-163576247D02*
X84510714Y-163814342D01*
X84510714Y-163814342D02*
X84463095Y-163909580D01*
X84463095Y-163909580D02*
X84415476Y-163957200D01*
X84415476Y-163957200D02*
X84320238Y-164004819D01*
X84320238Y-164004819D02*
X84034524Y-164004819D01*
X84034524Y-164004819D02*
X83939286Y-163957200D01*
X83939286Y-163957200D02*
X83891667Y-163909580D01*
X81397666Y-136582009D02*
X81064333Y-136582009D01*
X81064333Y-137105819D02*
X81064333Y-136105819D01*
X81064333Y-136105819D02*
X81540523Y-136105819D01*
X81873857Y-136201057D02*
X81921476Y-136153438D01*
X81921476Y-136153438D02*
X82016714Y-136105819D01*
X82016714Y-136105819D02*
X82254809Y-136105819D01*
X82254809Y-136105819D02*
X82350047Y-136153438D01*
X82350047Y-136153438D02*
X82397666Y-136201057D01*
X82397666Y-136201057D02*
X82445285Y-136296295D01*
X82445285Y-136296295D02*
X82445285Y-136391533D01*
X82445285Y-136391533D02*
X82397666Y-136534390D01*
X82397666Y-136534390D02*
X81826238Y-137105819D01*
X81826238Y-137105819D02*
X82445285Y-137105819D01*
X131731666Y-99931009D02*
X131398333Y-99931009D01*
X131398333Y-100454819D02*
X131398333Y-99454819D01*
X131398333Y-99454819D02*
X131874523Y-99454819D01*
X132398333Y-99883390D02*
X132303095Y-99835771D01*
X132303095Y-99835771D02*
X132255476Y-99788152D01*
X132255476Y-99788152D02*
X132207857Y-99692914D01*
X132207857Y-99692914D02*
X132207857Y-99645295D01*
X132207857Y-99645295D02*
X132255476Y-99550057D01*
X132255476Y-99550057D02*
X132303095Y-99502438D01*
X132303095Y-99502438D02*
X132398333Y-99454819D01*
X132398333Y-99454819D02*
X132588809Y-99454819D01*
X132588809Y-99454819D02*
X132684047Y-99502438D01*
X132684047Y-99502438D02*
X132731666Y-99550057D01*
X132731666Y-99550057D02*
X132779285Y-99645295D01*
X132779285Y-99645295D02*
X132779285Y-99692914D01*
X132779285Y-99692914D02*
X132731666Y-99788152D01*
X132731666Y-99788152D02*
X132684047Y-99835771D01*
X132684047Y-99835771D02*
X132588809Y-99883390D01*
X132588809Y-99883390D02*
X132398333Y-99883390D01*
X132398333Y-99883390D02*
X132303095Y-99931009D01*
X132303095Y-99931009D02*
X132255476Y-99978628D01*
X132255476Y-99978628D02*
X132207857Y-100073866D01*
X132207857Y-100073866D02*
X132207857Y-100264342D01*
X132207857Y-100264342D02*
X132255476Y-100359580D01*
X132255476Y-100359580D02*
X132303095Y-100407200D01*
X132303095Y-100407200D02*
X132398333Y-100454819D01*
X132398333Y-100454819D02*
X132588809Y-100454819D01*
X132588809Y-100454819D02*
X132684047Y-100407200D01*
X132684047Y-100407200D02*
X132731666Y-100359580D01*
X132731666Y-100359580D02*
X132779285Y-100264342D01*
X132779285Y-100264342D02*
X132779285Y-100073866D01*
X132779285Y-100073866D02*
X132731666Y-99978628D01*
X132731666Y-99978628D02*
X132684047Y-99931009D01*
X132684047Y-99931009D02*
X132588809Y-99883390D01*
X54833333Y-139859580D02*
X54785714Y-139907200D01*
X54785714Y-139907200D02*
X54642857Y-139954819D01*
X54642857Y-139954819D02*
X54547619Y-139954819D01*
X54547619Y-139954819D02*
X54404762Y-139907200D01*
X54404762Y-139907200D02*
X54309524Y-139811961D01*
X54309524Y-139811961D02*
X54261905Y-139716723D01*
X54261905Y-139716723D02*
X54214286Y-139526247D01*
X54214286Y-139526247D02*
X54214286Y-139383390D01*
X54214286Y-139383390D02*
X54261905Y-139192914D01*
X54261905Y-139192914D02*
X54309524Y-139097676D01*
X54309524Y-139097676D02*
X54404762Y-139002438D01*
X54404762Y-139002438D02*
X54547619Y-138954819D01*
X54547619Y-138954819D02*
X54642857Y-138954819D01*
X54642857Y-138954819D02*
X54785714Y-139002438D01*
X54785714Y-139002438D02*
X54833333Y-139050057D01*
X55690476Y-138954819D02*
X55500000Y-138954819D01*
X55500000Y-138954819D02*
X55404762Y-139002438D01*
X55404762Y-139002438D02*
X55357143Y-139050057D01*
X55357143Y-139050057D02*
X55261905Y-139192914D01*
X55261905Y-139192914D02*
X55214286Y-139383390D01*
X55214286Y-139383390D02*
X55214286Y-139764342D01*
X55214286Y-139764342D02*
X55261905Y-139859580D01*
X55261905Y-139859580D02*
X55309524Y-139907200D01*
X55309524Y-139907200D02*
X55404762Y-139954819D01*
X55404762Y-139954819D02*
X55595238Y-139954819D01*
X55595238Y-139954819D02*
X55690476Y-139907200D01*
X55690476Y-139907200D02*
X55738095Y-139859580D01*
X55738095Y-139859580D02*
X55785714Y-139764342D01*
X55785714Y-139764342D02*
X55785714Y-139526247D01*
X55785714Y-139526247D02*
X55738095Y-139431009D01*
X55738095Y-139431009D02*
X55690476Y-139383390D01*
X55690476Y-139383390D02*
X55595238Y-139335771D01*
X55595238Y-139335771D02*
X55404762Y-139335771D01*
X55404762Y-139335771D02*
X55309524Y-139383390D01*
X55309524Y-139383390D02*
X55261905Y-139431009D01*
X55261905Y-139431009D02*
X55214286Y-139526247D01*
X54357142Y-39859580D02*
X54309523Y-39907200D01*
X54309523Y-39907200D02*
X54166666Y-39954819D01*
X54166666Y-39954819D02*
X54071428Y-39954819D01*
X54071428Y-39954819D02*
X53928571Y-39907200D01*
X53928571Y-39907200D02*
X53833333Y-39811961D01*
X53833333Y-39811961D02*
X53785714Y-39716723D01*
X53785714Y-39716723D02*
X53738095Y-39526247D01*
X53738095Y-39526247D02*
X53738095Y-39383390D01*
X53738095Y-39383390D02*
X53785714Y-39192914D01*
X53785714Y-39192914D02*
X53833333Y-39097676D01*
X53833333Y-39097676D02*
X53928571Y-39002438D01*
X53928571Y-39002438D02*
X54071428Y-38954819D01*
X54071428Y-38954819D02*
X54166666Y-38954819D01*
X54166666Y-38954819D02*
X54309523Y-39002438D01*
X54309523Y-39002438D02*
X54357142Y-39050057D01*
X54738095Y-39050057D02*
X54785714Y-39002438D01*
X54785714Y-39002438D02*
X54880952Y-38954819D01*
X54880952Y-38954819D02*
X55119047Y-38954819D01*
X55119047Y-38954819D02*
X55214285Y-39002438D01*
X55214285Y-39002438D02*
X55261904Y-39050057D01*
X55261904Y-39050057D02*
X55309523Y-39145295D01*
X55309523Y-39145295D02*
X55309523Y-39240533D01*
X55309523Y-39240533D02*
X55261904Y-39383390D01*
X55261904Y-39383390D02*
X54690476Y-39954819D01*
X54690476Y-39954819D02*
X55309523Y-39954819D01*
X56261904Y-39954819D02*
X55690476Y-39954819D01*
X55976190Y-39954819D02*
X55976190Y-38954819D01*
X55976190Y-38954819D02*
X55880952Y-39097676D01*
X55880952Y-39097676D02*
X55785714Y-39192914D01*
X55785714Y-39192914D02*
X55690476Y-39240533D01*
X54357142Y-89859580D02*
X54309523Y-89907200D01*
X54309523Y-89907200D02*
X54166666Y-89954819D01*
X54166666Y-89954819D02*
X54071428Y-89954819D01*
X54071428Y-89954819D02*
X53928571Y-89907200D01*
X53928571Y-89907200D02*
X53833333Y-89811961D01*
X53833333Y-89811961D02*
X53785714Y-89716723D01*
X53785714Y-89716723D02*
X53738095Y-89526247D01*
X53738095Y-89526247D02*
X53738095Y-89383390D01*
X53738095Y-89383390D02*
X53785714Y-89192914D01*
X53785714Y-89192914D02*
X53833333Y-89097676D01*
X53833333Y-89097676D02*
X53928571Y-89002438D01*
X53928571Y-89002438D02*
X54071428Y-88954819D01*
X54071428Y-88954819D02*
X54166666Y-88954819D01*
X54166666Y-88954819D02*
X54309523Y-89002438D01*
X54309523Y-89002438D02*
X54357142Y-89050057D01*
X55309523Y-89954819D02*
X54738095Y-89954819D01*
X55023809Y-89954819D02*
X55023809Y-88954819D01*
X55023809Y-88954819D02*
X54928571Y-89097676D01*
X54928571Y-89097676D02*
X54833333Y-89192914D01*
X54833333Y-89192914D02*
X54738095Y-89240533D01*
X56166666Y-89288152D02*
X56166666Y-89954819D01*
X55928571Y-88907200D02*
X55690476Y-89621485D01*
X55690476Y-89621485D02*
X56309523Y-89621485D01*
X109294905Y-110454819D02*
X109294905Y-109454819D01*
X109294905Y-109454819D02*
X109533000Y-109454819D01*
X109533000Y-109454819D02*
X109675857Y-109502438D01*
X109675857Y-109502438D02*
X109771095Y-109597676D01*
X109771095Y-109597676D02*
X109818714Y-109692914D01*
X109818714Y-109692914D02*
X109866333Y-109883390D01*
X109866333Y-109883390D02*
X109866333Y-110026247D01*
X109866333Y-110026247D02*
X109818714Y-110216723D01*
X109818714Y-110216723D02*
X109771095Y-110311961D01*
X109771095Y-110311961D02*
X109675857Y-110407200D01*
X109675857Y-110407200D02*
X109533000Y-110454819D01*
X109533000Y-110454819D02*
X109294905Y-110454819D01*
X110723476Y-109788152D02*
X110723476Y-110454819D01*
X110485381Y-109407200D02*
X110247286Y-110121485D01*
X110247286Y-110121485D02*
X110866333Y-110121485D01*
X108913333Y-144084819D02*
X108580000Y-143608628D01*
X108341905Y-144084819D02*
X108341905Y-143084819D01*
X108341905Y-143084819D02*
X108722857Y-143084819D01*
X108722857Y-143084819D02*
X108818095Y-143132438D01*
X108818095Y-143132438D02*
X108865714Y-143180057D01*
X108865714Y-143180057D02*
X108913333Y-143275295D01*
X108913333Y-143275295D02*
X108913333Y-143418152D01*
X108913333Y-143418152D02*
X108865714Y-143513390D01*
X108865714Y-143513390D02*
X108818095Y-143561009D01*
X108818095Y-143561009D02*
X108722857Y-143608628D01*
X108722857Y-143608628D02*
X108341905Y-143608628D01*
X109865714Y-144084819D02*
X109294286Y-144084819D01*
X109580000Y-144084819D02*
X109580000Y-143084819D01*
X109580000Y-143084819D02*
X109484762Y-143227676D01*
X109484762Y-143227676D02*
X109389524Y-143322914D01*
X109389524Y-143322914D02*
X109294286Y-143370533D01*
X99791666Y-178229819D02*
X99791666Y-178944104D01*
X99791666Y-178944104D02*
X99744047Y-179086961D01*
X99744047Y-179086961D02*
X99648809Y-179182200D01*
X99648809Y-179182200D02*
X99505952Y-179229819D01*
X99505952Y-179229819D02*
X99410714Y-179229819D01*
X100791666Y-179229819D02*
X100220238Y-179229819D01*
X100505952Y-179229819D02*
X100505952Y-178229819D01*
X100505952Y-178229819D02*
X100410714Y-178372676D01*
X100410714Y-178372676D02*
X100315476Y-178467914D01*
X100315476Y-178467914D02*
X100220238Y-178515533D01*
X93653571Y-158889700D02*
X94796429Y-158889700D01*
X94225000Y-159461128D02*
X94225000Y-158318271D01*
X105953571Y-158889700D02*
X107096429Y-158889700D01*
X109294905Y-135454819D02*
X109294905Y-134454819D01*
X109294905Y-134454819D02*
X109533000Y-134454819D01*
X109533000Y-134454819D02*
X109675857Y-134502438D01*
X109675857Y-134502438D02*
X109771095Y-134597676D01*
X109771095Y-134597676D02*
X109818714Y-134692914D01*
X109818714Y-134692914D02*
X109866333Y-134883390D01*
X109866333Y-134883390D02*
X109866333Y-135026247D01*
X109866333Y-135026247D02*
X109818714Y-135216723D01*
X109818714Y-135216723D02*
X109771095Y-135311961D01*
X109771095Y-135311961D02*
X109675857Y-135407200D01*
X109675857Y-135407200D02*
X109533000Y-135454819D01*
X109533000Y-135454819D02*
X109294905Y-135454819D01*
X110199667Y-134454819D02*
X110818714Y-134454819D01*
X110818714Y-134454819D02*
X110485381Y-134835771D01*
X110485381Y-134835771D02*
X110628238Y-134835771D01*
X110628238Y-134835771D02*
X110723476Y-134883390D01*
X110723476Y-134883390D02*
X110771095Y-134931009D01*
X110771095Y-134931009D02*
X110818714Y-135026247D01*
X110818714Y-135026247D02*
X110818714Y-135264342D01*
X110818714Y-135264342D02*
X110771095Y-135359580D01*
X110771095Y-135359580D02*
X110723476Y-135407200D01*
X110723476Y-135407200D02*
X110628238Y-135454819D01*
X110628238Y-135454819D02*
X110342524Y-135454819D01*
X110342524Y-135454819D02*
X110247286Y-135407200D01*
X110247286Y-135407200D02*
X110199667Y-135359580D01*
X127908333Y-145109580D02*
X127860714Y-145157200D01*
X127860714Y-145157200D02*
X127717857Y-145204819D01*
X127717857Y-145204819D02*
X127622619Y-145204819D01*
X127622619Y-145204819D02*
X127479762Y-145157200D01*
X127479762Y-145157200D02*
X127384524Y-145061961D01*
X127384524Y-145061961D02*
X127336905Y-144966723D01*
X127336905Y-144966723D02*
X127289286Y-144776247D01*
X127289286Y-144776247D02*
X127289286Y-144633390D01*
X127289286Y-144633390D02*
X127336905Y-144442914D01*
X127336905Y-144442914D02*
X127384524Y-144347676D01*
X127384524Y-144347676D02*
X127479762Y-144252438D01*
X127479762Y-144252438D02*
X127622619Y-144204819D01*
X127622619Y-144204819D02*
X127717857Y-144204819D01*
X127717857Y-144204819D02*
X127860714Y-144252438D01*
X127860714Y-144252438D02*
X127908333Y-144300057D01*
X128289286Y-144300057D02*
X128336905Y-144252438D01*
X128336905Y-144252438D02*
X128432143Y-144204819D01*
X128432143Y-144204819D02*
X128670238Y-144204819D01*
X128670238Y-144204819D02*
X128765476Y-144252438D01*
X128765476Y-144252438D02*
X128813095Y-144300057D01*
X128813095Y-144300057D02*
X128860714Y-144395295D01*
X128860714Y-144395295D02*
X128860714Y-144490533D01*
X128860714Y-144490533D02*
X128813095Y-144633390D01*
X128813095Y-144633390D02*
X128241667Y-145204819D01*
X128241667Y-145204819D02*
X128860714Y-145204819D01*
X54833333Y-94109580D02*
X54785714Y-94157200D01*
X54785714Y-94157200D02*
X54642857Y-94204819D01*
X54642857Y-94204819D02*
X54547619Y-94204819D01*
X54547619Y-94204819D02*
X54404762Y-94157200D01*
X54404762Y-94157200D02*
X54309524Y-94061961D01*
X54309524Y-94061961D02*
X54261905Y-93966723D01*
X54261905Y-93966723D02*
X54214286Y-93776247D01*
X54214286Y-93776247D02*
X54214286Y-93633390D01*
X54214286Y-93633390D02*
X54261905Y-93442914D01*
X54261905Y-93442914D02*
X54309524Y-93347676D01*
X54309524Y-93347676D02*
X54404762Y-93252438D01*
X54404762Y-93252438D02*
X54547619Y-93204819D01*
X54547619Y-93204819D02*
X54642857Y-93204819D01*
X54642857Y-93204819D02*
X54785714Y-93252438D01*
X54785714Y-93252438D02*
X54833333Y-93300057D01*
X55404762Y-93633390D02*
X55309524Y-93585771D01*
X55309524Y-93585771D02*
X55261905Y-93538152D01*
X55261905Y-93538152D02*
X55214286Y-93442914D01*
X55214286Y-93442914D02*
X55214286Y-93395295D01*
X55214286Y-93395295D02*
X55261905Y-93300057D01*
X55261905Y-93300057D02*
X55309524Y-93252438D01*
X55309524Y-93252438D02*
X55404762Y-93204819D01*
X55404762Y-93204819D02*
X55595238Y-93204819D01*
X55595238Y-93204819D02*
X55690476Y-93252438D01*
X55690476Y-93252438D02*
X55738095Y-93300057D01*
X55738095Y-93300057D02*
X55785714Y-93395295D01*
X55785714Y-93395295D02*
X55785714Y-93442914D01*
X55785714Y-93442914D02*
X55738095Y-93538152D01*
X55738095Y-93538152D02*
X55690476Y-93585771D01*
X55690476Y-93585771D02*
X55595238Y-93633390D01*
X55595238Y-93633390D02*
X55404762Y-93633390D01*
X55404762Y-93633390D02*
X55309524Y-93681009D01*
X55309524Y-93681009D02*
X55261905Y-93728628D01*
X55261905Y-93728628D02*
X55214286Y-93823866D01*
X55214286Y-93823866D02*
X55214286Y-94014342D01*
X55214286Y-94014342D02*
X55261905Y-94109580D01*
X55261905Y-94109580D02*
X55309524Y-94157200D01*
X55309524Y-94157200D02*
X55404762Y-94204819D01*
X55404762Y-94204819D02*
X55595238Y-94204819D01*
X55595238Y-94204819D02*
X55690476Y-94157200D01*
X55690476Y-94157200D02*
X55738095Y-94109580D01*
X55738095Y-94109580D02*
X55785714Y-94014342D01*
X55785714Y-94014342D02*
X55785714Y-93823866D01*
X55785714Y-93823866D02*
X55738095Y-93728628D01*
X55738095Y-93728628D02*
X55690476Y-93681009D01*
X55690476Y-93681009D02*
X55595238Y-93633390D01*
%TO.C,D5*%
D11*
X97523500Y-84365000D02*
X97523500Y-85635000D01*
X97523500Y-85000000D02*
X98285500Y-84365000D01*
X97523500Y-85000000D02*
X98285500Y-84492000D01*
X97523500Y-85000000D02*
X98285500Y-84619000D01*
X97523500Y-85000000D02*
X98285500Y-84746000D01*
X97523500Y-85000000D02*
X98285500Y-84873000D01*
X97523500Y-85000000D02*
X98285500Y-85127000D01*
X97523500Y-85000000D02*
X98285500Y-85254000D01*
X97523500Y-85000000D02*
X98285500Y-85381000D01*
X97523500Y-85000000D02*
X98285500Y-85508000D01*
X97523500Y-85000000D02*
X98285500Y-85635000D01*
X98285500Y-84365000D02*
X98285500Y-85635000D01*
X98539500Y-85000000D02*
X97269500Y-85000000D01*
X105143500Y-82206000D02*
X105143500Y-87794000D01*
X105143500Y-87794000D02*
X114922500Y-87794000D01*
X114922500Y-82206000D02*
X105143500Y-82206000D01*
X114922500Y-87794000D02*
X114922500Y-82206000D01*
%TO.C,F7*%
X117460000Y-125000000D02*
X118714760Y-125000000D01*
X118095000Y-124365000D02*
X118095000Y-125635000D01*
X118857000Y-119793000D02*
X118857000Y-124412299D01*
X118857000Y-125587701D02*
X118857000Y-130207000D01*
X145273000Y-119793000D02*
X118857000Y-119793000D01*
X145273000Y-119793000D02*
X145273000Y-124412299D01*
X145273000Y-125587701D02*
X145273000Y-130207000D01*
X145273000Y-130207000D02*
X118857000Y-130207000D01*
%TO.C,D6*%
X97523500Y-59365000D02*
X97523500Y-60635000D01*
X97523500Y-60000000D02*
X98285500Y-59365000D01*
X97523500Y-60000000D02*
X98285500Y-59492000D01*
X97523500Y-60000000D02*
X98285500Y-59619000D01*
X97523500Y-60000000D02*
X98285500Y-59746000D01*
X97523500Y-60000000D02*
X98285500Y-59873000D01*
X97523500Y-60000000D02*
X98285500Y-60127000D01*
X97523500Y-60000000D02*
X98285500Y-60254000D01*
X97523500Y-60000000D02*
X98285500Y-60381000D01*
X97523500Y-60000000D02*
X98285500Y-60508000D01*
X97523500Y-60000000D02*
X98285500Y-60635000D01*
X98285500Y-59365000D02*
X98285500Y-60635000D01*
X98539500Y-60000000D02*
X97269500Y-60000000D01*
X105143500Y-57206000D02*
X105143500Y-62794000D01*
X105143500Y-62794000D02*
X114922500Y-62794000D01*
X114922500Y-57206000D02*
X105143500Y-57206000D01*
X114922500Y-62794000D02*
X114922500Y-57206000D01*
%TO.C,C17*%
D12*
X52530000Y-65630000D02*
X57470000Y-65630000D01*
X52530000Y-65960000D02*
X52530000Y-65630000D01*
X52530000Y-68370000D02*
X52530000Y-68040000D01*
X57470000Y-65630000D02*
X57470000Y-65960000D01*
X57470000Y-68040000D02*
X57470000Y-68370000D01*
X57470000Y-68370000D02*
X52530000Y-68370000D01*
%TO.C,F10*%
D11*
X117460000Y-50000000D02*
X118714760Y-50000000D01*
X118095000Y-49365000D02*
X118095000Y-50635000D01*
X118857000Y-44793000D02*
X118857000Y-49412299D01*
X118857000Y-50587701D02*
X118857000Y-55207000D01*
X145273000Y-44793000D02*
X118857000Y-44793000D01*
X145273000Y-44793000D02*
X145273000Y-49412299D01*
X145273000Y-50587701D02*
X145273000Y-55207000D01*
X145273000Y-55207000D02*
X118857000Y-55207000D01*
%TO.C,J5*%
D13*
X48750000Y-60500000D02*
X48750000Y-59500000D01*
X49250000Y-60000000D02*
X48250000Y-60000000D01*
X49900000Y-58100000D02*
X49900000Y-61900000D01*
X50600000Y-62600000D02*
X58600000Y-62600000D01*
X58600000Y-57400000D02*
X50600000Y-57400000D01*
X60100000Y-61100000D02*
X60100000Y-58900000D01*
X60750000Y-60000000D02*
X61750000Y-60000000D01*
X49900000Y-58100000D02*
G75*
G02*
X50600000Y-57400000I699999J1D01*
G01*
X50600000Y-62600000D02*
G75*
G02*
X49900000Y-61900000I-1J699999D01*
G01*
X58600000Y-57400000D02*
G75*
G02*
X60100000Y-58900000I-1234300J-2734300D01*
G01*
X60100000Y-61100000D02*
G75*
G02*
X58600000Y-62600000I-2734300J1234300D01*
G01*
%TO.C,C7*%
D12*
X52530000Y-115630000D02*
X57470000Y-115630000D01*
X52530000Y-115960000D02*
X52530000Y-115630000D01*
X52530000Y-118370000D02*
X52530000Y-118040000D01*
X57470000Y-115630000D02*
X57470000Y-115960000D01*
X57470000Y-118040000D02*
X57470000Y-118370000D01*
X57470000Y-118370000D02*
X52530000Y-118370000D01*
%TO.C,C9*%
X107530000Y-96130000D02*
X112470000Y-96130000D01*
X107530000Y-96460000D02*
X107530000Y-96130000D01*
X107530000Y-98870000D02*
X107530000Y-98540000D01*
X112470000Y-96130000D02*
X112470000Y-96460000D01*
X112470000Y-98540000D02*
X112470000Y-98870000D01*
X112470000Y-98870000D02*
X107530000Y-98870000D01*
%TO.C,J3*%
D13*
X48750000Y-110500000D02*
X48750000Y-109500000D01*
X49250000Y-110000000D02*
X48250000Y-110000000D01*
X49900000Y-108100000D02*
X49900000Y-111900000D01*
X50600000Y-112600000D02*
X58600000Y-112600000D01*
X58600000Y-107400000D02*
X50600000Y-107400000D01*
X60100000Y-111100000D02*
X60100000Y-108900000D01*
X60750000Y-110000000D02*
X61750000Y-110000000D01*
X49900000Y-108100000D02*
G75*
G02*
X50600000Y-107400000I699999J1D01*
G01*
X50600000Y-112600000D02*
G75*
G02*
X49900000Y-111900000I-1J699999D01*
G01*
X58600000Y-107400000D02*
G75*
G02*
X60100000Y-108900000I-1234300J-2734300D01*
G01*
X60100000Y-111100000D02*
G75*
G02*
X58600000Y-112600000I-2734300J1234300D01*
G01*
%TO.C,F6*%
D11*
X64903500Y-31444000D02*
X64903500Y-38556000D01*
X64903500Y-38556000D02*
X85096500Y-38556000D01*
X85096500Y-31444000D02*
X64903500Y-31444000D01*
X85096500Y-38556000D02*
X85096500Y-31444000D01*
D14*
X64649500Y-33349000D02*
G75*
G02*
X63887500Y-33349000I-381000J0D01*
G01*
X63887500Y-33349000D02*
G75*
G02*
X64649500Y-33349000I381000J0D01*
G01*
%TO.C,C20*%
D12*
X49520354Y-47125000D02*
X50520354Y-47125000D01*
X50020354Y-46625000D02*
X50020354Y-47625000D01*
X55000000Y-44920000D02*
X55000000Y-55080000D01*
X55040000Y-44920000D02*
X55040000Y-55080000D01*
X55080000Y-44921000D02*
X55080000Y-55079000D01*
X55120000Y-44921000D02*
X55120000Y-55079000D01*
X55160000Y-44923000D02*
X55160000Y-55077000D01*
X55200000Y-44924000D02*
X55200000Y-55076000D01*
X55240000Y-44926000D02*
X55240000Y-55074000D01*
X55280000Y-44928000D02*
X55280000Y-55072000D01*
X55320000Y-44930000D02*
X55320000Y-55070000D01*
X55360000Y-44933000D02*
X55360000Y-55067000D01*
X55400000Y-44936000D02*
X55400000Y-55064000D01*
X55440000Y-44939000D02*
X55440000Y-55061000D01*
X55480000Y-44943000D02*
X55480000Y-55057000D01*
X55520000Y-44946000D02*
X55520000Y-55054000D01*
X55560000Y-44951000D02*
X55560000Y-55049000D01*
X55600000Y-44955000D02*
X55600000Y-55045000D01*
X55640000Y-44960000D02*
X55640000Y-55040000D01*
X55680000Y-44965000D02*
X55680000Y-55035000D01*
X55720000Y-44971000D02*
X55720000Y-55029000D01*
X55760000Y-44977000D02*
X55760000Y-55023000D01*
X55800000Y-44983000D02*
X55800000Y-55017000D01*
X55840000Y-44989000D02*
X55840000Y-55011000D01*
X55880000Y-44996000D02*
X55880000Y-55004000D01*
X55920000Y-45003000D02*
X55920000Y-54997000D01*
X55960000Y-45011000D02*
X55960000Y-54989000D01*
X56000000Y-45019000D02*
X56000000Y-54981000D01*
X56040000Y-45027000D02*
X56040000Y-54973000D01*
X56080000Y-45035000D02*
X56080000Y-54965000D01*
X56120000Y-45044000D02*
X56120000Y-54956000D01*
X56160000Y-45053000D02*
X56160000Y-54947000D01*
X56200000Y-45063000D02*
X56200000Y-54937000D01*
X56240000Y-45072000D02*
X56240000Y-54928000D01*
X56280000Y-45083000D02*
X56280000Y-48760000D01*
X56280000Y-51240000D02*
X56280000Y-54917000D01*
X56320000Y-45093000D02*
X56320000Y-48760000D01*
X56320000Y-51240000D02*
X56320000Y-54907000D01*
X56360000Y-45104000D02*
X56360000Y-48760000D01*
X56360000Y-51240000D02*
X56360000Y-54896000D01*
X56400000Y-45115000D02*
X56400000Y-48760000D01*
X56400000Y-51240000D02*
X56400000Y-54885000D01*
X56440000Y-45127000D02*
X56440000Y-48760000D01*
X56440000Y-51240000D02*
X56440000Y-54873000D01*
X56480000Y-45139000D02*
X56480000Y-48760000D01*
X56480000Y-51240000D02*
X56480000Y-54861000D01*
X56520000Y-45151000D02*
X56520000Y-48760000D01*
X56520000Y-51240000D02*
X56520000Y-54849000D01*
X56560000Y-45163000D02*
X56560000Y-48760000D01*
X56560000Y-51240000D02*
X56560000Y-54837000D01*
X56600000Y-45176000D02*
X56600000Y-48760000D01*
X56600000Y-51240000D02*
X56600000Y-54824000D01*
X56640000Y-45190000D02*
X56640000Y-48760000D01*
X56640000Y-51240000D02*
X56640000Y-54810000D01*
X56680000Y-45203000D02*
X56680000Y-48760000D01*
X56680000Y-51240000D02*
X56680000Y-54797000D01*
X56720000Y-45218000D02*
X56720000Y-48760000D01*
X56720000Y-51240000D02*
X56720000Y-54782000D01*
X56760000Y-45232000D02*
X56760000Y-48760000D01*
X56760000Y-51240000D02*
X56760000Y-54768000D01*
X56800000Y-45247000D02*
X56800000Y-48760000D01*
X56800000Y-51240000D02*
X56800000Y-54753000D01*
X56840000Y-45262000D02*
X56840000Y-48760000D01*
X56840000Y-51240000D02*
X56840000Y-54738000D01*
X56880000Y-45278000D02*
X56880000Y-48760000D01*
X56880000Y-51240000D02*
X56880000Y-54722000D01*
X56920000Y-45294000D02*
X56920000Y-48760000D01*
X56920000Y-51240000D02*
X56920000Y-54706000D01*
X56960000Y-45310000D02*
X56960000Y-48760000D01*
X56960000Y-51240000D02*
X56960000Y-54690000D01*
X57000000Y-45327000D02*
X57000000Y-48760000D01*
X57000000Y-51240000D02*
X57000000Y-54673000D01*
X57040000Y-45344000D02*
X57040000Y-48760000D01*
X57040000Y-51240000D02*
X57040000Y-54656000D01*
X57080000Y-45362000D02*
X57080000Y-48760000D01*
X57080000Y-51240000D02*
X57080000Y-54638000D01*
X57120000Y-45380000D02*
X57120000Y-48760000D01*
X57120000Y-51240000D02*
X57120000Y-54620000D01*
X57160000Y-45398000D02*
X57160000Y-48760000D01*
X57160000Y-51240000D02*
X57160000Y-54602000D01*
X57200000Y-45417000D02*
X57200000Y-48760000D01*
X57200000Y-51240000D02*
X57200000Y-54583000D01*
X57240000Y-45436000D02*
X57240000Y-48760000D01*
X57240000Y-51240000D02*
X57240000Y-54564000D01*
X57280000Y-45456000D02*
X57280000Y-48760000D01*
X57280000Y-51240000D02*
X57280000Y-54544000D01*
X57320000Y-45476000D02*
X57320000Y-48760000D01*
X57320000Y-51240000D02*
X57320000Y-54524000D01*
X57360000Y-45496000D02*
X57360000Y-48760000D01*
X57360000Y-51240000D02*
X57360000Y-54504000D01*
X57400000Y-45517000D02*
X57400000Y-48760000D01*
X57400000Y-51240000D02*
X57400000Y-54483000D01*
X57440000Y-45539000D02*
X57440000Y-48760000D01*
X57440000Y-51240000D02*
X57440000Y-54461000D01*
X57480000Y-45561000D02*
X57480000Y-48760000D01*
X57480000Y-51240000D02*
X57480000Y-54439000D01*
X57520000Y-45583000D02*
X57520000Y-48760000D01*
X57520000Y-51240000D02*
X57520000Y-54417000D01*
X57560000Y-45606000D02*
X57560000Y-48760000D01*
X57560000Y-51240000D02*
X57560000Y-54394000D01*
X57600000Y-45629000D02*
X57600000Y-48760000D01*
X57600000Y-51240000D02*
X57600000Y-54371000D01*
X57640000Y-45653000D02*
X57640000Y-48760000D01*
X57640000Y-51240000D02*
X57640000Y-54347000D01*
X57680000Y-45677000D02*
X57680000Y-48760000D01*
X57680000Y-51240000D02*
X57680000Y-54323000D01*
X57720000Y-45702000D02*
X57720000Y-48760000D01*
X57720000Y-51240000D02*
X57720000Y-54298000D01*
X57760000Y-45728000D02*
X57760000Y-48760000D01*
X57760000Y-51240000D02*
X57760000Y-54272000D01*
X57800000Y-45753000D02*
X57800000Y-48760000D01*
X57800000Y-51240000D02*
X57800000Y-54247000D01*
X57840000Y-45780000D02*
X57840000Y-48760000D01*
X57840000Y-51240000D02*
X57840000Y-54220000D01*
X57880000Y-45807000D02*
X57880000Y-48760000D01*
X57880000Y-51240000D02*
X57880000Y-54193000D01*
X57920000Y-45834000D02*
X57920000Y-48760000D01*
X57920000Y-51240000D02*
X57920000Y-54166000D01*
X57960000Y-45862000D02*
X57960000Y-48760000D01*
X57960000Y-51240000D02*
X57960000Y-54138000D01*
X58000000Y-45891000D02*
X58000000Y-48760000D01*
X58000000Y-51240000D02*
X58000000Y-54109000D01*
X58040000Y-45920000D02*
X58040000Y-48760000D01*
X58040000Y-51240000D02*
X58040000Y-54080000D01*
X58080000Y-45950000D02*
X58080000Y-48760000D01*
X58080000Y-51240000D02*
X58080000Y-54050000D01*
X58120000Y-45980000D02*
X58120000Y-48760000D01*
X58120000Y-51240000D02*
X58120000Y-54020000D01*
X58160000Y-46012000D02*
X58160000Y-48760000D01*
X58160000Y-51240000D02*
X58160000Y-53988000D01*
X58200000Y-46043000D02*
X58200000Y-48760000D01*
X58200000Y-51240000D02*
X58200000Y-53957000D01*
X58240000Y-46076000D02*
X58240000Y-48760000D01*
X58240000Y-51240000D02*
X58240000Y-53924000D01*
X58280000Y-46109000D02*
X58280000Y-48760000D01*
X58280000Y-51240000D02*
X58280000Y-53891000D01*
X58320000Y-46142000D02*
X58320000Y-48760000D01*
X58320000Y-51240000D02*
X58320000Y-53858000D01*
X58360000Y-46177000D02*
X58360000Y-48760000D01*
X58360000Y-51240000D02*
X58360000Y-53823000D01*
X58400000Y-46212000D02*
X58400000Y-48760000D01*
X58400000Y-51240000D02*
X58400000Y-53788000D01*
X58440000Y-46248000D02*
X58440000Y-48760000D01*
X58440000Y-51240000D02*
X58440000Y-53752000D01*
X58480000Y-46284000D02*
X58480000Y-48760000D01*
X58480000Y-51240000D02*
X58480000Y-53716000D01*
X58520000Y-46322000D02*
X58520000Y-48760000D01*
X58520000Y-51240000D02*
X58520000Y-53678000D01*
X58560000Y-46360000D02*
X58560000Y-48760000D01*
X58560000Y-51240000D02*
X58560000Y-53640000D01*
X58600000Y-46399000D02*
X58600000Y-48760000D01*
X58600000Y-51240000D02*
X58600000Y-53601000D01*
X58640000Y-46439000D02*
X58640000Y-48760000D01*
X58640000Y-51240000D02*
X58640000Y-53561000D01*
X58680000Y-46480000D02*
X58680000Y-48760000D01*
X58680000Y-51240000D02*
X58680000Y-53520000D01*
X58720000Y-46522000D02*
X58720000Y-48760000D01*
X58720000Y-51240000D02*
X58720000Y-53478000D01*
X58760000Y-46565000D02*
X58760000Y-53435000D01*
X58800000Y-46609000D02*
X58800000Y-53391000D01*
X58840000Y-46653000D02*
X58840000Y-53347000D01*
X58880000Y-46699000D02*
X58880000Y-53301000D01*
X58920000Y-46746000D02*
X58920000Y-53254000D01*
X58960000Y-46795000D02*
X58960000Y-53205000D01*
X59000000Y-46844000D02*
X59000000Y-53156000D01*
X59040000Y-46895000D02*
X59040000Y-53105000D01*
X59080000Y-46947000D02*
X59080000Y-53053000D01*
X59120000Y-47000000D02*
X59120000Y-53000000D01*
X59160000Y-47055000D02*
X59160000Y-52945000D01*
X59200000Y-47112000D02*
X59200000Y-52888000D01*
X59240000Y-47170000D02*
X59240000Y-52830000D01*
X59280000Y-47230000D02*
X59280000Y-52770000D01*
X59320000Y-47292000D02*
X59320000Y-52708000D01*
X59360000Y-47356000D02*
X59360000Y-52644000D01*
X59400000Y-47422000D02*
X59400000Y-52578000D01*
X59440000Y-47490000D02*
X59440000Y-52510000D01*
X59480000Y-47561000D02*
X59480000Y-52439000D01*
X59520000Y-47635000D02*
X59520000Y-52365000D01*
X59560000Y-47712000D02*
X59560000Y-52288000D01*
X59600000Y-47792000D02*
X59600000Y-52208000D01*
X59640000Y-47876000D02*
X59640000Y-52124000D01*
X59680000Y-47963000D02*
X59680000Y-52037000D01*
X59720000Y-48056000D02*
X59720000Y-51944000D01*
X59760000Y-48154000D02*
X59760000Y-51846000D01*
X59800000Y-48258000D02*
X59800000Y-51742000D01*
X59840000Y-48370000D02*
X59840000Y-51630000D01*
X59880000Y-48491000D02*
X59880000Y-51509000D01*
X59920000Y-48623000D02*
X59920000Y-51377000D01*
X59960000Y-48770000D02*
X59960000Y-51230000D01*
X60000000Y-48938000D02*
X60000000Y-51062000D01*
X60040000Y-49138000D02*
X60040000Y-50862000D01*
X60080000Y-49401000D02*
X60080000Y-50599000D01*
X60120000Y-50000000D02*
G75*
G02*
X49880000Y-50000000I-5120000J0D01*
G01*
X49880000Y-50000000D02*
G75*
G02*
X60120000Y-50000000I5120000J0D01*
G01*
%TO.C,F3*%
D11*
X64903500Y-106444000D02*
X64903500Y-113556000D01*
X64903500Y-113556000D02*
X85096500Y-113556000D01*
X85096500Y-106444000D02*
X64903500Y-106444000D01*
X85096500Y-113556000D02*
X85096500Y-106444000D01*
D14*
X64649500Y-108349000D02*
G75*
G02*
X63887500Y-108349000I-381000J0D01*
G01*
X63887500Y-108349000D02*
G75*
G02*
X64649500Y-108349000I381000J0D01*
G01*
%TO.C,F1*%
D11*
X89903500Y-150519000D02*
X89903500Y-157631000D01*
X89903500Y-157631000D02*
X110096500Y-157631000D01*
X110096500Y-150519000D02*
X89903500Y-150519000D01*
X110096500Y-157631000D02*
X110096500Y-150519000D01*
D14*
X89649500Y-152424000D02*
G75*
G02*
X88887500Y-152424000I-381000J0D01*
G01*
X88887500Y-152424000D02*
G75*
G02*
X89649500Y-152424000I381000J0D01*
G01*
%TO.C,C24*%
D12*
X49520354Y-22125000D02*
X50520354Y-22125000D01*
X50020354Y-21625000D02*
X50020354Y-22625000D01*
X55000000Y-19920000D02*
X55000000Y-30080000D01*
X55040000Y-19920000D02*
X55040000Y-30080000D01*
X55080000Y-19921000D02*
X55080000Y-30079000D01*
X55120000Y-19921000D02*
X55120000Y-30079000D01*
X55160000Y-19923000D02*
X55160000Y-30077000D01*
X55200000Y-19924000D02*
X55200000Y-30076000D01*
X55240000Y-19926000D02*
X55240000Y-30074000D01*
X55280000Y-19928000D02*
X55280000Y-30072000D01*
X55320000Y-19930000D02*
X55320000Y-30070000D01*
X55360000Y-19933000D02*
X55360000Y-30067000D01*
X55400000Y-19936000D02*
X55400000Y-30064000D01*
X55440000Y-19939000D02*
X55440000Y-30061000D01*
X55480000Y-19943000D02*
X55480000Y-30057000D01*
X55520000Y-19946000D02*
X55520000Y-30054000D01*
X55560000Y-19951000D02*
X55560000Y-30049000D01*
X55600000Y-19955000D02*
X55600000Y-30045000D01*
X55640000Y-19960000D02*
X55640000Y-30040000D01*
X55680000Y-19965000D02*
X55680000Y-30035000D01*
X55720000Y-19971000D02*
X55720000Y-30029000D01*
X55760000Y-19977000D02*
X55760000Y-30023000D01*
X55800000Y-19983000D02*
X55800000Y-30017000D01*
X55840000Y-19989000D02*
X55840000Y-30011000D01*
X55880000Y-19996000D02*
X55880000Y-30004000D01*
X55920000Y-20003000D02*
X55920000Y-29997000D01*
X55960000Y-20011000D02*
X55960000Y-29989000D01*
X56000000Y-20019000D02*
X56000000Y-29981000D01*
X56040000Y-20027000D02*
X56040000Y-29973000D01*
X56080000Y-20035000D02*
X56080000Y-29965000D01*
X56120000Y-20044000D02*
X56120000Y-29956000D01*
X56160000Y-20053000D02*
X56160000Y-29947000D01*
X56200000Y-20063000D02*
X56200000Y-29937000D01*
X56240000Y-20072000D02*
X56240000Y-29928000D01*
X56280000Y-20083000D02*
X56280000Y-23760000D01*
X56280000Y-26240000D02*
X56280000Y-29917000D01*
X56320000Y-20093000D02*
X56320000Y-23760000D01*
X56320000Y-26240000D02*
X56320000Y-29907000D01*
X56360000Y-20104000D02*
X56360000Y-23760000D01*
X56360000Y-26240000D02*
X56360000Y-29896000D01*
X56400000Y-20115000D02*
X56400000Y-23760000D01*
X56400000Y-26240000D02*
X56400000Y-29885000D01*
X56440000Y-20127000D02*
X56440000Y-23760000D01*
X56440000Y-26240000D02*
X56440000Y-29873000D01*
X56480000Y-20139000D02*
X56480000Y-23760000D01*
X56480000Y-26240000D02*
X56480000Y-29861000D01*
X56520000Y-20151000D02*
X56520000Y-23760000D01*
X56520000Y-26240000D02*
X56520000Y-29849000D01*
X56560000Y-20163000D02*
X56560000Y-23760000D01*
X56560000Y-26240000D02*
X56560000Y-29837000D01*
X56600000Y-20176000D02*
X56600000Y-23760000D01*
X56600000Y-26240000D02*
X56600000Y-29824000D01*
X56640000Y-20190000D02*
X56640000Y-23760000D01*
X56640000Y-26240000D02*
X56640000Y-29810000D01*
X56680000Y-20203000D02*
X56680000Y-23760000D01*
X56680000Y-26240000D02*
X56680000Y-29797000D01*
X56720000Y-20218000D02*
X56720000Y-23760000D01*
X56720000Y-26240000D02*
X56720000Y-29782000D01*
X56760000Y-20232000D02*
X56760000Y-23760000D01*
X56760000Y-26240000D02*
X56760000Y-29768000D01*
X56800000Y-20247000D02*
X56800000Y-23760000D01*
X56800000Y-26240000D02*
X56800000Y-29753000D01*
X56840000Y-20262000D02*
X56840000Y-23760000D01*
X56840000Y-26240000D02*
X56840000Y-29738000D01*
X56880000Y-20278000D02*
X56880000Y-23760000D01*
X56880000Y-26240000D02*
X56880000Y-29722000D01*
X56920000Y-20294000D02*
X56920000Y-23760000D01*
X56920000Y-26240000D02*
X56920000Y-29706000D01*
X56960000Y-20310000D02*
X56960000Y-23760000D01*
X56960000Y-26240000D02*
X56960000Y-29690000D01*
X57000000Y-20327000D02*
X57000000Y-23760000D01*
X57000000Y-26240000D02*
X57000000Y-29673000D01*
X57040000Y-20344000D02*
X57040000Y-23760000D01*
X57040000Y-26240000D02*
X57040000Y-29656000D01*
X57080000Y-20362000D02*
X57080000Y-23760000D01*
X57080000Y-26240000D02*
X57080000Y-29638000D01*
X57120000Y-20380000D02*
X57120000Y-23760000D01*
X57120000Y-26240000D02*
X57120000Y-29620000D01*
X57160000Y-20398000D02*
X57160000Y-23760000D01*
X57160000Y-26240000D02*
X57160000Y-29602000D01*
X57200000Y-20417000D02*
X57200000Y-23760000D01*
X57200000Y-26240000D02*
X57200000Y-29583000D01*
X57240000Y-20436000D02*
X57240000Y-23760000D01*
X57240000Y-26240000D02*
X57240000Y-29564000D01*
X57280000Y-20456000D02*
X57280000Y-23760000D01*
X57280000Y-26240000D02*
X57280000Y-29544000D01*
X57320000Y-20476000D02*
X57320000Y-23760000D01*
X57320000Y-26240000D02*
X57320000Y-29524000D01*
X57360000Y-20496000D02*
X57360000Y-23760000D01*
X57360000Y-26240000D02*
X57360000Y-29504000D01*
X57400000Y-20517000D02*
X57400000Y-23760000D01*
X57400000Y-26240000D02*
X57400000Y-29483000D01*
X57440000Y-20539000D02*
X57440000Y-23760000D01*
X57440000Y-26240000D02*
X57440000Y-29461000D01*
X57480000Y-20561000D02*
X57480000Y-23760000D01*
X57480000Y-26240000D02*
X57480000Y-29439000D01*
X57520000Y-20583000D02*
X57520000Y-23760000D01*
X57520000Y-26240000D02*
X57520000Y-29417000D01*
X57560000Y-20606000D02*
X57560000Y-23760000D01*
X57560000Y-26240000D02*
X57560000Y-29394000D01*
X57600000Y-20629000D02*
X57600000Y-23760000D01*
X57600000Y-26240000D02*
X57600000Y-29371000D01*
X57640000Y-20653000D02*
X57640000Y-23760000D01*
X57640000Y-26240000D02*
X57640000Y-29347000D01*
X57680000Y-20677000D02*
X57680000Y-23760000D01*
X57680000Y-26240000D02*
X57680000Y-29323000D01*
X57720000Y-20702000D02*
X57720000Y-23760000D01*
X57720000Y-26240000D02*
X57720000Y-29298000D01*
X57760000Y-20728000D02*
X57760000Y-23760000D01*
X57760000Y-26240000D02*
X57760000Y-29272000D01*
X57800000Y-20753000D02*
X57800000Y-23760000D01*
X57800000Y-26240000D02*
X57800000Y-29247000D01*
X57840000Y-20780000D02*
X57840000Y-23760000D01*
X57840000Y-26240000D02*
X57840000Y-29220000D01*
X57880000Y-20807000D02*
X57880000Y-23760000D01*
X57880000Y-26240000D02*
X57880000Y-29193000D01*
X57920000Y-20834000D02*
X57920000Y-23760000D01*
X57920000Y-26240000D02*
X57920000Y-29166000D01*
X57960000Y-20862000D02*
X57960000Y-23760000D01*
X57960000Y-26240000D02*
X57960000Y-29138000D01*
X58000000Y-20891000D02*
X58000000Y-23760000D01*
X58000000Y-26240000D02*
X58000000Y-29109000D01*
X58040000Y-20920000D02*
X58040000Y-23760000D01*
X58040000Y-26240000D02*
X58040000Y-29080000D01*
X58080000Y-20950000D02*
X58080000Y-23760000D01*
X58080000Y-26240000D02*
X58080000Y-29050000D01*
X58120000Y-20980000D02*
X58120000Y-23760000D01*
X58120000Y-26240000D02*
X58120000Y-29020000D01*
X58160000Y-21012000D02*
X58160000Y-23760000D01*
X58160000Y-26240000D02*
X58160000Y-28988000D01*
X58200000Y-21043000D02*
X58200000Y-23760000D01*
X58200000Y-26240000D02*
X58200000Y-28957000D01*
X58240000Y-21076000D02*
X58240000Y-23760000D01*
X58240000Y-26240000D02*
X58240000Y-28924000D01*
X58280000Y-21109000D02*
X58280000Y-23760000D01*
X58280000Y-26240000D02*
X58280000Y-28891000D01*
X58320000Y-21142000D02*
X58320000Y-23760000D01*
X58320000Y-26240000D02*
X58320000Y-28858000D01*
X58360000Y-21177000D02*
X58360000Y-23760000D01*
X58360000Y-26240000D02*
X58360000Y-28823000D01*
X58400000Y-21212000D02*
X58400000Y-23760000D01*
X58400000Y-26240000D02*
X58400000Y-28788000D01*
X58440000Y-21248000D02*
X58440000Y-23760000D01*
X58440000Y-26240000D02*
X58440000Y-28752000D01*
X58480000Y-21284000D02*
X58480000Y-23760000D01*
X58480000Y-26240000D02*
X58480000Y-28716000D01*
X58520000Y-21322000D02*
X58520000Y-23760000D01*
X58520000Y-26240000D02*
X58520000Y-28678000D01*
X58560000Y-21360000D02*
X58560000Y-23760000D01*
X58560000Y-26240000D02*
X58560000Y-28640000D01*
X58600000Y-21399000D02*
X58600000Y-23760000D01*
X58600000Y-26240000D02*
X58600000Y-28601000D01*
X58640000Y-21439000D02*
X58640000Y-23760000D01*
X58640000Y-26240000D02*
X58640000Y-28561000D01*
X58680000Y-21480000D02*
X58680000Y-23760000D01*
X58680000Y-26240000D02*
X58680000Y-28520000D01*
X58720000Y-21522000D02*
X58720000Y-23760000D01*
X58720000Y-26240000D02*
X58720000Y-28478000D01*
X58760000Y-21565000D02*
X58760000Y-28435000D01*
X58800000Y-21609000D02*
X58800000Y-28391000D01*
X58840000Y-21653000D02*
X58840000Y-28347000D01*
X58880000Y-21699000D02*
X58880000Y-28301000D01*
X58920000Y-21746000D02*
X58920000Y-28254000D01*
X58960000Y-21795000D02*
X58960000Y-28205000D01*
X59000000Y-21844000D02*
X59000000Y-28156000D01*
X59040000Y-21895000D02*
X59040000Y-28105000D01*
X59080000Y-21947000D02*
X59080000Y-28053000D01*
X59120000Y-22000000D02*
X59120000Y-28000000D01*
X59160000Y-22055000D02*
X59160000Y-27945000D01*
X59200000Y-22112000D02*
X59200000Y-27888000D01*
X59240000Y-22170000D02*
X59240000Y-27830000D01*
X59280000Y-22230000D02*
X59280000Y-27770000D01*
X59320000Y-22292000D02*
X59320000Y-27708000D01*
X59360000Y-22356000D02*
X59360000Y-27644000D01*
X59400000Y-22422000D02*
X59400000Y-27578000D01*
X59440000Y-22490000D02*
X59440000Y-27510000D01*
X59480000Y-22561000D02*
X59480000Y-27439000D01*
X59520000Y-22635000D02*
X59520000Y-27365000D01*
X59560000Y-22712000D02*
X59560000Y-27288000D01*
X59600000Y-22792000D02*
X59600000Y-27208000D01*
X59640000Y-22876000D02*
X59640000Y-27124000D01*
X59680000Y-22963000D02*
X59680000Y-27037000D01*
X59720000Y-23056000D02*
X59720000Y-26944000D01*
X59760000Y-23154000D02*
X59760000Y-26846000D01*
X59800000Y-23258000D02*
X59800000Y-26742000D01*
X59840000Y-23370000D02*
X59840000Y-26630000D01*
X59880000Y-23491000D02*
X59880000Y-26509000D01*
X59920000Y-23623000D02*
X59920000Y-26377000D01*
X59960000Y-23770000D02*
X59960000Y-26230000D01*
X60000000Y-23938000D02*
X60000000Y-26062000D01*
X60040000Y-24138000D02*
X60040000Y-25862000D01*
X60080000Y-24401000D02*
X60080000Y-25599000D01*
X60120000Y-25000000D02*
G75*
G02*
X49880000Y-25000000I-5120000J0D01*
G01*
X49880000Y-25000000D02*
G75*
G02*
X60120000Y-25000000I5120000J0D01*
G01*
%TO.C,F4*%
D11*
X64903500Y-81444000D02*
X64903500Y-88556000D01*
X64903500Y-88556000D02*
X85096500Y-88556000D01*
X85096500Y-81444000D02*
X64903500Y-81444000D01*
X85096500Y-88556000D02*
X85096500Y-81444000D01*
D14*
X64649500Y-83349000D02*
G75*
G02*
X63887500Y-83349000I-381000J0D01*
G01*
X63887500Y-83349000D02*
G75*
G02*
X64649500Y-83349000I381000J0D01*
G01*
%TO.C,J6*%
D13*
X48750000Y-35500000D02*
X48750000Y-34500000D01*
X49250000Y-35000000D02*
X48250000Y-35000000D01*
X49900000Y-33100000D02*
X49900000Y-36900000D01*
X50600000Y-37600000D02*
X58600000Y-37600000D01*
X58600000Y-32400000D02*
X50600000Y-32400000D01*
X60100000Y-36100000D02*
X60100000Y-33900000D01*
X60750000Y-35000000D02*
X61750000Y-35000000D01*
X49900000Y-33100000D02*
G75*
G02*
X50600000Y-32400000I699999J1D01*
G01*
X50600000Y-37600000D02*
G75*
G02*
X49900000Y-36900000I-1J699999D01*
G01*
X58600000Y-32400000D02*
G75*
G02*
X60100000Y-33900000I-1234300J-2734300D01*
G01*
X60100000Y-36100000D02*
G75*
G02*
X58600000Y-37600000I-2734300J1234300D01*
G01*
%TO.C,R2*%
D12*
X101040000Y-25000000D02*
X101810000Y-25000000D01*
X109120000Y-25000000D02*
X108350000Y-25000000D01*
X101810000Y-23630000D02*
X108350000Y-23630000D01*
X108350000Y-26370000D01*
X101810000Y-26370000D01*
X101810000Y-23630000D01*
%TO.C,F11*%
D11*
X117460000Y-25000000D02*
X118714760Y-25000000D01*
X118095000Y-24365000D02*
X118095000Y-25635000D01*
X118857000Y-19793000D02*
X118857000Y-24412299D01*
X118857000Y-25587701D02*
X118857000Y-30207000D01*
X145273000Y-19793000D02*
X118857000Y-19793000D01*
X145273000Y-19793000D02*
X145273000Y-24412299D01*
X145273000Y-25587701D02*
X145273000Y-30207000D01*
X145273000Y-30207000D02*
X118857000Y-30207000D01*
%TO.C,TP2*%
D12*
X109050000Y-124050000D02*
X110950000Y-124050000D01*
X109050000Y-125950000D02*
X109050000Y-124050000D01*
X110950000Y-124050000D02*
X110950000Y-125950000D01*
X110950000Y-125950000D02*
X109050000Y-125950000D01*
%TO.C,F9*%
D11*
X117460000Y-75000000D02*
X118714760Y-75000000D01*
X118095000Y-74365000D02*
X118095000Y-75635000D01*
X118857000Y-69793000D02*
X118857000Y-74412299D01*
X118857000Y-75587701D02*
X118857000Y-80207000D01*
X145273000Y-69793000D02*
X118857000Y-69793000D01*
X145273000Y-69793000D02*
X145273000Y-74412299D01*
X145273000Y-75587701D02*
X145273000Y-80207000D01*
X145273000Y-80207000D02*
X118857000Y-80207000D01*
%TO.C,J4*%
D13*
X48750000Y-85500000D02*
X48750000Y-84500000D01*
X49250000Y-85000000D02*
X48250000Y-85000000D01*
X49900000Y-83100000D02*
X49900000Y-86900000D01*
X50600000Y-87600000D02*
X58600000Y-87600000D01*
X58600000Y-82400000D02*
X50600000Y-82400000D01*
X60100000Y-86100000D02*
X60100000Y-83900000D01*
X60750000Y-85000000D02*
X61750000Y-85000000D01*
X49900000Y-83100000D02*
G75*
G02*
X50600000Y-82400000I699999J1D01*
G01*
X50600000Y-87600000D02*
G75*
G02*
X49900000Y-86900000I-1J699999D01*
G01*
X58600000Y-82400000D02*
G75*
G02*
X60100000Y-83900000I-1234300J-2734300D01*
G01*
X60100000Y-86100000D02*
G75*
G02*
X58600000Y-87600000I-2734300J1234300D01*
G01*
%TO.C,F5*%
D11*
X64903500Y-56444000D02*
X64903500Y-63556000D01*
X64903500Y-63556000D02*
X85096500Y-63556000D01*
X85096500Y-56444000D02*
X64903500Y-56444000D01*
X85096500Y-63556000D02*
X85096500Y-56444000D01*
D14*
X64649500Y-58349000D02*
G75*
G02*
X63887500Y-58349000I-381000J0D01*
G01*
X63887500Y-58349000D02*
G75*
G02*
X64649500Y-58349000I381000J0D01*
G01*
%TO.C,C10*%
D12*
X104520354Y-69625000D02*
X105520354Y-69625000D01*
X105020354Y-69125000D02*
X105020354Y-70125000D01*
X110000000Y-67420000D02*
X110000000Y-77580000D01*
X110040000Y-67420000D02*
X110040000Y-77580000D01*
X110080000Y-67421000D02*
X110080000Y-77579000D01*
X110120000Y-67421000D02*
X110120000Y-77579000D01*
X110160000Y-67423000D02*
X110160000Y-77577000D01*
X110200000Y-67424000D02*
X110200000Y-77576000D01*
X110240000Y-67426000D02*
X110240000Y-77574000D01*
X110280000Y-67428000D02*
X110280000Y-77572000D01*
X110320000Y-67430000D02*
X110320000Y-77570000D01*
X110360000Y-67433000D02*
X110360000Y-77567000D01*
X110400000Y-67436000D02*
X110400000Y-77564000D01*
X110440000Y-67439000D02*
X110440000Y-77561000D01*
X110480000Y-67443000D02*
X110480000Y-77557000D01*
X110520000Y-67446000D02*
X110520000Y-77554000D01*
X110560000Y-67451000D02*
X110560000Y-77549000D01*
X110600000Y-67455000D02*
X110600000Y-77545000D01*
X110640000Y-67460000D02*
X110640000Y-77540000D01*
X110680000Y-67465000D02*
X110680000Y-77535000D01*
X110720000Y-67471000D02*
X110720000Y-77529000D01*
X110760000Y-67477000D02*
X110760000Y-77523000D01*
X110800000Y-67483000D02*
X110800000Y-77517000D01*
X110840000Y-67489000D02*
X110840000Y-77511000D01*
X110880000Y-67496000D02*
X110880000Y-77504000D01*
X110920000Y-67503000D02*
X110920000Y-77497000D01*
X110960000Y-67511000D02*
X110960000Y-77489000D01*
X111000000Y-67519000D02*
X111000000Y-77481000D01*
X111040000Y-67527000D02*
X111040000Y-77473000D01*
X111080000Y-67535000D02*
X111080000Y-77465000D01*
X111120000Y-67544000D02*
X111120000Y-77456000D01*
X111160000Y-67553000D02*
X111160000Y-77447000D01*
X111200000Y-67563000D02*
X111200000Y-77437000D01*
X111240000Y-67572000D02*
X111240000Y-77428000D01*
X111280000Y-67583000D02*
X111280000Y-71260000D01*
X111280000Y-73740000D02*
X111280000Y-77417000D01*
X111320000Y-67593000D02*
X111320000Y-71260000D01*
X111320000Y-73740000D02*
X111320000Y-77407000D01*
X111360000Y-67604000D02*
X111360000Y-71260000D01*
X111360000Y-73740000D02*
X111360000Y-77396000D01*
X111400000Y-67615000D02*
X111400000Y-71260000D01*
X111400000Y-73740000D02*
X111400000Y-77385000D01*
X111440000Y-67627000D02*
X111440000Y-71260000D01*
X111440000Y-73740000D02*
X111440000Y-77373000D01*
X111480000Y-67639000D02*
X111480000Y-71260000D01*
X111480000Y-73740000D02*
X111480000Y-77361000D01*
X111520000Y-67651000D02*
X111520000Y-71260000D01*
X111520000Y-73740000D02*
X111520000Y-77349000D01*
X111560000Y-67663000D02*
X111560000Y-71260000D01*
X111560000Y-73740000D02*
X111560000Y-77337000D01*
X111600000Y-67676000D02*
X111600000Y-71260000D01*
X111600000Y-73740000D02*
X111600000Y-77324000D01*
X111640000Y-67690000D02*
X111640000Y-71260000D01*
X111640000Y-73740000D02*
X111640000Y-77310000D01*
X111680000Y-67703000D02*
X111680000Y-71260000D01*
X111680000Y-73740000D02*
X111680000Y-77297000D01*
X111720000Y-67718000D02*
X111720000Y-71260000D01*
X111720000Y-73740000D02*
X111720000Y-77282000D01*
X111760000Y-67732000D02*
X111760000Y-71260000D01*
X111760000Y-73740000D02*
X111760000Y-77268000D01*
X111800000Y-67747000D02*
X111800000Y-71260000D01*
X111800000Y-73740000D02*
X111800000Y-77253000D01*
X111840000Y-67762000D02*
X111840000Y-71260000D01*
X111840000Y-73740000D02*
X111840000Y-77238000D01*
X111880000Y-67778000D02*
X111880000Y-71260000D01*
X111880000Y-73740000D02*
X111880000Y-77222000D01*
X111920000Y-67794000D02*
X111920000Y-71260000D01*
X111920000Y-73740000D02*
X111920000Y-77206000D01*
X111960000Y-67810000D02*
X111960000Y-71260000D01*
X111960000Y-73740000D02*
X111960000Y-77190000D01*
X112000000Y-67827000D02*
X112000000Y-71260000D01*
X112000000Y-73740000D02*
X112000000Y-77173000D01*
X112040000Y-67844000D02*
X112040000Y-71260000D01*
X112040000Y-73740000D02*
X112040000Y-77156000D01*
X112080000Y-67862000D02*
X112080000Y-71260000D01*
X112080000Y-73740000D02*
X112080000Y-77138000D01*
X112120000Y-67880000D02*
X112120000Y-71260000D01*
X112120000Y-73740000D02*
X112120000Y-77120000D01*
X112160000Y-67898000D02*
X112160000Y-71260000D01*
X112160000Y-73740000D02*
X112160000Y-77102000D01*
X112200000Y-67917000D02*
X112200000Y-71260000D01*
X112200000Y-73740000D02*
X112200000Y-77083000D01*
X112240000Y-67936000D02*
X112240000Y-71260000D01*
X112240000Y-73740000D02*
X112240000Y-77064000D01*
X112280000Y-67956000D02*
X112280000Y-71260000D01*
X112280000Y-73740000D02*
X112280000Y-77044000D01*
X112320000Y-67976000D02*
X112320000Y-71260000D01*
X112320000Y-73740000D02*
X112320000Y-77024000D01*
X112360000Y-67996000D02*
X112360000Y-71260000D01*
X112360000Y-73740000D02*
X112360000Y-77004000D01*
X112400000Y-68017000D02*
X112400000Y-71260000D01*
X112400000Y-73740000D02*
X112400000Y-76983000D01*
X112440000Y-68039000D02*
X112440000Y-71260000D01*
X112440000Y-73740000D02*
X112440000Y-76961000D01*
X112480000Y-68061000D02*
X112480000Y-71260000D01*
X112480000Y-73740000D02*
X112480000Y-76939000D01*
X112520000Y-68083000D02*
X112520000Y-71260000D01*
X112520000Y-73740000D02*
X112520000Y-76917000D01*
X112560000Y-68106000D02*
X112560000Y-71260000D01*
X112560000Y-73740000D02*
X112560000Y-76894000D01*
X112600000Y-68129000D02*
X112600000Y-71260000D01*
X112600000Y-73740000D02*
X112600000Y-76871000D01*
X112640000Y-68153000D02*
X112640000Y-71260000D01*
X112640000Y-73740000D02*
X112640000Y-76847000D01*
X112680000Y-68177000D02*
X112680000Y-71260000D01*
X112680000Y-73740000D02*
X112680000Y-76823000D01*
X112720000Y-68202000D02*
X112720000Y-71260000D01*
X112720000Y-73740000D02*
X112720000Y-76798000D01*
X112760000Y-68228000D02*
X112760000Y-71260000D01*
X112760000Y-73740000D02*
X112760000Y-76772000D01*
X112800000Y-68253000D02*
X112800000Y-71260000D01*
X112800000Y-73740000D02*
X112800000Y-76747000D01*
X112840000Y-68280000D02*
X112840000Y-71260000D01*
X112840000Y-73740000D02*
X112840000Y-76720000D01*
X112880000Y-68307000D02*
X112880000Y-71260000D01*
X112880000Y-73740000D02*
X112880000Y-76693000D01*
X112920000Y-68334000D02*
X112920000Y-71260000D01*
X112920000Y-73740000D02*
X112920000Y-76666000D01*
X112960000Y-68362000D02*
X112960000Y-71260000D01*
X112960000Y-73740000D02*
X112960000Y-76638000D01*
X113000000Y-68391000D02*
X113000000Y-71260000D01*
X113000000Y-73740000D02*
X113000000Y-76609000D01*
X113040000Y-68420000D02*
X113040000Y-71260000D01*
X113040000Y-73740000D02*
X113040000Y-76580000D01*
X113080000Y-68450000D02*
X113080000Y-71260000D01*
X113080000Y-73740000D02*
X113080000Y-76550000D01*
X113120000Y-68480000D02*
X113120000Y-71260000D01*
X113120000Y-73740000D02*
X113120000Y-76520000D01*
X113160000Y-68512000D02*
X113160000Y-71260000D01*
X113160000Y-73740000D02*
X113160000Y-76488000D01*
X113200000Y-68543000D02*
X113200000Y-71260000D01*
X113200000Y-73740000D02*
X113200000Y-76457000D01*
X113240000Y-68576000D02*
X113240000Y-71260000D01*
X113240000Y-73740000D02*
X113240000Y-76424000D01*
X113280000Y-68609000D02*
X113280000Y-71260000D01*
X113280000Y-73740000D02*
X113280000Y-76391000D01*
X113320000Y-68642000D02*
X113320000Y-71260000D01*
X113320000Y-73740000D02*
X113320000Y-76358000D01*
X113360000Y-68677000D02*
X113360000Y-71260000D01*
X113360000Y-73740000D02*
X113360000Y-76323000D01*
X113400000Y-68712000D02*
X113400000Y-71260000D01*
X113400000Y-73740000D02*
X113400000Y-76288000D01*
X113440000Y-68748000D02*
X113440000Y-71260000D01*
X113440000Y-73740000D02*
X113440000Y-76252000D01*
X113480000Y-68784000D02*
X113480000Y-71260000D01*
X113480000Y-73740000D02*
X113480000Y-76216000D01*
X113520000Y-68822000D02*
X113520000Y-71260000D01*
X113520000Y-73740000D02*
X113520000Y-76178000D01*
X113560000Y-68860000D02*
X113560000Y-71260000D01*
X113560000Y-73740000D02*
X113560000Y-76140000D01*
X113600000Y-68899000D02*
X113600000Y-71260000D01*
X113600000Y-73740000D02*
X113600000Y-76101000D01*
X113640000Y-68939000D02*
X113640000Y-71260000D01*
X113640000Y-73740000D02*
X113640000Y-76061000D01*
X113680000Y-68980000D02*
X113680000Y-71260000D01*
X113680000Y-73740000D02*
X113680000Y-76020000D01*
X113720000Y-69022000D02*
X113720000Y-71260000D01*
X113720000Y-73740000D02*
X113720000Y-75978000D01*
X113760000Y-69065000D02*
X113760000Y-75935000D01*
X113800000Y-69109000D02*
X113800000Y-75891000D01*
X113840000Y-69153000D02*
X113840000Y-75847000D01*
X113880000Y-69199000D02*
X113880000Y-75801000D01*
X113920000Y-69246000D02*
X113920000Y-75754000D01*
X113960000Y-69295000D02*
X113960000Y-75705000D01*
X114000000Y-69344000D02*
X114000000Y-75656000D01*
X114040000Y-69395000D02*
X114040000Y-75605000D01*
X114080000Y-69447000D02*
X114080000Y-75553000D01*
X114120000Y-69500000D02*
X114120000Y-75500000D01*
X114160000Y-69555000D02*
X114160000Y-75445000D01*
X114200000Y-69612000D02*
X114200000Y-75388000D01*
X114240000Y-69670000D02*
X114240000Y-75330000D01*
X114280000Y-69730000D02*
X114280000Y-75270000D01*
X114320000Y-69792000D02*
X114320000Y-75208000D01*
X114360000Y-69856000D02*
X114360000Y-75144000D01*
X114400000Y-69922000D02*
X114400000Y-75078000D01*
X114440000Y-69990000D02*
X114440000Y-75010000D01*
X114480000Y-70061000D02*
X114480000Y-74939000D01*
X114520000Y-70135000D02*
X114520000Y-74865000D01*
X114560000Y-70212000D02*
X114560000Y-74788000D01*
X114600000Y-70292000D02*
X114600000Y-74708000D01*
X114640000Y-70376000D02*
X114640000Y-74624000D01*
X114680000Y-70463000D02*
X114680000Y-74537000D01*
X114720000Y-70556000D02*
X114720000Y-74444000D01*
X114760000Y-70654000D02*
X114760000Y-74346000D01*
X114800000Y-70758000D02*
X114800000Y-74242000D01*
X114840000Y-70870000D02*
X114840000Y-74130000D01*
X114880000Y-70991000D02*
X114880000Y-74009000D01*
X114920000Y-71123000D02*
X114920000Y-73877000D01*
X114960000Y-71270000D02*
X114960000Y-73730000D01*
X115000000Y-71438000D02*
X115000000Y-73562000D01*
X115040000Y-71638000D02*
X115040000Y-73362000D01*
X115080000Y-71901000D02*
X115080000Y-73099000D01*
X115120000Y-72500000D02*
G75*
G02*
X104880000Y-72500000I-5120000J0D01*
G01*
X104880000Y-72500000D02*
G75*
G02*
X115120000Y-72500000I5120000J0D01*
G01*
%TO.C,J2*%
D13*
X48750000Y-135500000D02*
X48750000Y-134500000D01*
X49250000Y-135000000D02*
X48250000Y-135000000D01*
X49900000Y-133100000D02*
X49900000Y-136900000D01*
X50600000Y-137600000D02*
X58600000Y-137600000D01*
X58600000Y-132400000D02*
X50600000Y-132400000D01*
X60100000Y-136100000D02*
X60100000Y-133900000D01*
X60750000Y-135000000D02*
X61750000Y-135000000D01*
X49900000Y-133100000D02*
G75*
G02*
X50600000Y-132400000I699999J1D01*
G01*
X50600000Y-137600000D02*
G75*
G02*
X49900000Y-136900000I-1J699999D01*
G01*
X58600000Y-132400000D02*
G75*
G02*
X60100000Y-133900000I-1234300J-2734300D01*
G01*
X60100000Y-136100000D02*
G75*
G02*
X58600000Y-137600000I-2734300J1234300D01*
G01*
%TO.C,J11*%
X126250000Y-35500000D02*
X126250000Y-34500000D01*
X126750000Y-35000000D02*
X125750000Y-35000000D01*
X127400000Y-33100000D02*
X127400000Y-36900000D01*
X128100000Y-37600000D02*
X136100000Y-37600000D01*
X136100000Y-32400000D02*
X128100000Y-32400000D01*
X137600000Y-36100000D02*
X137600000Y-33900000D01*
X138250000Y-35000000D02*
X139250000Y-35000000D01*
X127400000Y-33100000D02*
G75*
G02*
X128100000Y-32400000I699999J1D01*
G01*
X128100000Y-37600000D02*
G75*
G02*
X127400000Y-36900000I-1J699999D01*
G01*
X136100000Y-32400000D02*
G75*
G02*
X137600000Y-33900000I-1234300J-2734300D01*
G01*
X137600000Y-36100000D02*
G75*
G02*
X136100000Y-37600000I-2734300J1234300D01*
G01*
%TO.C,C4*%
D12*
X113180000Y-164605000D02*
X118120000Y-164605000D01*
X113180000Y-164935000D02*
X113180000Y-164605000D01*
X113180000Y-167345000D02*
X113180000Y-167015000D01*
X118120000Y-164605000D02*
X118120000Y-164935000D01*
X118120000Y-167015000D02*
X118120000Y-167345000D01*
X118120000Y-167345000D02*
X113180000Y-167345000D01*
%TO.C,C16*%
X49520354Y-72125000D02*
X50520354Y-72125000D01*
X50020354Y-71625000D02*
X50020354Y-72625000D01*
X55000000Y-69920000D02*
X55000000Y-80080000D01*
X55040000Y-69920000D02*
X55040000Y-80080000D01*
X55080000Y-69921000D02*
X55080000Y-80079000D01*
X55120000Y-69921000D02*
X55120000Y-80079000D01*
X55160000Y-69923000D02*
X55160000Y-80077000D01*
X55200000Y-69924000D02*
X55200000Y-80076000D01*
X55240000Y-69926000D02*
X55240000Y-80074000D01*
X55280000Y-69928000D02*
X55280000Y-80072000D01*
X55320000Y-69930000D02*
X55320000Y-80070000D01*
X55360000Y-69933000D02*
X55360000Y-80067000D01*
X55400000Y-69936000D02*
X55400000Y-80064000D01*
X55440000Y-69939000D02*
X55440000Y-80061000D01*
X55480000Y-69943000D02*
X55480000Y-80057000D01*
X55520000Y-69946000D02*
X55520000Y-80054000D01*
X55560000Y-69951000D02*
X55560000Y-80049000D01*
X55600000Y-69955000D02*
X55600000Y-80045000D01*
X55640000Y-69960000D02*
X55640000Y-80040000D01*
X55680000Y-69965000D02*
X55680000Y-80035000D01*
X55720000Y-69971000D02*
X55720000Y-80029000D01*
X55760000Y-69977000D02*
X55760000Y-80023000D01*
X55800000Y-69983000D02*
X55800000Y-80017000D01*
X55840000Y-69989000D02*
X55840000Y-80011000D01*
X55880000Y-69996000D02*
X55880000Y-80004000D01*
X55920000Y-70003000D02*
X55920000Y-79997000D01*
X55960000Y-70011000D02*
X55960000Y-79989000D01*
X56000000Y-70019000D02*
X56000000Y-79981000D01*
X56040000Y-70027000D02*
X56040000Y-79973000D01*
X56080000Y-70035000D02*
X56080000Y-79965000D01*
X56120000Y-70044000D02*
X56120000Y-79956000D01*
X56160000Y-70053000D02*
X56160000Y-79947000D01*
X56200000Y-70063000D02*
X56200000Y-79937000D01*
X56240000Y-70072000D02*
X56240000Y-79928000D01*
X56280000Y-70083000D02*
X56280000Y-73760000D01*
X56280000Y-76240000D02*
X56280000Y-79917000D01*
X56320000Y-70093000D02*
X56320000Y-73760000D01*
X56320000Y-76240000D02*
X56320000Y-79907000D01*
X56360000Y-70104000D02*
X56360000Y-73760000D01*
X56360000Y-76240000D02*
X56360000Y-79896000D01*
X56400000Y-70115000D02*
X56400000Y-73760000D01*
X56400000Y-76240000D02*
X56400000Y-79885000D01*
X56440000Y-70127000D02*
X56440000Y-73760000D01*
X56440000Y-76240000D02*
X56440000Y-79873000D01*
X56480000Y-70139000D02*
X56480000Y-73760000D01*
X56480000Y-76240000D02*
X56480000Y-79861000D01*
X56520000Y-70151000D02*
X56520000Y-73760000D01*
X56520000Y-76240000D02*
X56520000Y-79849000D01*
X56560000Y-70163000D02*
X56560000Y-73760000D01*
X56560000Y-76240000D02*
X56560000Y-79837000D01*
X56600000Y-70176000D02*
X56600000Y-73760000D01*
X56600000Y-76240000D02*
X56600000Y-79824000D01*
X56640000Y-70190000D02*
X56640000Y-73760000D01*
X56640000Y-76240000D02*
X56640000Y-79810000D01*
X56680000Y-70203000D02*
X56680000Y-73760000D01*
X56680000Y-76240000D02*
X56680000Y-79797000D01*
X56720000Y-70218000D02*
X56720000Y-73760000D01*
X56720000Y-76240000D02*
X56720000Y-79782000D01*
X56760000Y-70232000D02*
X56760000Y-73760000D01*
X56760000Y-76240000D02*
X56760000Y-79768000D01*
X56800000Y-70247000D02*
X56800000Y-73760000D01*
X56800000Y-76240000D02*
X56800000Y-79753000D01*
X56840000Y-70262000D02*
X56840000Y-73760000D01*
X56840000Y-76240000D02*
X56840000Y-79738000D01*
X56880000Y-70278000D02*
X56880000Y-73760000D01*
X56880000Y-76240000D02*
X56880000Y-79722000D01*
X56920000Y-70294000D02*
X56920000Y-73760000D01*
X56920000Y-76240000D02*
X56920000Y-79706000D01*
X56960000Y-70310000D02*
X56960000Y-73760000D01*
X56960000Y-76240000D02*
X56960000Y-79690000D01*
X57000000Y-70327000D02*
X57000000Y-73760000D01*
X57000000Y-76240000D02*
X57000000Y-79673000D01*
X57040000Y-70344000D02*
X57040000Y-73760000D01*
X57040000Y-76240000D02*
X57040000Y-79656000D01*
X57080000Y-70362000D02*
X57080000Y-73760000D01*
X57080000Y-76240000D02*
X57080000Y-79638000D01*
X57120000Y-70380000D02*
X57120000Y-73760000D01*
X57120000Y-76240000D02*
X57120000Y-79620000D01*
X57160000Y-70398000D02*
X57160000Y-73760000D01*
X57160000Y-76240000D02*
X57160000Y-79602000D01*
X57200000Y-70417000D02*
X57200000Y-73760000D01*
X57200000Y-76240000D02*
X57200000Y-79583000D01*
X57240000Y-70436000D02*
X57240000Y-73760000D01*
X57240000Y-76240000D02*
X57240000Y-79564000D01*
X57280000Y-70456000D02*
X57280000Y-73760000D01*
X57280000Y-76240000D02*
X57280000Y-79544000D01*
X57320000Y-70476000D02*
X57320000Y-73760000D01*
X57320000Y-76240000D02*
X57320000Y-79524000D01*
X57360000Y-70496000D02*
X57360000Y-73760000D01*
X57360000Y-76240000D02*
X57360000Y-79504000D01*
X57400000Y-70517000D02*
X57400000Y-73760000D01*
X57400000Y-76240000D02*
X57400000Y-79483000D01*
X57440000Y-70539000D02*
X57440000Y-73760000D01*
X57440000Y-76240000D02*
X57440000Y-79461000D01*
X57480000Y-70561000D02*
X57480000Y-73760000D01*
X57480000Y-76240000D02*
X57480000Y-79439000D01*
X57520000Y-70583000D02*
X57520000Y-73760000D01*
X57520000Y-76240000D02*
X57520000Y-79417000D01*
X57560000Y-70606000D02*
X57560000Y-73760000D01*
X57560000Y-76240000D02*
X57560000Y-79394000D01*
X57600000Y-70629000D02*
X57600000Y-73760000D01*
X57600000Y-76240000D02*
X57600000Y-79371000D01*
X57640000Y-70653000D02*
X57640000Y-73760000D01*
X57640000Y-76240000D02*
X57640000Y-79347000D01*
X57680000Y-70677000D02*
X57680000Y-73760000D01*
X57680000Y-76240000D02*
X57680000Y-79323000D01*
X57720000Y-70702000D02*
X57720000Y-73760000D01*
X57720000Y-76240000D02*
X57720000Y-79298000D01*
X57760000Y-70728000D02*
X57760000Y-73760000D01*
X57760000Y-76240000D02*
X57760000Y-79272000D01*
X57800000Y-70753000D02*
X57800000Y-73760000D01*
X57800000Y-76240000D02*
X57800000Y-79247000D01*
X57840000Y-70780000D02*
X57840000Y-73760000D01*
X57840000Y-76240000D02*
X57840000Y-79220000D01*
X57880000Y-70807000D02*
X57880000Y-73760000D01*
X57880000Y-76240000D02*
X57880000Y-79193000D01*
X57920000Y-70834000D02*
X57920000Y-73760000D01*
X57920000Y-76240000D02*
X57920000Y-79166000D01*
X57960000Y-70862000D02*
X57960000Y-73760000D01*
X57960000Y-76240000D02*
X57960000Y-79138000D01*
X58000000Y-70891000D02*
X58000000Y-73760000D01*
X58000000Y-76240000D02*
X58000000Y-79109000D01*
X58040000Y-70920000D02*
X58040000Y-73760000D01*
X58040000Y-76240000D02*
X58040000Y-79080000D01*
X58080000Y-70950000D02*
X58080000Y-73760000D01*
X58080000Y-76240000D02*
X58080000Y-79050000D01*
X58120000Y-70980000D02*
X58120000Y-73760000D01*
X58120000Y-76240000D02*
X58120000Y-79020000D01*
X58160000Y-71012000D02*
X58160000Y-73760000D01*
X58160000Y-76240000D02*
X58160000Y-78988000D01*
X58200000Y-71043000D02*
X58200000Y-73760000D01*
X58200000Y-76240000D02*
X58200000Y-78957000D01*
X58240000Y-71076000D02*
X58240000Y-73760000D01*
X58240000Y-76240000D02*
X58240000Y-78924000D01*
X58280000Y-71109000D02*
X58280000Y-73760000D01*
X58280000Y-76240000D02*
X58280000Y-78891000D01*
X58320000Y-71142000D02*
X58320000Y-73760000D01*
X58320000Y-76240000D02*
X58320000Y-78858000D01*
X58360000Y-71177000D02*
X58360000Y-73760000D01*
X58360000Y-76240000D02*
X58360000Y-78823000D01*
X58400000Y-71212000D02*
X58400000Y-73760000D01*
X58400000Y-76240000D02*
X58400000Y-78788000D01*
X58440000Y-71248000D02*
X58440000Y-73760000D01*
X58440000Y-76240000D02*
X58440000Y-78752000D01*
X58480000Y-71284000D02*
X58480000Y-73760000D01*
X58480000Y-76240000D02*
X58480000Y-78716000D01*
X58520000Y-71322000D02*
X58520000Y-73760000D01*
X58520000Y-76240000D02*
X58520000Y-78678000D01*
X58560000Y-71360000D02*
X58560000Y-73760000D01*
X58560000Y-76240000D02*
X58560000Y-78640000D01*
X58600000Y-71399000D02*
X58600000Y-73760000D01*
X58600000Y-76240000D02*
X58600000Y-78601000D01*
X58640000Y-71439000D02*
X58640000Y-73760000D01*
X58640000Y-76240000D02*
X58640000Y-78561000D01*
X58680000Y-71480000D02*
X58680000Y-73760000D01*
X58680000Y-76240000D02*
X58680000Y-78520000D01*
X58720000Y-71522000D02*
X58720000Y-73760000D01*
X58720000Y-76240000D02*
X58720000Y-78478000D01*
X58760000Y-71565000D02*
X58760000Y-78435000D01*
X58800000Y-71609000D02*
X58800000Y-78391000D01*
X58840000Y-71653000D02*
X58840000Y-78347000D01*
X58880000Y-71699000D02*
X58880000Y-78301000D01*
X58920000Y-71746000D02*
X58920000Y-78254000D01*
X58960000Y-71795000D02*
X58960000Y-78205000D01*
X59000000Y-71844000D02*
X59000000Y-78156000D01*
X59040000Y-71895000D02*
X59040000Y-78105000D01*
X59080000Y-71947000D02*
X59080000Y-78053000D01*
X59120000Y-72000000D02*
X59120000Y-78000000D01*
X59160000Y-72055000D02*
X59160000Y-77945000D01*
X59200000Y-72112000D02*
X59200000Y-77888000D01*
X59240000Y-72170000D02*
X59240000Y-77830000D01*
X59280000Y-72230000D02*
X59280000Y-77770000D01*
X59320000Y-72292000D02*
X59320000Y-77708000D01*
X59360000Y-72356000D02*
X59360000Y-77644000D01*
X59400000Y-72422000D02*
X59400000Y-77578000D01*
X59440000Y-72490000D02*
X59440000Y-77510000D01*
X59480000Y-72561000D02*
X59480000Y-77439000D01*
X59520000Y-72635000D02*
X59520000Y-77365000D01*
X59560000Y-72712000D02*
X59560000Y-77288000D01*
X59600000Y-72792000D02*
X59600000Y-77208000D01*
X59640000Y-72876000D02*
X59640000Y-77124000D01*
X59680000Y-72963000D02*
X59680000Y-77037000D01*
X59720000Y-73056000D02*
X59720000Y-76944000D01*
X59760000Y-73154000D02*
X59760000Y-76846000D01*
X59800000Y-73258000D02*
X59800000Y-76742000D01*
X59840000Y-73370000D02*
X59840000Y-76630000D01*
X59880000Y-73491000D02*
X59880000Y-76509000D01*
X59920000Y-73623000D02*
X59920000Y-76377000D01*
X59960000Y-73770000D02*
X59960000Y-76230000D01*
X60000000Y-73938000D02*
X60000000Y-76062000D01*
X60040000Y-74138000D02*
X60040000Y-75862000D01*
X60080000Y-74401000D02*
X60080000Y-75599000D01*
X60120000Y-75000000D02*
G75*
G02*
X49880000Y-75000000I-5120000J0D01*
G01*
X49880000Y-75000000D02*
G75*
G02*
X60120000Y-75000000I5120000J0D01*
G01*
%TO.C,C5*%
X49520354Y-122125000D02*
X50520354Y-122125000D01*
X50020354Y-121625000D02*
X50020354Y-122625000D01*
X55000000Y-119920000D02*
X55000000Y-130080000D01*
X55040000Y-119920000D02*
X55040000Y-130080000D01*
X55080000Y-119921000D02*
X55080000Y-130079000D01*
X55120000Y-119921000D02*
X55120000Y-130079000D01*
X55160000Y-119923000D02*
X55160000Y-130077000D01*
X55200000Y-119924000D02*
X55200000Y-130076000D01*
X55240000Y-119926000D02*
X55240000Y-130074000D01*
X55280000Y-119928000D02*
X55280000Y-130072000D01*
X55320000Y-119930000D02*
X55320000Y-130070000D01*
X55360000Y-119933000D02*
X55360000Y-130067000D01*
X55400000Y-119936000D02*
X55400000Y-130064000D01*
X55440000Y-119939000D02*
X55440000Y-130061000D01*
X55480000Y-119943000D02*
X55480000Y-130057000D01*
X55520000Y-119946000D02*
X55520000Y-130054000D01*
X55560000Y-119951000D02*
X55560000Y-130049000D01*
X55600000Y-119955000D02*
X55600000Y-130045000D01*
X55640000Y-119960000D02*
X55640000Y-130040000D01*
X55680000Y-119965000D02*
X55680000Y-130035000D01*
X55720000Y-119971000D02*
X55720000Y-130029000D01*
X55760000Y-119977000D02*
X55760000Y-130023000D01*
X55800000Y-119983000D02*
X55800000Y-130017000D01*
X55840000Y-119989000D02*
X55840000Y-130011000D01*
X55880000Y-119996000D02*
X55880000Y-130004000D01*
X55920000Y-120003000D02*
X55920000Y-129997000D01*
X55960000Y-120011000D02*
X55960000Y-129989000D01*
X56000000Y-120019000D02*
X56000000Y-129981000D01*
X56040000Y-120027000D02*
X56040000Y-129973000D01*
X56080000Y-120035000D02*
X56080000Y-129965000D01*
X56120000Y-120044000D02*
X56120000Y-129956000D01*
X56160000Y-120053000D02*
X56160000Y-129947000D01*
X56200000Y-120063000D02*
X56200000Y-129937000D01*
X56240000Y-120072000D02*
X56240000Y-129928000D01*
X56280000Y-120083000D02*
X56280000Y-123760000D01*
X56280000Y-126240000D02*
X56280000Y-129917000D01*
X56320000Y-120093000D02*
X56320000Y-123760000D01*
X56320000Y-126240000D02*
X56320000Y-129907000D01*
X56360000Y-120104000D02*
X56360000Y-123760000D01*
X56360000Y-126240000D02*
X56360000Y-129896000D01*
X56400000Y-120115000D02*
X56400000Y-123760000D01*
X56400000Y-126240000D02*
X56400000Y-129885000D01*
X56440000Y-120127000D02*
X56440000Y-123760000D01*
X56440000Y-126240000D02*
X56440000Y-129873000D01*
X56480000Y-120139000D02*
X56480000Y-123760000D01*
X56480000Y-126240000D02*
X56480000Y-129861000D01*
X56520000Y-120151000D02*
X56520000Y-123760000D01*
X56520000Y-126240000D02*
X56520000Y-129849000D01*
X56560000Y-120163000D02*
X56560000Y-123760000D01*
X56560000Y-126240000D02*
X56560000Y-129837000D01*
X56600000Y-120176000D02*
X56600000Y-123760000D01*
X56600000Y-126240000D02*
X56600000Y-129824000D01*
X56640000Y-120190000D02*
X56640000Y-123760000D01*
X56640000Y-126240000D02*
X56640000Y-129810000D01*
X56680000Y-120203000D02*
X56680000Y-123760000D01*
X56680000Y-126240000D02*
X56680000Y-129797000D01*
X56720000Y-120218000D02*
X56720000Y-123760000D01*
X56720000Y-126240000D02*
X56720000Y-129782000D01*
X56760000Y-120232000D02*
X56760000Y-123760000D01*
X56760000Y-126240000D02*
X56760000Y-129768000D01*
X56800000Y-120247000D02*
X56800000Y-123760000D01*
X56800000Y-126240000D02*
X56800000Y-129753000D01*
X56840000Y-120262000D02*
X56840000Y-123760000D01*
X56840000Y-126240000D02*
X56840000Y-129738000D01*
X56880000Y-120278000D02*
X56880000Y-123760000D01*
X56880000Y-126240000D02*
X56880000Y-129722000D01*
X56920000Y-120294000D02*
X56920000Y-123760000D01*
X56920000Y-126240000D02*
X56920000Y-129706000D01*
X56960000Y-120310000D02*
X56960000Y-123760000D01*
X56960000Y-126240000D02*
X56960000Y-129690000D01*
X57000000Y-120327000D02*
X57000000Y-123760000D01*
X57000000Y-126240000D02*
X57000000Y-129673000D01*
X57040000Y-120344000D02*
X57040000Y-123760000D01*
X57040000Y-126240000D02*
X57040000Y-129656000D01*
X57080000Y-120362000D02*
X57080000Y-123760000D01*
X57080000Y-126240000D02*
X57080000Y-129638000D01*
X57120000Y-120380000D02*
X57120000Y-123760000D01*
X57120000Y-126240000D02*
X57120000Y-129620000D01*
X57160000Y-120398000D02*
X57160000Y-123760000D01*
X57160000Y-126240000D02*
X57160000Y-129602000D01*
X57200000Y-120417000D02*
X57200000Y-123760000D01*
X57200000Y-126240000D02*
X57200000Y-129583000D01*
X57240000Y-120436000D02*
X57240000Y-123760000D01*
X57240000Y-126240000D02*
X57240000Y-129564000D01*
X57280000Y-120456000D02*
X57280000Y-123760000D01*
X57280000Y-126240000D02*
X57280000Y-129544000D01*
X57320000Y-120476000D02*
X57320000Y-123760000D01*
X57320000Y-126240000D02*
X57320000Y-129524000D01*
X57360000Y-120496000D02*
X57360000Y-123760000D01*
X57360000Y-126240000D02*
X57360000Y-129504000D01*
X57400000Y-120517000D02*
X57400000Y-123760000D01*
X57400000Y-126240000D02*
X57400000Y-129483000D01*
X57440000Y-120539000D02*
X57440000Y-123760000D01*
X57440000Y-126240000D02*
X57440000Y-129461000D01*
X57480000Y-120561000D02*
X57480000Y-123760000D01*
X57480000Y-126240000D02*
X57480000Y-129439000D01*
X57520000Y-120583000D02*
X57520000Y-123760000D01*
X57520000Y-126240000D02*
X57520000Y-129417000D01*
X57560000Y-120606000D02*
X57560000Y-123760000D01*
X57560000Y-126240000D02*
X57560000Y-129394000D01*
X57600000Y-120629000D02*
X57600000Y-123760000D01*
X57600000Y-126240000D02*
X57600000Y-129371000D01*
X57640000Y-120653000D02*
X57640000Y-123760000D01*
X57640000Y-126240000D02*
X57640000Y-129347000D01*
X57680000Y-120677000D02*
X57680000Y-123760000D01*
X57680000Y-126240000D02*
X57680000Y-129323000D01*
X57720000Y-120702000D02*
X57720000Y-123760000D01*
X57720000Y-126240000D02*
X57720000Y-129298000D01*
X57760000Y-120728000D02*
X57760000Y-123760000D01*
X57760000Y-126240000D02*
X57760000Y-129272000D01*
X57800000Y-120753000D02*
X57800000Y-123760000D01*
X57800000Y-126240000D02*
X57800000Y-129247000D01*
X57840000Y-120780000D02*
X57840000Y-123760000D01*
X57840000Y-126240000D02*
X57840000Y-129220000D01*
X57880000Y-120807000D02*
X57880000Y-123760000D01*
X57880000Y-126240000D02*
X57880000Y-129193000D01*
X57920000Y-120834000D02*
X57920000Y-123760000D01*
X57920000Y-126240000D02*
X57920000Y-129166000D01*
X57960000Y-120862000D02*
X57960000Y-123760000D01*
X57960000Y-126240000D02*
X57960000Y-129138000D01*
X58000000Y-120891000D02*
X58000000Y-123760000D01*
X58000000Y-126240000D02*
X58000000Y-129109000D01*
X58040000Y-120920000D02*
X58040000Y-123760000D01*
X58040000Y-126240000D02*
X58040000Y-129080000D01*
X58080000Y-120950000D02*
X58080000Y-123760000D01*
X58080000Y-126240000D02*
X58080000Y-129050000D01*
X58120000Y-120980000D02*
X58120000Y-123760000D01*
X58120000Y-126240000D02*
X58120000Y-129020000D01*
X58160000Y-121012000D02*
X58160000Y-123760000D01*
X58160000Y-126240000D02*
X58160000Y-128988000D01*
X58200000Y-121043000D02*
X58200000Y-123760000D01*
X58200000Y-126240000D02*
X58200000Y-128957000D01*
X58240000Y-121076000D02*
X58240000Y-123760000D01*
X58240000Y-126240000D02*
X58240000Y-128924000D01*
X58280000Y-121109000D02*
X58280000Y-123760000D01*
X58280000Y-126240000D02*
X58280000Y-128891000D01*
X58320000Y-121142000D02*
X58320000Y-123760000D01*
X58320000Y-126240000D02*
X58320000Y-128858000D01*
X58360000Y-121177000D02*
X58360000Y-123760000D01*
X58360000Y-126240000D02*
X58360000Y-128823000D01*
X58400000Y-121212000D02*
X58400000Y-123760000D01*
X58400000Y-126240000D02*
X58400000Y-128788000D01*
X58440000Y-121248000D02*
X58440000Y-123760000D01*
X58440000Y-126240000D02*
X58440000Y-128752000D01*
X58480000Y-121284000D02*
X58480000Y-123760000D01*
X58480000Y-126240000D02*
X58480000Y-128716000D01*
X58520000Y-121322000D02*
X58520000Y-123760000D01*
X58520000Y-126240000D02*
X58520000Y-128678000D01*
X58560000Y-121360000D02*
X58560000Y-123760000D01*
X58560000Y-126240000D02*
X58560000Y-128640000D01*
X58600000Y-121399000D02*
X58600000Y-123760000D01*
X58600000Y-126240000D02*
X58600000Y-128601000D01*
X58640000Y-121439000D02*
X58640000Y-123760000D01*
X58640000Y-126240000D02*
X58640000Y-128561000D01*
X58680000Y-121480000D02*
X58680000Y-123760000D01*
X58680000Y-126240000D02*
X58680000Y-128520000D01*
X58720000Y-121522000D02*
X58720000Y-123760000D01*
X58720000Y-126240000D02*
X58720000Y-128478000D01*
X58760000Y-121565000D02*
X58760000Y-128435000D01*
X58800000Y-121609000D02*
X58800000Y-128391000D01*
X58840000Y-121653000D02*
X58840000Y-128347000D01*
X58880000Y-121699000D02*
X58880000Y-128301000D01*
X58920000Y-121746000D02*
X58920000Y-128254000D01*
X58960000Y-121795000D02*
X58960000Y-128205000D01*
X59000000Y-121844000D02*
X59000000Y-128156000D01*
X59040000Y-121895000D02*
X59040000Y-128105000D01*
X59080000Y-121947000D02*
X59080000Y-128053000D01*
X59120000Y-122000000D02*
X59120000Y-128000000D01*
X59160000Y-122055000D02*
X59160000Y-127945000D01*
X59200000Y-122112000D02*
X59200000Y-127888000D01*
X59240000Y-122170000D02*
X59240000Y-127830000D01*
X59280000Y-122230000D02*
X59280000Y-127770000D01*
X59320000Y-122292000D02*
X59320000Y-127708000D01*
X59360000Y-122356000D02*
X59360000Y-127644000D01*
X59400000Y-122422000D02*
X59400000Y-127578000D01*
X59440000Y-122490000D02*
X59440000Y-127510000D01*
X59480000Y-122561000D02*
X59480000Y-127439000D01*
X59520000Y-122635000D02*
X59520000Y-127365000D01*
X59560000Y-122712000D02*
X59560000Y-127288000D01*
X59600000Y-122792000D02*
X59600000Y-127208000D01*
X59640000Y-122876000D02*
X59640000Y-127124000D01*
X59680000Y-122963000D02*
X59680000Y-127037000D01*
X59720000Y-123056000D02*
X59720000Y-126944000D01*
X59760000Y-123154000D02*
X59760000Y-126846000D01*
X59800000Y-123258000D02*
X59800000Y-126742000D01*
X59840000Y-123370000D02*
X59840000Y-126630000D01*
X59880000Y-123491000D02*
X59880000Y-126509000D01*
X59920000Y-123623000D02*
X59920000Y-126377000D01*
X59960000Y-123770000D02*
X59960000Y-126230000D01*
X60000000Y-123938000D02*
X60000000Y-126062000D01*
X60040000Y-124138000D02*
X60040000Y-125862000D01*
X60080000Y-124401000D02*
X60080000Y-125599000D01*
X60120000Y-125000000D02*
G75*
G02*
X49880000Y-125000000I-5120000J0D01*
G01*
X49880000Y-125000000D02*
G75*
G02*
X60120000Y-125000000I5120000J0D01*
G01*
%TO.C,D1*%
X86710000Y-144455000D02*
X86710000Y-147545000D01*
X86710000Y-144455170D02*
G75*
G02*
X92260000Y-146000000I2560000J-1544830D01*
G01*
X92260000Y-146000000D02*
G75*
G02*
X86710000Y-147544830I-2990000J0D01*
G01*
X91770000Y-146000000D02*
G75*
G02*
X86770000Y-146000000I-2500000J0D01*
G01*
X86770000Y-146000000D02*
G75*
G02*
X91770000Y-146000000I2500000J0D01*
G01*
%TO.C,J10*%
D13*
X126250000Y-60500000D02*
X126250000Y-59500000D01*
X126750000Y-60000000D02*
X125750000Y-60000000D01*
X127400000Y-58100000D02*
X127400000Y-61900000D01*
X128100000Y-62600000D02*
X136100000Y-62600000D01*
X136100000Y-57400000D02*
X128100000Y-57400000D01*
X137600000Y-61100000D02*
X137600000Y-58900000D01*
X138250000Y-60000000D02*
X139250000Y-60000000D01*
X127400000Y-58100000D02*
G75*
G02*
X128100000Y-57400000I699999J1D01*
G01*
X128100000Y-62600000D02*
G75*
G02*
X127400000Y-61900000I-1J699999D01*
G01*
X136100000Y-57400000D02*
G75*
G02*
X137600000Y-58900000I-1234300J-2734300D01*
G01*
X137600000Y-61100000D02*
G75*
G02*
X136100000Y-62600000I-2734300J1234300D01*
G01*
%TO.C,TP1*%
D12*
X109050000Y-49050000D02*
X110950000Y-49050000D01*
X109050000Y-50950000D02*
X109050000Y-49050000D01*
X110950000Y-49050000D02*
X110950000Y-50950000D01*
X110950000Y-50950000D02*
X109050000Y-50950000D01*
%TO.C,J8*%
D13*
X126250000Y-110500000D02*
X126250000Y-109500000D01*
X126750000Y-110000000D02*
X125750000Y-110000000D01*
X127400000Y-108100000D02*
X127400000Y-111900000D01*
X128100000Y-112600000D02*
X136100000Y-112600000D01*
X136100000Y-107400000D02*
X128100000Y-107400000D01*
X137600000Y-111100000D02*
X137600000Y-108900000D01*
X138250000Y-110000000D02*
X139250000Y-110000000D01*
X127400000Y-108100000D02*
G75*
G02*
X128100000Y-107400000I699999J1D01*
G01*
X128100000Y-112600000D02*
G75*
G02*
X127400000Y-111900000I-1J699999D01*
G01*
X136100000Y-107400000D02*
G75*
G02*
X137600000Y-108900000I-1234300J-2734300D01*
G01*
X137600000Y-111100000D02*
G75*
G02*
X136100000Y-112600000I-2734300J1234300D01*
G01*
%TO.C,J9*%
X126250000Y-85500000D02*
X126250000Y-84500000D01*
X126750000Y-85000000D02*
X125750000Y-85000000D01*
X127400000Y-83100000D02*
X127400000Y-86900000D01*
X128100000Y-87600000D02*
X136100000Y-87600000D01*
X136100000Y-82400000D02*
X128100000Y-82400000D01*
X137600000Y-86100000D02*
X137600000Y-83900000D01*
X138250000Y-85000000D02*
X139250000Y-85000000D01*
X127400000Y-83100000D02*
G75*
G02*
X128100000Y-82400000I699999J1D01*
G01*
X128100000Y-87600000D02*
G75*
G02*
X127400000Y-86900000I-1J699999D01*
G01*
X136100000Y-82400000D02*
G75*
G02*
X137600000Y-83900000I-1234300J-2734300D01*
G01*
X137600000Y-86100000D02*
G75*
G02*
X136100000Y-87600000I-2734300J1234300D01*
G01*
%TO.C,C1*%
D12*
X62290560Y-149885000D02*
X64090560Y-149885000D01*
X63190560Y-148985000D02*
X63190560Y-150785000D01*
X72050000Y-145920000D02*
X72050000Y-164080000D01*
X72090000Y-145920000D02*
X72090000Y-164080000D01*
X72130000Y-145920000D02*
X72130000Y-164080000D01*
X72170000Y-145921000D02*
X72170000Y-164079000D01*
X72210000Y-145921000D02*
X72210000Y-164079000D01*
X72250000Y-145922000D02*
X72250000Y-164078000D01*
X72290000Y-145923000D02*
X72290000Y-164077000D01*
X72330000Y-145924000D02*
X72330000Y-164076000D01*
X72370000Y-145926000D02*
X72370000Y-164074000D01*
X72410000Y-145927000D02*
X72410000Y-164073000D01*
X72450000Y-145929000D02*
X72450000Y-164071000D01*
X72490000Y-145931000D02*
X72490000Y-164069000D01*
X72530000Y-145933000D02*
X72530000Y-164067000D01*
X72570000Y-145935000D02*
X72570000Y-164065000D01*
X72610000Y-145937000D02*
X72610000Y-164063000D01*
X72650000Y-145940000D02*
X72650000Y-164060000D01*
X72690000Y-145942000D02*
X72690000Y-164058000D01*
X72730000Y-145945000D02*
X72730000Y-164055000D01*
X72770000Y-145948000D02*
X72770000Y-164052000D01*
X72810000Y-145952000D02*
X72810000Y-164048000D01*
X72850000Y-145955000D02*
X72850000Y-164045000D01*
X72890000Y-145959000D02*
X72890000Y-164041000D01*
X72930000Y-145963000D02*
X72930000Y-164037000D01*
X72970000Y-145967000D02*
X72970000Y-164033000D01*
X73010000Y-145971000D02*
X73010000Y-164029000D01*
X73050000Y-145975000D02*
X73050000Y-164025000D01*
X73090000Y-145979000D02*
X73090000Y-164021000D01*
X73130000Y-145984000D02*
X73130000Y-164016000D01*
X73170000Y-145989000D02*
X73170000Y-164011000D01*
X73210000Y-145994000D02*
X73210000Y-164006000D01*
X73250000Y-145999000D02*
X73250000Y-164001000D01*
X73290000Y-146005000D02*
X73290000Y-163995000D01*
X73330000Y-146010000D02*
X73330000Y-163990000D01*
X73370000Y-146016000D02*
X73370000Y-163984000D01*
X73410000Y-146022000D02*
X73410000Y-163978000D01*
X73450000Y-146028000D02*
X73450000Y-163972000D01*
X73490000Y-146034000D02*
X73490000Y-163966000D01*
X73530000Y-146041000D02*
X73530000Y-163959000D01*
X73570000Y-146048000D02*
X73570000Y-163952000D01*
X73610000Y-146054000D02*
X73610000Y-163946000D01*
X73650000Y-146061000D02*
X73650000Y-163939000D01*
X73690000Y-146069000D02*
X73690000Y-163931000D01*
X73730000Y-146076000D02*
X73730000Y-163924000D01*
X73770000Y-146084000D02*
X73770000Y-163916000D01*
X73810000Y-146091000D02*
X73810000Y-163909000D01*
X73850000Y-146099000D02*
X73850000Y-163901000D01*
X73890000Y-146108000D02*
X73890000Y-163892000D01*
X73930000Y-146116000D02*
X73930000Y-163884000D01*
X73970000Y-146124000D02*
X73970000Y-163876000D01*
X74010000Y-146133000D02*
X74010000Y-163867000D01*
X74050000Y-146142000D02*
X74050000Y-163858000D01*
X74090000Y-146151000D02*
X74090000Y-163849000D01*
X74130000Y-146160000D02*
X74130000Y-163840000D01*
X74170000Y-146170000D02*
X74170000Y-163830000D01*
X74210000Y-146179000D02*
X74210000Y-163821000D01*
X74250000Y-146189000D02*
X74250000Y-163811000D01*
X74290000Y-146199000D02*
X74290000Y-163801000D01*
X74330000Y-146210000D02*
X74330000Y-163790000D01*
X74370000Y-146220000D02*
X74370000Y-153560000D01*
X74370000Y-156440000D02*
X74370000Y-163780000D01*
X74410000Y-146231000D02*
X74410000Y-153560000D01*
X74410000Y-156440000D02*
X74410000Y-163769000D01*
X74450000Y-146241000D02*
X74450000Y-153560000D01*
X74450000Y-156440000D02*
X74450000Y-163759000D01*
X74490000Y-146252000D02*
X74490000Y-153560000D01*
X74490000Y-156440000D02*
X74490000Y-163748000D01*
X74530000Y-146264000D02*
X74530000Y-153560000D01*
X74530000Y-156440000D02*
X74530000Y-163736000D01*
X74570000Y-146275000D02*
X74570000Y-153560000D01*
X74570000Y-156440000D02*
X74570000Y-163725000D01*
X74610000Y-146287000D02*
X74610000Y-153560000D01*
X74610000Y-156440000D02*
X74610000Y-163713000D01*
X74650000Y-146298000D02*
X74650000Y-153560000D01*
X74650000Y-156440000D02*
X74650000Y-163702000D01*
X74690000Y-146310000D02*
X74690000Y-153560000D01*
X74690000Y-156440000D02*
X74690000Y-163690000D01*
X74730000Y-146323000D02*
X74730000Y-153560000D01*
X74730000Y-156440000D02*
X74730000Y-163677000D01*
X74770000Y-146335000D02*
X74770000Y-153560000D01*
X74770000Y-156440000D02*
X74770000Y-163665000D01*
X74810000Y-146348000D02*
X74810000Y-153560000D01*
X74810000Y-156440000D02*
X74810000Y-163652000D01*
X74850000Y-146360000D02*
X74850000Y-153560000D01*
X74850000Y-156440000D02*
X74850000Y-163640000D01*
X74890000Y-146373000D02*
X74890000Y-153560000D01*
X74890000Y-156440000D02*
X74890000Y-163627000D01*
X74930000Y-146387000D02*
X74930000Y-153560000D01*
X74930000Y-156440000D02*
X74930000Y-163613000D01*
X74970000Y-146400000D02*
X74970000Y-153560000D01*
X74970000Y-156440000D02*
X74970000Y-163600000D01*
X75010000Y-146414000D02*
X75010000Y-153560000D01*
X75010000Y-156440000D02*
X75010000Y-163586000D01*
X75050000Y-146428000D02*
X75050000Y-153560000D01*
X75050000Y-156440000D02*
X75050000Y-163572000D01*
X75090000Y-146442000D02*
X75090000Y-153560000D01*
X75090000Y-156440000D02*
X75090000Y-163558000D01*
X75130000Y-146456000D02*
X75130000Y-153560000D01*
X75130000Y-156440000D02*
X75130000Y-163544000D01*
X75170000Y-146470000D02*
X75170000Y-153560000D01*
X75170000Y-156440000D02*
X75170000Y-163530000D01*
X75210000Y-146485000D02*
X75210000Y-153560000D01*
X75210000Y-156440000D02*
X75210000Y-163515000D01*
X75250000Y-146500000D02*
X75250000Y-153560000D01*
X75250000Y-156440000D02*
X75250000Y-163500000D01*
X75290000Y-146515000D02*
X75290000Y-153560000D01*
X75290000Y-156440000D02*
X75290000Y-163485000D01*
X75330000Y-146530000D02*
X75330000Y-153560000D01*
X75330000Y-156440000D02*
X75330000Y-163470000D01*
X75370000Y-146546000D02*
X75370000Y-153560000D01*
X75370000Y-156440000D02*
X75370000Y-163454000D01*
X75410000Y-146562000D02*
X75410000Y-153560000D01*
X75410000Y-156440000D02*
X75410000Y-163438000D01*
X75450000Y-146577000D02*
X75450000Y-153560000D01*
X75450000Y-156440000D02*
X75450000Y-163423000D01*
X75490000Y-146594000D02*
X75490000Y-153560000D01*
X75490000Y-156440000D02*
X75490000Y-163406000D01*
X75530000Y-146610000D02*
X75530000Y-153560000D01*
X75530000Y-156440000D02*
X75530000Y-163390000D01*
X75570000Y-146627000D02*
X75570000Y-153560000D01*
X75570000Y-156440000D02*
X75570000Y-163373000D01*
X75610000Y-146644000D02*
X75610000Y-153560000D01*
X75610000Y-156440000D02*
X75610000Y-163356000D01*
X75650000Y-146661000D02*
X75650000Y-153560000D01*
X75650000Y-156440000D02*
X75650000Y-163339000D01*
X75690000Y-146678000D02*
X75690000Y-153560000D01*
X75690000Y-156440000D02*
X75690000Y-163322000D01*
X75730000Y-146695000D02*
X75730000Y-153560000D01*
X75730000Y-156440000D02*
X75730000Y-163305000D01*
X75770000Y-146713000D02*
X75770000Y-153560000D01*
X75770000Y-156440000D02*
X75770000Y-163287000D01*
X75810000Y-146731000D02*
X75810000Y-153560000D01*
X75810000Y-156440000D02*
X75810000Y-163269000D01*
X75850000Y-146749000D02*
X75850000Y-153560000D01*
X75850000Y-156440000D02*
X75850000Y-163251000D01*
X75890000Y-146768000D02*
X75890000Y-153560000D01*
X75890000Y-156440000D02*
X75890000Y-163232000D01*
X75930000Y-146787000D02*
X75930000Y-153560000D01*
X75930000Y-156440000D02*
X75930000Y-163213000D01*
X75970000Y-146805000D02*
X75970000Y-153560000D01*
X75970000Y-156440000D02*
X75970000Y-163195000D01*
X76010000Y-146825000D02*
X76010000Y-153560000D01*
X76010000Y-156440000D02*
X76010000Y-163175000D01*
X76050000Y-146844000D02*
X76050000Y-153560000D01*
X76050000Y-156440000D02*
X76050000Y-163156000D01*
X76090000Y-146864000D02*
X76090000Y-153560000D01*
X76090000Y-156440000D02*
X76090000Y-163136000D01*
X76130000Y-146884000D02*
X76130000Y-153560000D01*
X76130000Y-156440000D02*
X76130000Y-163116000D01*
X76170000Y-146904000D02*
X76170000Y-153560000D01*
X76170000Y-156440000D02*
X76170000Y-163096000D01*
X76210000Y-146924000D02*
X76210000Y-153560000D01*
X76210000Y-156440000D02*
X76210000Y-163076000D01*
X76250000Y-146945000D02*
X76250000Y-153560000D01*
X76250000Y-156440000D02*
X76250000Y-163055000D01*
X76290000Y-146966000D02*
X76290000Y-153560000D01*
X76290000Y-156440000D02*
X76290000Y-163034000D01*
X76330000Y-146987000D02*
X76330000Y-153560000D01*
X76330000Y-156440000D02*
X76330000Y-163013000D01*
X76370000Y-147008000D02*
X76370000Y-153560000D01*
X76370000Y-156440000D02*
X76370000Y-162992000D01*
X76410000Y-147030000D02*
X76410000Y-153560000D01*
X76410000Y-156440000D02*
X76410000Y-162970000D01*
X76450000Y-147052000D02*
X76450000Y-153560000D01*
X76450000Y-156440000D02*
X76450000Y-162948000D01*
X76490000Y-147074000D02*
X76490000Y-153560000D01*
X76490000Y-156440000D02*
X76490000Y-162926000D01*
X76530000Y-147096000D02*
X76530000Y-153560000D01*
X76530000Y-156440000D02*
X76530000Y-162904000D01*
X76570000Y-147119000D02*
X76570000Y-153560000D01*
X76570000Y-156440000D02*
X76570000Y-162881000D01*
X76610000Y-147142000D02*
X76610000Y-153560000D01*
X76610000Y-156440000D02*
X76610000Y-162858000D01*
X76650000Y-147165000D02*
X76650000Y-153560000D01*
X76650000Y-156440000D02*
X76650000Y-162835000D01*
X76690000Y-147189000D02*
X76690000Y-153560000D01*
X76690000Y-156440000D02*
X76690000Y-162811000D01*
X76730000Y-147212000D02*
X76730000Y-153560000D01*
X76730000Y-156440000D02*
X76730000Y-162788000D01*
X76770000Y-147236000D02*
X76770000Y-153560000D01*
X76770000Y-156440000D02*
X76770000Y-162764000D01*
X76810000Y-147261000D02*
X76810000Y-153560000D01*
X76810000Y-156440000D02*
X76810000Y-162739000D01*
X76850000Y-147285000D02*
X76850000Y-153560000D01*
X76850000Y-156440000D02*
X76850000Y-162715000D01*
X76890000Y-147310000D02*
X76890000Y-153560000D01*
X76890000Y-156440000D02*
X76890000Y-162690000D01*
X76930000Y-147335000D02*
X76930000Y-153560000D01*
X76930000Y-156440000D02*
X76930000Y-162665000D01*
X76970000Y-147361000D02*
X76970000Y-153560000D01*
X76970000Y-156440000D02*
X76970000Y-162639000D01*
X77010000Y-147387000D02*
X77010000Y-153560000D01*
X77010000Y-156440000D02*
X77010000Y-162613000D01*
X77050000Y-147413000D02*
X77050000Y-153560000D01*
X77050000Y-156440000D02*
X77050000Y-162587000D01*
X77090000Y-147439000D02*
X77090000Y-153560000D01*
X77090000Y-156440000D02*
X77090000Y-162561000D01*
X77130000Y-147466000D02*
X77130000Y-153560000D01*
X77130000Y-156440000D02*
X77130000Y-162534000D01*
X77170000Y-147493000D02*
X77170000Y-153560000D01*
X77170000Y-156440000D02*
X77170000Y-162507000D01*
X77210000Y-147520000D02*
X77210000Y-153560000D01*
X77210000Y-156440000D02*
X77210000Y-162480000D01*
X77250000Y-147548000D02*
X77250000Y-162452000D01*
X77290000Y-147576000D02*
X77290000Y-162424000D01*
X77330000Y-147604000D02*
X77330000Y-162396000D01*
X77370000Y-147632000D02*
X77370000Y-162368000D01*
X77410000Y-147661000D02*
X77410000Y-162339000D01*
X77450000Y-147691000D02*
X77450000Y-162309000D01*
X77490000Y-147720000D02*
X77490000Y-162280000D01*
X77530000Y-147750000D02*
X77530000Y-162250000D01*
X77570000Y-147780000D02*
X77570000Y-162220000D01*
X77610000Y-147811000D02*
X77610000Y-162189000D01*
X77650000Y-147842000D02*
X77650000Y-162158000D01*
X77690000Y-147873000D02*
X77690000Y-162127000D01*
X77730000Y-147905000D02*
X77730000Y-162095000D01*
X77770000Y-147937000D02*
X77770000Y-162063000D01*
X77810000Y-147969000D02*
X77810000Y-162031000D01*
X77850000Y-148002000D02*
X77850000Y-161998000D01*
X77890000Y-148035000D02*
X77890000Y-161965000D01*
X77930000Y-148069000D02*
X77930000Y-161931000D01*
X77970000Y-148103000D02*
X77970000Y-161897000D01*
X78010000Y-148137000D02*
X78010000Y-161863000D01*
X78050000Y-148172000D02*
X78050000Y-161828000D01*
X78090000Y-148207000D02*
X78090000Y-161793000D01*
X78130000Y-148242000D02*
X78130000Y-161758000D01*
X78170000Y-148278000D02*
X78170000Y-161722000D01*
X78210000Y-148315000D02*
X78210000Y-161685000D01*
X78250000Y-148352000D02*
X78250000Y-161648000D01*
X78290000Y-148389000D02*
X78290000Y-161611000D01*
X78330000Y-148427000D02*
X78330000Y-161573000D01*
X78370000Y-148465000D02*
X78370000Y-161535000D01*
X78410000Y-148504000D02*
X78410000Y-161496000D01*
X78450000Y-148543000D02*
X78450000Y-161457000D01*
X78490000Y-148582000D02*
X78490000Y-161418000D01*
X78530000Y-148623000D02*
X78530000Y-161377000D01*
X78570000Y-148663000D02*
X78570000Y-161337000D01*
X78610000Y-148704000D02*
X78610000Y-161296000D01*
X78650000Y-148746000D02*
X78650000Y-161254000D01*
X78690000Y-148788000D02*
X78690000Y-161212000D01*
X78730000Y-148831000D02*
X78730000Y-161169000D01*
X78770000Y-148874000D02*
X78770000Y-161126000D01*
X78810000Y-148918000D02*
X78810000Y-161082000D01*
X78850000Y-148963000D02*
X78850000Y-161037000D01*
X78890000Y-149008000D02*
X78890000Y-160992000D01*
X78930000Y-149053000D02*
X78930000Y-160947000D01*
X78970000Y-149100000D02*
X78970000Y-160900000D01*
X79010000Y-149147000D02*
X79010000Y-160853000D01*
X79050000Y-149194000D02*
X79050000Y-160806000D01*
X79090000Y-149242000D02*
X79090000Y-160758000D01*
X79130000Y-149291000D02*
X79130000Y-160709000D01*
X79170000Y-149341000D02*
X79170000Y-160659000D01*
X79210000Y-149391000D02*
X79210000Y-160609000D01*
X79250000Y-149442000D02*
X79250000Y-160558000D01*
X79290000Y-149494000D02*
X79290000Y-160506000D01*
X79330000Y-149547000D02*
X79330000Y-160453000D01*
X79370000Y-149600000D02*
X79370000Y-160400000D01*
X79410000Y-149654000D02*
X79410000Y-160346000D01*
X79450000Y-149709000D02*
X79450000Y-160291000D01*
X79490000Y-149765000D02*
X79490000Y-160235000D01*
X79530000Y-149822000D02*
X79530000Y-160178000D01*
X79570000Y-149880000D02*
X79570000Y-160120000D01*
X79610000Y-149939000D02*
X79610000Y-160061000D01*
X79650000Y-149999000D02*
X79650000Y-160001000D01*
X79690000Y-150060000D02*
X79690000Y-159940000D01*
X79730000Y-150121000D02*
X79730000Y-159879000D01*
X79770000Y-150184000D02*
X79770000Y-159816000D01*
X79810000Y-150249000D02*
X79810000Y-159751000D01*
X79850000Y-150314000D02*
X79850000Y-159686000D01*
X79890000Y-150381000D02*
X79890000Y-159619000D01*
X79930000Y-150449000D02*
X79930000Y-159551000D01*
X79970000Y-150518000D02*
X79970000Y-159482000D01*
X80010000Y-150589000D02*
X80010000Y-159411000D01*
X80050000Y-150661000D02*
X80050000Y-159339000D01*
X80090000Y-150735000D02*
X80090000Y-159265000D01*
X80130000Y-150811000D02*
X80130000Y-159189000D01*
X80170000Y-150888000D02*
X80170000Y-159112000D01*
X80210000Y-150967000D02*
X80210000Y-159033000D01*
X80250000Y-151048000D02*
X80250000Y-158952000D01*
X80290000Y-151131000D02*
X80290000Y-158869000D01*
X80330000Y-151217000D02*
X80330000Y-158783000D01*
X80370000Y-151305000D02*
X80370000Y-158695000D01*
X80410000Y-151395000D02*
X80410000Y-158605000D01*
X80450000Y-151488000D02*
X80450000Y-158512000D01*
X80490000Y-151584000D02*
X80490000Y-158416000D01*
X80530000Y-151684000D02*
X80530000Y-158316000D01*
X80570000Y-151787000D02*
X80570000Y-158213000D01*
X80610000Y-151893000D02*
X80610000Y-158107000D01*
X80650000Y-152004000D02*
X80650000Y-157996000D01*
X80690000Y-152120000D02*
X80690000Y-157880000D01*
X80730000Y-152241000D02*
X80730000Y-157759000D01*
X80770000Y-152369000D02*
X80770000Y-157631000D01*
X80810000Y-152503000D02*
X80810000Y-157497000D01*
X80850000Y-152645000D02*
X80850000Y-157355000D01*
X80890000Y-152798000D02*
X80890000Y-157202000D01*
X80930000Y-152962000D02*
X80930000Y-157038000D01*
X80970000Y-153141000D02*
X80970000Y-156859000D01*
X81010000Y-153339000D02*
X81010000Y-156661000D01*
X81050000Y-153565000D02*
X81050000Y-156435000D01*
X81090000Y-153835000D02*
X81090000Y-156165000D01*
X81130000Y-154187000D02*
X81130000Y-155813000D01*
X81170000Y-155040000D02*
X81170000Y-154960000D01*
X81170000Y-155000000D02*
G75*
G02*
X62930000Y-155000000I-9120000J0D01*
G01*
X62930000Y-155000000D02*
G75*
G02*
X81170000Y-155000000I9120000J0D01*
G01*
%TO.C,J7*%
D13*
X126250000Y-135500000D02*
X126250000Y-134500000D01*
X126750000Y-135000000D02*
X125750000Y-135000000D01*
X127400000Y-133100000D02*
X127400000Y-136900000D01*
X128100000Y-137600000D02*
X136100000Y-137600000D01*
X136100000Y-132400000D02*
X128100000Y-132400000D01*
X137600000Y-136100000D02*
X137600000Y-133900000D01*
X138250000Y-135000000D02*
X139250000Y-135000000D01*
X127400000Y-133100000D02*
G75*
G02*
X128100000Y-132400000I699999J1D01*
G01*
X128100000Y-137600000D02*
G75*
G02*
X127400000Y-136900000I-1J699999D01*
G01*
X136100000Y-132400000D02*
G75*
G02*
X137600000Y-133900000I-1234300J-2734300D01*
G01*
X137600000Y-136100000D02*
G75*
G02*
X136100000Y-137600000I-2734300J1234300D01*
G01*
%TO.C,D7*%
D11*
X97523500Y-34365000D02*
X97523500Y-35635000D01*
X97523500Y-35000000D02*
X98285500Y-34365000D01*
X97523500Y-35000000D02*
X98285500Y-34492000D01*
X97523500Y-35000000D02*
X98285500Y-34619000D01*
X97523500Y-35000000D02*
X98285500Y-34746000D01*
X97523500Y-35000000D02*
X98285500Y-34873000D01*
X97523500Y-35000000D02*
X98285500Y-35127000D01*
X97523500Y-35000000D02*
X98285500Y-35254000D01*
X97523500Y-35000000D02*
X98285500Y-35381000D01*
X97523500Y-35000000D02*
X98285500Y-35508000D01*
X97523500Y-35000000D02*
X98285500Y-35635000D01*
X98285500Y-34365000D02*
X98285500Y-35635000D01*
X98539500Y-35000000D02*
X97269500Y-35000000D01*
X105143500Y-32206000D02*
X105143500Y-37794000D01*
X105143500Y-37794000D02*
X114922500Y-37794000D01*
X114922500Y-32206000D02*
X105143500Y-32206000D01*
X114922500Y-37794000D02*
X114922500Y-32206000D01*
%TO.C,D2*%
D12*
X88710000Y-23455000D02*
X88710000Y-26545000D01*
X88710000Y-23455170D02*
G75*
G02*
X94260000Y-25000000I2560000J-1544830D01*
G01*
X94260000Y-25000000D02*
G75*
G02*
X88710000Y-26544830I-2990000J0D01*
G01*
X93770000Y-25000000D02*
G75*
G02*
X88770000Y-25000000I-2500000J0D01*
G01*
X88770000Y-25000000D02*
G75*
G02*
X93770000Y-25000000I2500000J0D01*
G01*
%TO.C,C3*%
X81255000Y-164680000D02*
X86195000Y-164680000D01*
X81255000Y-165010000D02*
X81255000Y-164680000D01*
X81255000Y-167420000D02*
X81255000Y-167090000D01*
X86195000Y-164680000D02*
X86195000Y-165010000D01*
X86195000Y-167090000D02*
X86195000Y-167420000D01*
X86195000Y-167420000D02*
X81255000Y-167420000D01*
%TO.C,F2*%
D11*
X64903500Y-131444000D02*
X64903500Y-138556000D01*
X64903500Y-138556000D02*
X85096500Y-138556000D01*
X85096500Y-131444000D02*
X64903500Y-131444000D01*
X85096500Y-138556000D02*
X85096500Y-131444000D01*
D14*
X64649500Y-133349000D02*
G75*
G02*
X63887500Y-133349000I-381000J0D01*
G01*
X63887500Y-133349000D02*
G75*
G02*
X64649500Y-133349000I381000J0D01*
G01*
%TO.C,F8*%
D11*
X117460000Y-100000000D02*
X118714760Y-100000000D01*
X118095000Y-99365000D02*
X118095000Y-100635000D01*
X118857000Y-94793000D02*
X118857000Y-99412299D01*
X118857000Y-100587701D02*
X118857000Y-105207000D01*
X145273000Y-94793000D02*
X118857000Y-94793000D01*
X145273000Y-94793000D02*
X145273000Y-99412299D01*
X145273000Y-100587701D02*
X145273000Y-105207000D01*
X145273000Y-105207000D02*
X118857000Y-105207000D01*
%TO.C,C6*%
D12*
X52530000Y-140630000D02*
X57470000Y-140630000D01*
X52530000Y-140960000D02*
X52530000Y-140630000D01*
X52530000Y-143370000D02*
X52530000Y-143040000D01*
X57470000Y-140630000D02*
X57470000Y-140960000D01*
X57470000Y-143040000D02*
X57470000Y-143370000D01*
X57470000Y-143370000D02*
X52530000Y-143370000D01*
%TO.C,C21*%
X52530000Y-40630000D02*
X57470000Y-40630000D01*
X52530000Y-40960000D02*
X52530000Y-40630000D01*
X52530000Y-43370000D02*
X52530000Y-43040000D01*
X57470000Y-40630000D02*
X57470000Y-40960000D01*
X57470000Y-43040000D02*
X57470000Y-43370000D01*
X57470000Y-43370000D02*
X52530000Y-43370000D01*
%TO.C,C14*%
X52530000Y-90630000D02*
X57470000Y-90630000D01*
X52530000Y-90960000D02*
X52530000Y-90630000D01*
X52530000Y-93370000D02*
X52530000Y-93040000D01*
X57470000Y-90630000D02*
X57470000Y-90960000D01*
X57470000Y-93040000D02*
X57470000Y-93370000D01*
X57470000Y-93370000D02*
X52530000Y-93370000D01*
%TO.C,D4*%
D11*
X97523500Y-109365000D02*
X97523500Y-110635000D01*
X97523500Y-110000000D02*
X98285500Y-109365000D01*
X97523500Y-110000000D02*
X98285500Y-109492000D01*
X97523500Y-110000000D02*
X98285500Y-109619000D01*
X97523500Y-110000000D02*
X98285500Y-109746000D01*
X97523500Y-110000000D02*
X98285500Y-109873000D01*
X97523500Y-110000000D02*
X98285500Y-110127000D01*
X97523500Y-110000000D02*
X98285500Y-110254000D01*
X97523500Y-110000000D02*
X98285500Y-110381000D01*
X97523500Y-110000000D02*
X98285500Y-110508000D01*
X97523500Y-110000000D02*
X98285500Y-110635000D01*
X98285500Y-109365000D02*
X98285500Y-110635000D01*
X98539500Y-110000000D02*
X97269500Y-110000000D01*
X105143500Y-107206000D02*
X105143500Y-112794000D01*
X105143500Y-112794000D02*
X114922500Y-112794000D01*
X114922500Y-107206000D02*
X105143500Y-107206000D01*
X114922500Y-112794000D02*
X114922500Y-107206000D01*
%TO.C,R1*%
D12*
X105040000Y-146000000D02*
X105810000Y-146000000D01*
X113120000Y-146000000D02*
X112350000Y-146000000D01*
X105810000Y-144630000D02*
X112350000Y-144630000D01*
X112350000Y-147370000D01*
X105810000Y-147370000D01*
X105810000Y-144630000D01*
%TO.C,J1*%
X92265000Y-177735000D02*
X92265000Y-163425000D01*
X101415000Y-159315000D02*
X97675000Y-159315000D01*
X107985000Y-177735000D02*
X92265000Y-177735000D01*
X107985000Y-177735000D02*
X107985000Y-163425000D01*
X92265000Y-163425000D02*
G75*
G02*
X95173352Y-159494587I4110000J0D01*
G01*
X105991806Y-159902042D02*
G75*
G02*
X107985000Y-163425000I-2116805J-3522957D01*
G01*
%TO.C,D3*%
D11*
X97523500Y-134365000D02*
X97523500Y-135635000D01*
X97523500Y-135000000D02*
X98285500Y-134365000D01*
X97523500Y-135000000D02*
X98285500Y-134492000D01*
X97523500Y-135000000D02*
X98285500Y-134619000D01*
X97523500Y-135000000D02*
X98285500Y-134746000D01*
X97523500Y-135000000D02*
X98285500Y-134873000D01*
X97523500Y-135000000D02*
X98285500Y-135127000D01*
X97523500Y-135000000D02*
X98285500Y-135254000D01*
X97523500Y-135000000D02*
X98285500Y-135381000D01*
X97523500Y-135000000D02*
X98285500Y-135508000D01*
X97523500Y-135000000D02*
X98285500Y-135635000D01*
X98285500Y-134365000D02*
X98285500Y-135635000D01*
X98539500Y-135000000D02*
X97269500Y-135000000D01*
X105143500Y-132206000D02*
X105143500Y-137794000D01*
X105143500Y-137794000D02*
X114922500Y-137794000D01*
X114922500Y-132206000D02*
X105143500Y-132206000D01*
X114922500Y-137794000D02*
X114922500Y-132206000D01*
%TO.C,C2*%
D12*
X118315560Y-149885000D02*
X120115560Y-149885000D01*
X119215560Y-148985000D02*
X119215560Y-150785000D01*
X128075000Y-145920000D02*
X128075000Y-164080000D01*
X128115000Y-145920000D02*
X128115000Y-164080000D01*
X128155000Y-145920000D02*
X128155000Y-164080000D01*
X128195000Y-145921000D02*
X128195000Y-164079000D01*
X128235000Y-145921000D02*
X128235000Y-164079000D01*
X128275000Y-145922000D02*
X128275000Y-164078000D01*
X128315000Y-145923000D02*
X128315000Y-164077000D01*
X128355000Y-145924000D02*
X128355000Y-164076000D01*
X128395000Y-145926000D02*
X128395000Y-164074000D01*
X128435000Y-145927000D02*
X128435000Y-164073000D01*
X128475000Y-145929000D02*
X128475000Y-164071000D01*
X128515000Y-145931000D02*
X128515000Y-164069000D01*
X128555000Y-145933000D02*
X128555000Y-164067000D01*
X128595000Y-145935000D02*
X128595000Y-164065000D01*
X128635000Y-145937000D02*
X128635000Y-164063000D01*
X128675000Y-145940000D02*
X128675000Y-164060000D01*
X128715000Y-145942000D02*
X128715000Y-164058000D01*
X128755000Y-145945000D02*
X128755000Y-164055000D01*
X128795000Y-145948000D02*
X128795000Y-164052000D01*
X128835000Y-145952000D02*
X128835000Y-164048000D01*
X128875000Y-145955000D02*
X128875000Y-164045000D01*
X128915000Y-145959000D02*
X128915000Y-164041000D01*
X128955000Y-145963000D02*
X128955000Y-164037000D01*
X128995000Y-145967000D02*
X128995000Y-164033000D01*
X129035000Y-145971000D02*
X129035000Y-164029000D01*
X129075000Y-145975000D02*
X129075000Y-164025000D01*
X129115000Y-145979000D02*
X129115000Y-164021000D01*
X129155000Y-145984000D02*
X129155000Y-164016000D01*
X129195000Y-145989000D02*
X129195000Y-164011000D01*
X129235000Y-145994000D02*
X129235000Y-164006000D01*
X129275000Y-145999000D02*
X129275000Y-164001000D01*
X129315000Y-146005000D02*
X129315000Y-163995000D01*
X129355000Y-146010000D02*
X129355000Y-163990000D01*
X129395000Y-146016000D02*
X129395000Y-163984000D01*
X129435000Y-146022000D02*
X129435000Y-163978000D01*
X129475000Y-146028000D02*
X129475000Y-163972000D01*
X129515000Y-146034000D02*
X129515000Y-163966000D01*
X129555000Y-146041000D02*
X129555000Y-163959000D01*
X129595000Y-146048000D02*
X129595000Y-163952000D01*
X129635000Y-146054000D02*
X129635000Y-163946000D01*
X129675000Y-146061000D02*
X129675000Y-163939000D01*
X129715000Y-146069000D02*
X129715000Y-163931000D01*
X129755000Y-146076000D02*
X129755000Y-163924000D01*
X129795000Y-146084000D02*
X129795000Y-163916000D01*
X129835000Y-146091000D02*
X129835000Y-163909000D01*
X129875000Y-146099000D02*
X129875000Y-163901000D01*
X129915000Y-146108000D02*
X129915000Y-163892000D01*
X129955000Y-146116000D02*
X129955000Y-163884000D01*
X129995000Y-146124000D02*
X129995000Y-163876000D01*
X130035000Y-146133000D02*
X130035000Y-163867000D01*
X130075000Y-146142000D02*
X130075000Y-163858000D01*
X130115000Y-146151000D02*
X130115000Y-163849000D01*
X130155000Y-146160000D02*
X130155000Y-163840000D01*
X130195000Y-146170000D02*
X130195000Y-163830000D01*
X130235000Y-146179000D02*
X130235000Y-163821000D01*
X130275000Y-146189000D02*
X130275000Y-163811000D01*
X130315000Y-146199000D02*
X130315000Y-163801000D01*
X130355000Y-146210000D02*
X130355000Y-163790000D01*
X130395000Y-146220000D02*
X130395000Y-153560000D01*
X130395000Y-156440000D02*
X130395000Y-163780000D01*
X130435000Y-146231000D02*
X130435000Y-153560000D01*
X130435000Y-156440000D02*
X130435000Y-163769000D01*
X130475000Y-146241000D02*
X130475000Y-153560000D01*
X130475000Y-156440000D02*
X130475000Y-163759000D01*
X130515000Y-146252000D02*
X130515000Y-153560000D01*
X130515000Y-156440000D02*
X130515000Y-163748000D01*
X130555000Y-146264000D02*
X130555000Y-153560000D01*
X130555000Y-156440000D02*
X130555000Y-163736000D01*
X130595000Y-146275000D02*
X130595000Y-153560000D01*
X130595000Y-156440000D02*
X130595000Y-163725000D01*
X130635000Y-146287000D02*
X130635000Y-153560000D01*
X130635000Y-156440000D02*
X130635000Y-163713000D01*
X130675000Y-146298000D02*
X130675000Y-153560000D01*
X130675000Y-156440000D02*
X130675000Y-163702000D01*
X130715000Y-146310000D02*
X130715000Y-153560000D01*
X130715000Y-156440000D02*
X130715000Y-163690000D01*
X130755000Y-146323000D02*
X130755000Y-153560000D01*
X130755000Y-156440000D02*
X130755000Y-163677000D01*
X130795000Y-146335000D02*
X130795000Y-153560000D01*
X130795000Y-156440000D02*
X130795000Y-163665000D01*
X130835000Y-146348000D02*
X130835000Y-153560000D01*
X130835000Y-156440000D02*
X130835000Y-163652000D01*
X130875000Y-146360000D02*
X130875000Y-153560000D01*
X130875000Y-156440000D02*
X130875000Y-163640000D01*
X130915000Y-146373000D02*
X130915000Y-153560000D01*
X130915000Y-156440000D02*
X130915000Y-163627000D01*
X130955000Y-146387000D02*
X130955000Y-153560000D01*
X130955000Y-156440000D02*
X130955000Y-163613000D01*
X130995000Y-146400000D02*
X130995000Y-153560000D01*
X130995000Y-156440000D02*
X130995000Y-163600000D01*
X131035000Y-146414000D02*
X131035000Y-153560000D01*
X131035000Y-156440000D02*
X131035000Y-163586000D01*
X131075000Y-146428000D02*
X131075000Y-153560000D01*
X131075000Y-156440000D02*
X131075000Y-163572000D01*
X131115000Y-146442000D02*
X131115000Y-153560000D01*
X131115000Y-156440000D02*
X131115000Y-163558000D01*
X131155000Y-146456000D02*
X131155000Y-153560000D01*
X131155000Y-156440000D02*
X131155000Y-163544000D01*
X131195000Y-146470000D02*
X131195000Y-153560000D01*
X131195000Y-156440000D02*
X131195000Y-163530000D01*
X131235000Y-146485000D02*
X131235000Y-153560000D01*
X131235000Y-156440000D02*
X131235000Y-163515000D01*
X131275000Y-146500000D02*
X131275000Y-153560000D01*
X131275000Y-156440000D02*
X131275000Y-163500000D01*
X131315000Y-146515000D02*
X131315000Y-153560000D01*
X131315000Y-156440000D02*
X131315000Y-163485000D01*
X131355000Y-146530000D02*
X131355000Y-153560000D01*
X131355000Y-156440000D02*
X131355000Y-163470000D01*
X131395000Y-146546000D02*
X131395000Y-153560000D01*
X131395000Y-156440000D02*
X131395000Y-163454000D01*
X131435000Y-146562000D02*
X131435000Y-153560000D01*
X131435000Y-156440000D02*
X131435000Y-163438000D01*
X131475000Y-146577000D02*
X131475000Y-153560000D01*
X131475000Y-156440000D02*
X131475000Y-163423000D01*
X131515000Y-146594000D02*
X131515000Y-153560000D01*
X131515000Y-156440000D02*
X131515000Y-163406000D01*
X131555000Y-146610000D02*
X131555000Y-153560000D01*
X131555000Y-156440000D02*
X131555000Y-163390000D01*
X131595000Y-146627000D02*
X131595000Y-153560000D01*
X131595000Y-156440000D02*
X131595000Y-163373000D01*
X131635000Y-146644000D02*
X131635000Y-153560000D01*
X131635000Y-156440000D02*
X131635000Y-163356000D01*
X131675000Y-146661000D02*
X131675000Y-153560000D01*
X131675000Y-156440000D02*
X131675000Y-163339000D01*
X131715000Y-146678000D02*
X131715000Y-153560000D01*
X131715000Y-156440000D02*
X131715000Y-163322000D01*
X131755000Y-146695000D02*
X131755000Y-153560000D01*
X131755000Y-156440000D02*
X131755000Y-163305000D01*
X131795000Y-146713000D02*
X131795000Y-153560000D01*
X131795000Y-156440000D02*
X131795000Y-163287000D01*
X131835000Y-146731000D02*
X131835000Y-153560000D01*
X131835000Y-156440000D02*
X131835000Y-163269000D01*
X131875000Y-146749000D02*
X131875000Y-153560000D01*
X131875000Y-156440000D02*
X131875000Y-163251000D01*
X131915000Y-146768000D02*
X131915000Y-153560000D01*
X131915000Y-156440000D02*
X131915000Y-163232000D01*
X131955000Y-146787000D02*
X131955000Y-153560000D01*
X131955000Y-156440000D02*
X131955000Y-163213000D01*
X131995000Y-146805000D02*
X131995000Y-153560000D01*
X131995000Y-156440000D02*
X131995000Y-163195000D01*
X132035000Y-146825000D02*
X132035000Y-153560000D01*
X132035000Y-156440000D02*
X132035000Y-163175000D01*
X132075000Y-146844000D02*
X132075000Y-153560000D01*
X132075000Y-156440000D02*
X132075000Y-163156000D01*
X132115000Y-146864000D02*
X132115000Y-153560000D01*
X132115000Y-156440000D02*
X132115000Y-163136000D01*
X132155000Y-146884000D02*
X132155000Y-153560000D01*
X132155000Y-156440000D02*
X132155000Y-163116000D01*
X132195000Y-146904000D02*
X132195000Y-153560000D01*
X132195000Y-156440000D02*
X132195000Y-163096000D01*
X132235000Y-146924000D02*
X132235000Y-153560000D01*
X132235000Y-156440000D02*
X132235000Y-163076000D01*
X132275000Y-146945000D02*
X132275000Y-153560000D01*
X132275000Y-156440000D02*
X132275000Y-163055000D01*
X132315000Y-146966000D02*
X132315000Y-153560000D01*
X132315000Y-156440000D02*
X132315000Y-163034000D01*
X132355000Y-146987000D02*
X132355000Y-153560000D01*
X132355000Y-156440000D02*
X132355000Y-163013000D01*
X132395000Y-147008000D02*
X132395000Y-153560000D01*
X132395000Y-156440000D02*
X132395000Y-162992000D01*
X132435000Y-147030000D02*
X132435000Y-153560000D01*
X132435000Y-156440000D02*
X132435000Y-162970000D01*
X132475000Y-147052000D02*
X132475000Y-153560000D01*
X132475000Y-156440000D02*
X132475000Y-162948000D01*
X132515000Y-147074000D02*
X132515000Y-153560000D01*
X132515000Y-156440000D02*
X132515000Y-162926000D01*
X132555000Y-147096000D02*
X132555000Y-153560000D01*
X132555000Y-156440000D02*
X132555000Y-162904000D01*
X132595000Y-147119000D02*
X132595000Y-153560000D01*
X132595000Y-156440000D02*
X132595000Y-162881000D01*
X132635000Y-147142000D02*
X132635000Y-153560000D01*
X132635000Y-156440000D02*
X132635000Y-162858000D01*
X132675000Y-147165000D02*
X132675000Y-153560000D01*
X132675000Y-156440000D02*
X132675000Y-162835000D01*
X132715000Y-147189000D02*
X132715000Y-153560000D01*
X132715000Y-156440000D02*
X132715000Y-162811000D01*
X132755000Y-147212000D02*
X132755000Y-153560000D01*
X132755000Y-156440000D02*
X132755000Y-162788000D01*
X132795000Y-147236000D02*
X132795000Y-153560000D01*
X132795000Y-156440000D02*
X132795000Y-162764000D01*
X132835000Y-147261000D02*
X132835000Y-153560000D01*
X132835000Y-156440000D02*
X132835000Y-162739000D01*
X132875000Y-147285000D02*
X132875000Y-153560000D01*
X132875000Y-156440000D02*
X132875000Y-162715000D01*
X132915000Y-147310000D02*
X132915000Y-153560000D01*
X132915000Y-156440000D02*
X132915000Y-162690000D01*
X132955000Y-147335000D02*
X132955000Y-153560000D01*
X132955000Y-156440000D02*
X132955000Y-162665000D01*
X132995000Y-147361000D02*
X132995000Y-153560000D01*
X132995000Y-156440000D02*
X132995000Y-162639000D01*
X133035000Y-147387000D02*
X133035000Y-153560000D01*
X133035000Y-156440000D02*
X133035000Y-162613000D01*
X133075000Y-147413000D02*
X133075000Y-153560000D01*
X133075000Y-156440000D02*
X133075000Y-162587000D01*
X133115000Y-147439000D02*
X133115000Y-153560000D01*
X133115000Y-156440000D02*
X133115000Y-162561000D01*
X133155000Y-147466000D02*
X133155000Y-153560000D01*
X133155000Y-156440000D02*
X133155000Y-162534000D01*
X133195000Y-147493000D02*
X133195000Y-153560000D01*
X133195000Y-156440000D02*
X133195000Y-162507000D01*
X133235000Y-147520000D02*
X133235000Y-153560000D01*
X133235000Y-156440000D02*
X133235000Y-162480000D01*
X133275000Y-147548000D02*
X133275000Y-162452000D01*
X133315000Y-147576000D02*
X133315000Y-162424000D01*
X133355000Y-147604000D02*
X133355000Y-162396000D01*
X133395000Y-147632000D02*
X133395000Y-162368000D01*
X133435000Y-147661000D02*
X133435000Y-162339000D01*
X133475000Y-147691000D02*
X133475000Y-162309000D01*
X133515000Y-147720000D02*
X133515000Y-162280000D01*
X133555000Y-147750000D02*
X133555000Y-162250000D01*
X133595000Y-147780000D02*
X133595000Y-162220000D01*
X133635000Y-147811000D02*
X133635000Y-162189000D01*
X133675000Y-147842000D02*
X133675000Y-162158000D01*
X133715000Y-147873000D02*
X133715000Y-162127000D01*
X133755000Y-147905000D02*
X133755000Y-162095000D01*
X133795000Y-147937000D02*
X133795000Y-162063000D01*
X133835000Y-147969000D02*
X133835000Y-162031000D01*
X133875000Y-148002000D02*
X133875000Y-161998000D01*
X133915000Y-148035000D02*
X133915000Y-161965000D01*
X133955000Y-148069000D02*
X133955000Y-161931000D01*
X133995000Y-148103000D02*
X133995000Y-161897000D01*
X134035000Y-148137000D02*
X134035000Y-161863000D01*
X134075000Y-148172000D02*
X134075000Y-161828000D01*
X134115000Y-148207000D02*
X134115000Y-161793000D01*
X134155000Y-148242000D02*
X134155000Y-161758000D01*
X134195000Y-148278000D02*
X134195000Y-161722000D01*
X134235000Y-148315000D02*
X134235000Y-161685000D01*
X134275000Y-148352000D02*
X134275000Y-161648000D01*
X134315000Y-148389000D02*
X134315000Y-161611000D01*
X134355000Y-148427000D02*
X134355000Y-161573000D01*
X134395000Y-148465000D02*
X134395000Y-161535000D01*
X134435000Y-148504000D02*
X134435000Y-161496000D01*
X134475000Y-148543000D02*
X134475000Y-161457000D01*
X134515000Y-148582000D02*
X134515000Y-161418000D01*
X134555000Y-148623000D02*
X134555000Y-161377000D01*
X134595000Y-148663000D02*
X134595000Y-161337000D01*
X134635000Y-148704000D02*
X134635000Y-161296000D01*
X134675000Y-148746000D02*
X134675000Y-161254000D01*
X134715000Y-148788000D02*
X134715000Y-161212000D01*
X134755000Y-148831000D02*
X134755000Y-161169000D01*
X134795000Y-148874000D02*
X134795000Y-161126000D01*
X134835000Y-148918000D02*
X134835000Y-161082000D01*
X134875000Y-148963000D02*
X134875000Y-161037000D01*
X134915000Y-149008000D02*
X134915000Y-160992000D01*
X134955000Y-149053000D02*
X134955000Y-160947000D01*
X134995000Y-149100000D02*
X134995000Y-160900000D01*
X135035000Y-149147000D02*
X135035000Y-160853000D01*
X135075000Y-149194000D02*
X135075000Y-160806000D01*
X135115000Y-149242000D02*
X135115000Y-160758000D01*
X135155000Y-149291000D02*
X135155000Y-160709000D01*
X135195000Y-149341000D02*
X135195000Y-160659000D01*
X135235000Y-149391000D02*
X135235000Y-160609000D01*
X135275000Y-149442000D02*
X135275000Y-160558000D01*
X135315000Y-149494000D02*
X135315000Y-160506000D01*
X135355000Y-149547000D02*
X135355000Y-160453000D01*
X135395000Y-149600000D02*
X135395000Y-160400000D01*
X135435000Y-149654000D02*
X135435000Y-160346000D01*
X135475000Y-149709000D02*
X135475000Y-160291000D01*
X135515000Y-149765000D02*
X135515000Y-160235000D01*
X135555000Y-149822000D02*
X135555000Y-160178000D01*
X135595000Y-149880000D02*
X135595000Y-160120000D01*
X135635000Y-149939000D02*
X135635000Y-160061000D01*
X135675000Y-149999000D02*
X135675000Y-160001000D01*
X135715000Y-150060000D02*
X135715000Y-159940000D01*
X135755000Y-150121000D02*
X135755000Y-159879000D01*
X135795000Y-150184000D02*
X135795000Y-159816000D01*
X135835000Y-150249000D02*
X135835000Y-159751000D01*
X135875000Y-150314000D02*
X135875000Y-159686000D01*
X135915000Y-150381000D02*
X135915000Y-159619000D01*
X135955000Y-150449000D02*
X135955000Y-159551000D01*
X135995000Y-150518000D02*
X135995000Y-159482000D01*
X136035000Y-150589000D02*
X136035000Y-159411000D01*
X136075000Y-150661000D02*
X136075000Y-159339000D01*
X136115000Y-150735000D02*
X136115000Y-159265000D01*
X136155000Y-150811000D02*
X136155000Y-159189000D01*
X136195000Y-150888000D02*
X136195000Y-159112000D01*
X136235000Y-150967000D02*
X136235000Y-159033000D01*
X136275000Y-151048000D02*
X136275000Y-158952000D01*
X136315000Y-151131000D02*
X136315000Y-158869000D01*
X136355000Y-151217000D02*
X136355000Y-158783000D01*
X136395000Y-151305000D02*
X136395000Y-158695000D01*
X136435000Y-151395000D02*
X136435000Y-158605000D01*
X136475000Y-151488000D02*
X136475000Y-158512000D01*
X136515000Y-151584000D02*
X136515000Y-158416000D01*
X136555000Y-151684000D02*
X136555000Y-158316000D01*
X136595000Y-151787000D02*
X136595000Y-158213000D01*
X136635000Y-151893000D02*
X136635000Y-158107000D01*
X136675000Y-152004000D02*
X136675000Y-157996000D01*
X136715000Y-152120000D02*
X136715000Y-157880000D01*
X136755000Y-152241000D02*
X136755000Y-157759000D01*
X136795000Y-152369000D02*
X136795000Y-157631000D01*
X136835000Y-152503000D02*
X136835000Y-157497000D01*
X136875000Y-152645000D02*
X136875000Y-157355000D01*
X136915000Y-152798000D02*
X136915000Y-157202000D01*
X136955000Y-152962000D02*
X136955000Y-157038000D01*
X136995000Y-153141000D02*
X136995000Y-156859000D01*
X137035000Y-153339000D02*
X137035000Y-156661000D01*
X137075000Y-153565000D02*
X137075000Y-156435000D01*
X137115000Y-153835000D02*
X137115000Y-156165000D01*
X137155000Y-154187000D02*
X137155000Y-155813000D01*
X137195000Y-155040000D02*
X137195000Y-154960000D01*
X137195000Y-155000000D02*
G75*
G02*
X118955000Y-155000000I-9120000J0D01*
G01*
X118955000Y-155000000D02*
G75*
G02*
X137195000Y-155000000I9120000J0D01*
G01*
%TO.C,C8*%
X49520354Y-97125000D02*
X50520354Y-97125000D01*
X50020354Y-96625000D02*
X50020354Y-97625000D01*
X55000000Y-94920000D02*
X55000000Y-105080000D01*
X55040000Y-94920000D02*
X55040000Y-105080000D01*
X55080000Y-94921000D02*
X55080000Y-105079000D01*
X55120000Y-94921000D02*
X55120000Y-105079000D01*
X55160000Y-94923000D02*
X55160000Y-105077000D01*
X55200000Y-94924000D02*
X55200000Y-105076000D01*
X55240000Y-94926000D02*
X55240000Y-105074000D01*
X55280000Y-94928000D02*
X55280000Y-105072000D01*
X55320000Y-94930000D02*
X55320000Y-105070000D01*
X55360000Y-94933000D02*
X55360000Y-105067000D01*
X55400000Y-94936000D02*
X55400000Y-105064000D01*
X55440000Y-94939000D02*
X55440000Y-105061000D01*
X55480000Y-94943000D02*
X55480000Y-105057000D01*
X55520000Y-94946000D02*
X55520000Y-105054000D01*
X55560000Y-94951000D02*
X55560000Y-105049000D01*
X55600000Y-94955000D02*
X55600000Y-105045000D01*
X55640000Y-94960000D02*
X55640000Y-105040000D01*
X55680000Y-94965000D02*
X55680000Y-105035000D01*
X55720000Y-94971000D02*
X55720000Y-105029000D01*
X55760000Y-94977000D02*
X55760000Y-105023000D01*
X55800000Y-94983000D02*
X55800000Y-105017000D01*
X55840000Y-94989000D02*
X55840000Y-105011000D01*
X55880000Y-94996000D02*
X55880000Y-105004000D01*
X55920000Y-95003000D02*
X55920000Y-104997000D01*
X55960000Y-95011000D02*
X55960000Y-104989000D01*
X56000000Y-95019000D02*
X56000000Y-104981000D01*
X56040000Y-95027000D02*
X56040000Y-104973000D01*
X56080000Y-95035000D02*
X56080000Y-104965000D01*
X56120000Y-95044000D02*
X56120000Y-104956000D01*
X56160000Y-95053000D02*
X56160000Y-104947000D01*
X56200000Y-95063000D02*
X56200000Y-104937000D01*
X56240000Y-95072000D02*
X56240000Y-104928000D01*
X56280000Y-95083000D02*
X56280000Y-98760000D01*
X56280000Y-101240000D02*
X56280000Y-104917000D01*
X56320000Y-95093000D02*
X56320000Y-98760000D01*
X56320000Y-101240000D02*
X56320000Y-104907000D01*
X56360000Y-95104000D02*
X56360000Y-98760000D01*
X56360000Y-101240000D02*
X56360000Y-104896000D01*
X56400000Y-95115000D02*
X56400000Y-98760000D01*
X56400000Y-101240000D02*
X56400000Y-104885000D01*
X56440000Y-95127000D02*
X56440000Y-98760000D01*
X56440000Y-101240000D02*
X56440000Y-104873000D01*
X56480000Y-95139000D02*
X56480000Y-98760000D01*
X56480000Y-101240000D02*
X56480000Y-104861000D01*
X56520000Y-95151000D02*
X56520000Y-98760000D01*
X56520000Y-101240000D02*
X56520000Y-104849000D01*
X56560000Y-95163000D02*
X56560000Y-98760000D01*
X56560000Y-101240000D02*
X56560000Y-104837000D01*
X56600000Y-95176000D02*
X56600000Y-98760000D01*
X56600000Y-101240000D02*
X56600000Y-104824000D01*
X56640000Y-95190000D02*
X56640000Y-98760000D01*
X56640000Y-101240000D02*
X56640000Y-104810000D01*
X56680000Y-95203000D02*
X56680000Y-98760000D01*
X56680000Y-101240000D02*
X56680000Y-104797000D01*
X56720000Y-95218000D02*
X56720000Y-98760000D01*
X56720000Y-101240000D02*
X56720000Y-104782000D01*
X56760000Y-95232000D02*
X56760000Y-98760000D01*
X56760000Y-101240000D02*
X56760000Y-104768000D01*
X56800000Y-95247000D02*
X56800000Y-98760000D01*
X56800000Y-101240000D02*
X56800000Y-104753000D01*
X56840000Y-95262000D02*
X56840000Y-98760000D01*
X56840000Y-101240000D02*
X56840000Y-104738000D01*
X56880000Y-95278000D02*
X56880000Y-98760000D01*
X56880000Y-101240000D02*
X56880000Y-104722000D01*
X56920000Y-95294000D02*
X56920000Y-98760000D01*
X56920000Y-101240000D02*
X56920000Y-104706000D01*
X56960000Y-95310000D02*
X56960000Y-98760000D01*
X56960000Y-101240000D02*
X56960000Y-104690000D01*
X57000000Y-95327000D02*
X57000000Y-98760000D01*
X57000000Y-101240000D02*
X57000000Y-104673000D01*
X57040000Y-95344000D02*
X57040000Y-98760000D01*
X57040000Y-101240000D02*
X57040000Y-104656000D01*
X57080000Y-95362000D02*
X57080000Y-98760000D01*
X57080000Y-101240000D02*
X57080000Y-104638000D01*
X57120000Y-95380000D02*
X57120000Y-98760000D01*
X57120000Y-101240000D02*
X57120000Y-104620000D01*
X57160000Y-95398000D02*
X57160000Y-98760000D01*
X57160000Y-101240000D02*
X57160000Y-104602000D01*
X57200000Y-95417000D02*
X57200000Y-98760000D01*
X57200000Y-101240000D02*
X57200000Y-104583000D01*
X57240000Y-95436000D02*
X57240000Y-98760000D01*
X57240000Y-101240000D02*
X57240000Y-104564000D01*
X57280000Y-95456000D02*
X57280000Y-98760000D01*
X57280000Y-101240000D02*
X57280000Y-104544000D01*
X57320000Y-95476000D02*
X57320000Y-98760000D01*
X57320000Y-101240000D02*
X57320000Y-104524000D01*
X57360000Y-95496000D02*
X57360000Y-98760000D01*
X57360000Y-101240000D02*
X57360000Y-104504000D01*
X57400000Y-95517000D02*
X57400000Y-98760000D01*
X57400000Y-101240000D02*
X57400000Y-104483000D01*
X57440000Y-95539000D02*
X57440000Y-98760000D01*
X57440000Y-101240000D02*
X57440000Y-104461000D01*
X57480000Y-95561000D02*
X57480000Y-98760000D01*
X57480000Y-101240000D02*
X57480000Y-104439000D01*
X57520000Y-95583000D02*
X57520000Y-98760000D01*
X57520000Y-101240000D02*
X57520000Y-104417000D01*
X57560000Y-95606000D02*
X57560000Y-98760000D01*
X57560000Y-101240000D02*
X57560000Y-104394000D01*
X57600000Y-95629000D02*
X57600000Y-98760000D01*
X57600000Y-101240000D02*
X57600000Y-104371000D01*
X57640000Y-95653000D02*
X57640000Y-98760000D01*
X57640000Y-101240000D02*
X57640000Y-104347000D01*
X57680000Y-95677000D02*
X57680000Y-98760000D01*
X57680000Y-101240000D02*
X57680000Y-104323000D01*
X57720000Y-95702000D02*
X57720000Y-98760000D01*
X57720000Y-101240000D02*
X57720000Y-104298000D01*
X57760000Y-95728000D02*
X57760000Y-98760000D01*
X57760000Y-101240000D02*
X57760000Y-104272000D01*
X57800000Y-95753000D02*
X57800000Y-98760000D01*
X57800000Y-101240000D02*
X57800000Y-104247000D01*
X57840000Y-95780000D02*
X57840000Y-98760000D01*
X57840000Y-101240000D02*
X57840000Y-104220000D01*
X57880000Y-95807000D02*
X57880000Y-98760000D01*
X57880000Y-101240000D02*
X57880000Y-104193000D01*
X57920000Y-95834000D02*
X57920000Y-98760000D01*
X57920000Y-101240000D02*
X57920000Y-104166000D01*
X57960000Y-95862000D02*
X57960000Y-98760000D01*
X57960000Y-101240000D02*
X57960000Y-104138000D01*
X58000000Y-95891000D02*
X58000000Y-98760000D01*
X58000000Y-101240000D02*
X58000000Y-104109000D01*
X58040000Y-95920000D02*
X58040000Y-98760000D01*
X58040000Y-101240000D02*
X58040000Y-104080000D01*
X58080000Y-95950000D02*
X58080000Y-98760000D01*
X58080000Y-101240000D02*
X58080000Y-104050000D01*
X58120000Y-95980000D02*
X58120000Y-98760000D01*
X58120000Y-101240000D02*
X58120000Y-104020000D01*
X58160000Y-96012000D02*
X58160000Y-98760000D01*
X58160000Y-101240000D02*
X58160000Y-103988000D01*
X58200000Y-96043000D02*
X58200000Y-98760000D01*
X58200000Y-101240000D02*
X58200000Y-103957000D01*
X58240000Y-96076000D02*
X58240000Y-98760000D01*
X58240000Y-101240000D02*
X58240000Y-103924000D01*
X58280000Y-96109000D02*
X58280000Y-98760000D01*
X58280000Y-101240000D02*
X58280000Y-103891000D01*
X58320000Y-96142000D02*
X58320000Y-98760000D01*
X58320000Y-101240000D02*
X58320000Y-103858000D01*
X58360000Y-96177000D02*
X58360000Y-98760000D01*
X58360000Y-101240000D02*
X58360000Y-103823000D01*
X58400000Y-96212000D02*
X58400000Y-98760000D01*
X58400000Y-101240000D02*
X58400000Y-103788000D01*
X58440000Y-96248000D02*
X58440000Y-98760000D01*
X58440000Y-101240000D02*
X58440000Y-103752000D01*
X58480000Y-96284000D02*
X58480000Y-98760000D01*
X58480000Y-101240000D02*
X58480000Y-103716000D01*
X58520000Y-96322000D02*
X58520000Y-98760000D01*
X58520000Y-101240000D02*
X58520000Y-103678000D01*
X58560000Y-96360000D02*
X58560000Y-98760000D01*
X58560000Y-101240000D02*
X58560000Y-103640000D01*
X58600000Y-96399000D02*
X58600000Y-98760000D01*
X58600000Y-101240000D02*
X58600000Y-103601000D01*
X58640000Y-96439000D02*
X58640000Y-98760000D01*
X58640000Y-101240000D02*
X58640000Y-103561000D01*
X58680000Y-96480000D02*
X58680000Y-98760000D01*
X58680000Y-101240000D02*
X58680000Y-103520000D01*
X58720000Y-96522000D02*
X58720000Y-98760000D01*
X58720000Y-101240000D02*
X58720000Y-103478000D01*
X58760000Y-96565000D02*
X58760000Y-103435000D01*
X58800000Y-96609000D02*
X58800000Y-103391000D01*
X58840000Y-96653000D02*
X58840000Y-103347000D01*
X58880000Y-96699000D02*
X58880000Y-103301000D01*
X58920000Y-96746000D02*
X58920000Y-103254000D01*
X58960000Y-96795000D02*
X58960000Y-103205000D01*
X59000000Y-96844000D02*
X59000000Y-103156000D01*
X59040000Y-96895000D02*
X59040000Y-103105000D01*
X59080000Y-96947000D02*
X59080000Y-103053000D01*
X59120000Y-97000000D02*
X59120000Y-103000000D01*
X59160000Y-97055000D02*
X59160000Y-102945000D01*
X59200000Y-97112000D02*
X59200000Y-102888000D01*
X59240000Y-97170000D02*
X59240000Y-102830000D01*
X59280000Y-97230000D02*
X59280000Y-102770000D01*
X59320000Y-97292000D02*
X59320000Y-102708000D01*
X59360000Y-97356000D02*
X59360000Y-102644000D01*
X59400000Y-97422000D02*
X59400000Y-102578000D01*
X59440000Y-97490000D02*
X59440000Y-102510000D01*
X59480000Y-97561000D02*
X59480000Y-102439000D01*
X59520000Y-97635000D02*
X59520000Y-102365000D01*
X59560000Y-97712000D02*
X59560000Y-102288000D01*
X59600000Y-97792000D02*
X59600000Y-102208000D01*
X59640000Y-97876000D02*
X59640000Y-102124000D01*
X59680000Y-97963000D02*
X59680000Y-102037000D01*
X59720000Y-98056000D02*
X59720000Y-101944000D01*
X59760000Y-98154000D02*
X59760000Y-101846000D01*
X59800000Y-98258000D02*
X59800000Y-101742000D01*
X59840000Y-98370000D02*
X59840000Y-101630000D01*
X59880000Y-98491000D02*
X59880000Y-101509000D01*
X59920000Y-98623000D02*
X59920000Y-101377000D01*
X59960000Y-98770000D02*
X59960000Y-101230000D01*
X60000000Y-98938000D02*
X60000000Y-101062000D01*
X60040000Y-99138000D02*
X60040000Y-100862000D01*
X60080000Y-99401000D02*
X60080000Y-100599000D01*
X60120000Y-100000000D02*
G75*
G02*
X49880000Y-100000000I-5120000J0D01*
G01*
X49880000Y-100000000D02*
G75*
G02*
X60120000Y-100000000I5120000J0D01*
G01*
%TD*%
M02*
